<?xml version="1.0" encoding="utf-8"?>
<!-- Generator: Adobe Illustrator 27.8.0, SVG Export Plug-In . SVG Version: 6.00 Build 0)  -->
<svg version="1.1" id="Capa_1" xmlns="http://www.w3.org/2000/svg" xmlns:xlink="http://www.w3.org/1999/xlink" x="0px" y="0px"
	 viewBox="0 0 300 300" style="enable-background:new 0 0 300 300;" xml:space="preserve">
<path style="fill:#FFFFFF;" d="M200.71,229.83c7.81-3.06,15.34-6.63,22.62-11.09c-1.88-1.5-3.66-2.92-5.43-4.33
	c-44.98,20.6-89.92,20.38-134.98,0.01c-1.72,1.36-3.51,2.78-5.29,4.2c0.71,0.84,6.32,4.05,10.94,6.18
	c3.77,1.74,7.58,3.39,11.45,5.12c-0.12,0.28-0.23,0.59-0.37,0.88c-2.56,5.16-5.41,10.15-8.56,14.98c-1.56,2.4-3.19,4.74-4.81,7.11
	c-0.56,0.82-0.59,0.82-1.54,0.52c-8.19-2.58-16.21-5.63-24.05-9.15c-7.81-3.51-15.37-7.48-22.71-11.89
	c-6.51-3.91-12.8-8.14-18.9-12.66c-0.57-0.42-0.92-0.87-0.95-1.62c-0.06-1.43-0.24-2.85-0.34-4.27c-0.19-2.85-0.38-5.7-0.54-8.55
	c-0.06-1.16-0.07-2.33-0.07-3.49c-0.01-4.39-0.08-8.79,0.02-13.17c0.08-3.68,0.33-7.36,0.56-11.04c0.15-2.39,0.33-4.77,0.63-7.15
	c0.57-4.58,1.15-9.17,1.87-13.73c1.02-6.47,2.44-12.87,4.11-19.21c2.07-7.89,4.54-15.65,7.46-23.26c2.5-6.53,5.27-12.93,8.31-19.23
	C43.43,88.2,47,81.59,50.88,75.15c2.06-3.42,4.23-6.77,6.33-10.16c0.37-0.59,0.86-0.98,1.48-1.27c6.53-3.01,13.19-5.71,19.98-8.07
	c6.32-2.2,12.71-4.16,19.23-5.69c4.66-1.1,9.37-2,14.06-2.97c0.87-0.18,0.89-0.14,1.32,0.64c2.28,4.18,4.35,8.46,6.26,12.82
	c0.45,1.03,0.47,1.02,1.56,0.88c3.83-0.47,7.65-0.98,11.49-1.34c3.27-0.31,6.56-0.52,9.85-0.61c4.72-0.13,9.45-0.25,14.16-0.12
	c4.45,0.12,8.89,0.51,13.32,0.9c3.34,0.3,6.67,0.78,10,1.19c0.92,0.11,0.97,0.08,1.36-0.76c1.52-3.29,3.04-6.58,4.59-9.86
	c0.51-1.08,1.11-2.12,1.68-3.17c0.4-0.73,0.42-0.73,1.26-0.58c7.71,1.35,15.31,3.14,22.83,5.33c9.88,2.89,19.51,6.47,28.9,10.68
	c1.72,0.77,2.94,1.81,3.95,3.4c3.88,6.09,7.63,12.25,11.08,18.6c4.55,8.37,8.6,16.97,12.11,25.82c3.47,8.73,6.39,17.63,8.76,26.72
	c1.86,7.12,3.36,14.31,4.49,21.57c0.6,3.84,1.07,7.7,1.49,11.57c0.36,3.33,0.61,6.68,0.81,10.03c0.2,3.48,0.28,6.97,0.41,10.46
	c0.07,1.82,0.2,3.65,0.18,5.47c-0.03,2.82-0.14,5.64-0.25,8.46c-0.09,2.26-0.23,4.51-0.39,6.76c-0.16,2.22-0.38,4.43-0.54,6.65
	c-0.04,0.55-0.37,0.82-0.76,1.1c-2.13,1.53-4.25,3.09-6.41,4.6c-6.74,4.71-13.73,9.02-20.96,12.94c-9.64,5.23-19.6,9.73-29.94,13.4
	c-2.79,0.99-5.6,1.93-8.4,2.87c-1.09,0.37-1.09,0.34-1.78-0.62c-4.29-5.98-8.16-12.22-11.6-18.73c-0.61-1.15-1.21-2.29-1.81-3.45
	C200.88,230.39,200.83,230.17,200.71,229.83z M130.08,159.58c0.05-1.76-0.23-4.27-0.88-6.72c-2.07-7.77-6.3-13.92-13.69-17.47
	c-6.81-3.27-13.61-2.95-20.19,0.73c-4.33,2.42-7.48,6.01-9.77,10.39c-2.31,4.43-3.41,9.14-3.39,14.11c0.01,1.49,0.13,2.99,0.36,4.46
	c1.07,6.88,3.97,12.84,9.36,17.34c6.28,5.25,13.41,6.85,21.27,4.2c5.42-1.82,9.48-5.42,12.47-10.23
	C128.69,171.49,130.07,166.12,130.08,159.58z M170.72,161.29c0.1,0.92,0.18,2.75,0.5,4.54c1.22,6.78,4.26,12.58,9.68,16.95
	c5.4,4.36,11.56,6.04,18.41,4.54c6.07-1.33,10.76-4.81,14.22-9.91c4.04-5.95,5.57-12.56,5.01-19.7c-0.3-3.94-1.34-7.64-3.15-11.15
	c-2.25-4.36-5.44-7.86-9.67-10.36c-4.21-2.49-8.79-3.43-13.62-2.85c-6.23,0.75-11.2,3.86-15.07,8.7
	C172.76,147.4,170.83,153.58,170.72,161.29z"/>
<g>
</g>
<g>
</g>
<g>
</g>
<g>
</g>
<g>
</g>
<g>
</g>
<g>
</g>
<g>
</g>
<g>
</g>
<g>
</g>
<g>
</g>
<g>
</g>
<g>
</g>
<g>
</g>
<g>
</g>
</svg>
