<?xml version="1.0" encoding="utf-8"?>
<!-- Generator: Adobe Illustrator 27.8.0, SVG Export Plug-In . SVG Version: 6.00 Build 0)  -->
<svg version="1.1" id="Capa_1" xmlns="http://www.w3.org/2000/svg" xmlns:xlink="http://www.w3.org/1999/xlink" x="0px" y="0px"
	 viewBox="0 0 200 200" style="enable-background:new 0 0 200 200;" xml:space="preserve">
<g>
	<path d="M-683.67,333.58c-3.95,0.53-7.71,0.84-11.39,1.58c-4.81,0.97-9.55,2.28-14.32,3.46c-3.03,0.75-6.03,1.65-9.09,2.25
		c-3.85,0.76-7.56-0.24-11.2-1.42c-5.14-1.68-9.51-4.66-13.55-8.17c-0.58-0.5-0.88-0.49-1.46,0.03c-3.09,2.74-6.35,5.24-10.25,6.78
		c-5.53,2.18-11.12,2.18-16.77,0.56c-3.84-1.1-7.41-2.81-10.76-4.96c-0.86-0.55-1.52-0.49-2.39,0.01
		c-6.01,3.43-12.41,5.89-19.28,6.82c-4.42,0.6-8.76-0.19-13-1.58c-7.02-2.31-14.21-3.89-21.56-4.76c-1.27-0.15-2.54-0.3-4.09-0.48
		c1.62-1.91,3.04-3.54,4.41-5.22c4.23-5.19,8.52-10.33,12.63-15.61c7.33-9.44,13.85-19.43,19.78-29.8
		c4.74-8.3,9.08-16.81,12.77-25.64c2.49-5.96,4.92-11.94,7.37-17.92c0.54-1.33,0.59-1.33,1.9-0.71c5.3,2.51,10.6,5.01,15.92,7.49
		c0.78,0.36,1.17,0.83,1.15,1.72c-0.04,1.66-0.02,3.33,0,5c0.07,6.46,0.15,12.92,0.25,19.37c0.01,0.5,0.08,1.05,0.31,1.49
		c1.76,3.51,3.56,6.99,5.36,10.48c0.05,0.09,0.16,0.16,0.3,0.29c0.53-1.06,0.49-2.06,0.04-3.09c-1.15-2.61-2.32-5.21-3.41-7.85
		c-0.25-0.61-0.37-1.39-0.23-2.03c1.65-7.71,3.38-15.41,5.02-23.12c0.31-1.48,0.93-2.42,2.38-3.06c4.89-2.17,9.72-4.47,14.55-6.78
		c0.96-0.46,1.25-0.04,1.56,0.74c1.69,4.28,3.35,8.57,5.13,12.81c4.02,9.58,8.37,19,13.51,28.05c5.82,10.25,12.06,20.24,19.15,29.64
		c5.1,6.76,10.55,13.27,15.87,19.86C-686.04,331.09-684.87,332.26-683.67,333.58z M-769.64,312.5c-0.1-0.01-0.21-0.01-0.31-0.02
		c0-0.72-0.04-1.44,0.01-2.15c0.3-5.09,0.61-10.19,0.93-15.28c0.12-1.85,0.33-3.7,0.41-5.56c0.07-1.64,0.24-3.23-0.82-4.79
		c-1.96-2.88-3.71-5.9-5.5-8.9c-0.31-0.52-0.5-1.18-0.51-1.78c-0.11-6.18-0.33-12.36-0.18-18.54c0.06-2.51-0.56-3.97-3-4.79
		c-1.65-0.55-1.58-0.74-2.24,0.89c-3.28,8.12-6.86,16.11-10.88,23.9c-5.65,10.93-11.84,21.54-18.96,31.57
		c-4.15,5.85-8.61,11.46-12.94,17.18c-0.83,1.09-1.69,2.16-2.6,3.33c0.43,0.17,0.66,0.3,0.92,0.37c3.68,0.95,7.4,1.77,11.04,2.86
		c5.48,1.65,10.8,1.45,16.21-0.41c4.76-1.63,9.22-3.82,13.47-6.46c0.8-0.49,1.44-0.63,2.25,0c3,2.33,6.42,3.92,9.92,5.32
		c6.39,2.56,12.7,2.6,18.53-1.3c3.3-2.21,6.24-4.98,9.24-7.61c0.9-0.79,1.36-0.84,2.2,0.03c2.98,3.07,5.95,6.14,9.66,8.4
		c5.66,3.44,11.57,4.75,18.06,2.7c3.81-1.2,7.7-2.2,11.55-3.27c0.82-0.23,1.66-0.36,2.65-0.57c-0.31-0.48-0.47-0.78-0.68-1.05
		c-1.4-1.77-2.88-3.48-4.22-5.3c-4.63-6.28-9.44-12.45-13.74-18.95c-4.39-6.63-8.48-13.49-12.32-20.46
		c-3.57-6.48-6.72-13.2-9.89-19.89c-1.71-3.61-3.1-7.38-4.6-11.09c-0.27-0.66-0.62-0.86-1.27-0.54c-1.28,0.63-2.6,1.19-3.84,1.89
		c-0.37,0.21-0.67,0.78-0.75,1.23c-1.05,5.81-2.08,11.62-3.03,17.45c-0.14,0.88,0,1.89,0.28,2.75c0.78,2.41,1.76,4.76,2.53,7.17
		c0.2,0.62,0.12,1.53-0.21,2.09c-4.58,7.88-9.23,15.72-13.86,23.57C-767.3,308.5-768.47,310.5-769.64,312.5z"/>
	<path d="M-772.93,227.37c-0.26-0.52-0.52-1.03-0.78-1.55c-1.6-3.28-3.18-6.56-4.81-9.83c-0.47-0.95-0.56-1.84-0.25-2.86
		c3.17-10.34,6.33-20.69,9.48-31.04c1.79-5.88,3.56-11.76,5.35-17.63c0.11-0.36,0.27-0.72,0.71-1.1c0.49,1.51,1.01,3.02,1.47,4.53
		c2.73,8.86,5.45,17.72,8.16,26.59c1.91,6.25,3.82,12.5,5.65,18.78c0.21,0.71,0.05,1.66-0.25,2.35c-1.59,3.58-3.28,7.12-4.94,10.68
		c-0.18,0.38-0.41,0.73-0.62,1.09c-0.14,0.01-0.27,0.01-0.4,0.02c-2.99-10.31-5.98-20.62-8.97-30.92c-0.11-0.01-0.23-0.03-0.34-0.04
		c-2.98,10.33-5.97,20.65-8.95,30.98C-772.6,227.4-772.77,227.39-772.93,227.37z"/>
	<path d="M-742.55,219.36c0.58-1.54,1.13-3.09,1.75-4.61c3.53-8.82,7.08-17.63,10.62-26.45c0.6-1.48,0.77-1.51,2.12-0.68
		c2.06,1.26,4.12,2.51,6.23,3.7c0.95,0.53,1.13,0.99,0.41,1.9c-4.96,6.27-9.87,12.57-14.8,18.86c-1.76,2.24-3.51,4.48-5.27,6.72
		c-0.21,0.27-0.46,0.5-0.68,0.75C-742.31,219.48-742.43,219.42-742.55,219.36z"/>
	<path d="M-804.85,209.23c10.07,7.77,19.88,15.35,29.69,22.92c-0.05,0.1-0.1,0.21-0.16,0.31c-0.44-0.16-0.9-0.3-1.33-0.5
		c-9.33-4.14-18.66-8.29-28-12.42c-2.22-0.98-2.36-0.44-1.65-3.49C-805.8,213.9-805.38,211.73-804.85,209.23z"/>
	<path d="M-783.38,208.08c-0.96-1.03-1.95-2.05-2.89-3.1c-4.18-4.7-8.33-9.42-12.51-14.12c-1.71-1.92-3.45-3.81-5.18-5.71
		c-1.11-1.22-1.07-1.35,0.32-2.12c2.01-1.11,4-2.25,5.96-3.45c0.77-0.47,1.17-0.41,1.56,0.41c2.75,5.88,5.52,11.75,8.28,17.63
		c1.43,3.05,2.84,6.1,4.26,9.15c0.18,0.38,0.33,0.76,0.5,1.14C-783.18,207.97-783.28,208.02-783.38,208.08z"/>
	<path d="M-726.68,221.9c0.51,2.2,0.99,4.15,1.41,6.11c0.47,2.17,0.45,2.19-1.74,2.63c-4.16,0.82-8.33,1.61-12.49,2.41
		c-0.15,0.03-0.3,0-0.64-0.25C-735.75,229.25-731.36,225.69-726.68,221.9z"/>
	<path d="M-749.99,347.99c0.44-0.41,0.86-0.79,1.26-1.18c1.24-1.22,2.49-2.44,3.7-3.68c0.55-0.56,0.96-0.64,1.55,0.01
		c1.29,1.39,2.67,2.71,4,4.06c0.26,0.27,0.5,0.57,0.76,0.87C-741.48,349.73-747.59,349.71-749.99,347.99z"/>
	<path d="M-790.47,348.14c1.41-1.42,2.66-2.67,3.9-3.91c1.86-1.86,1.86-1.86,3.67-0.04c1.24,1.25,2.48,2.5,3.83,3.85
		C-782.89,349.68-786.5,349.58-790.47,348.14z"/>
	<path d="M-744.71,271.99c0.86,1.94,1.63,3.92,2.6,5.81c2.88,5.6,5.69,11.23,8.79,16.7c4.83,8.52,10.52,16.49,16.34,24.35
		c1.01,1.36,1,1.42-0.23,2.66c-1.26,1.26-2.55,2.49-3.77,3.79c-0.73,0.77-1.25,0.81-1.86-0.11c-3.59-5.46-7.28-10.86-10.77-16.38
		c-2.34-3.71-4.4-7.6-6.59-11.42c-2.11-3.69-2.98-7.71-3.37-11.9c-0.39-4.09-0.93-8.17-1.39-12.26c-0.04-0.38-0.01-0.78-0.01-1.17
		C-744.87,272.04-744.79,272.01-744.71,271.99z"/>
	<path d="M-783.01,279.86c-0.23,1.11-0.43,2.22-0.68,3.33c-1.21,5.49-2.47,10.98-3.64,16.48c-0.53,2.46-2.1,4.33-3.39,6.36
		c-2.54,4.02-5.21,7.96-7.84,11.92c-0.93,1.4-1.07,1.42-2.55,0.57c-1.31-0.75-2.61-1.5-3.93-2.23c-0.82-0.45-0.86-0.94-0.34-1.71
		c3.51-5.13,7.12-10.21,10.43-15.47c3.71-5.9,7.14-11.98,10.69-17.97c0.28-0.47,0.57-0.92,0.86-1.39
		C-783.26,279.78-783.13,279.82-783.01,279.86z"/>
</g>
<g>
	<path d="M-629.78,444.27c0-1.91,0.04-3.82-0.01-5.72c-0.11-4.23-0.27-8.46-0.39-12.7c-0.28-10.12-0.53-20.24-0.82-30.35
		c-0.2-7.05-0.41-14.11-0.66-21.16c-0.06-1.53,0.36-2.77,1.27-4.02c11.21-15.41,22.37-30.85,33.55-46.28
		c0.19-0.26,0.38-0.52,0.58-0.77c0.83-1.01,1.58-1.03,2.34,0.03c1.38,1.93,2.72,3.9,4.06,5.87c5.99,8.79,11.97,17.58,17.95,26.38
		c3.42,5.03,6.72,10.15,10.25,15.09c1.37,1.91,1.65,3.73,1.24,5.97c-1.76,9.6-3.4,19.23-5.1,28.85c-1.5,8.55-3.03,17.09-4.52,25.64
		c-1.89,10.76-3.76,21.53-5.64,32.29c-0.48,2.73-0.96,5.46-1.53,8.18c-0.16,0.77,0.05,1.2,0.63,1.63
		c7.18,5.4,14.35,10.82,21.55,16.2c0.96,0.71,1.48,1.51,1.15,2.66c-0.32,1.09-1.29,1.32-2.29,1.46c-5.49,0.77-10.99,1.55-16.48,2.32
		c-5.41,0.76-10.82,1.62-16.25,2.23c-5.17,0.58-10,2.38-14.94,3.8c-4.98,1.44-9.98,2.84-14.92,4.41c-2.56,0.82-4.99,0.46-7.49-0.03
		c-8.95-1.74-17.9-3.51-26.87-5.18c-10.71-1.99-21.42-3.91-32.14-5.81c-4.11-0.73-8.25-1.35-12.37-2.02
		c-0.28-0.05-0.54-0.15-0.82-0.21c-0.88-0.17-1.62-0.66-1.56-1.56c0.04-0.66,0.4-1.52,0.91-1.9c4.94-3.69,9.93-7.31,14.92-10.93
		c3.42-2.49,6.84-4.97,10.3-7.41c0.83-0.59,0.68-1.24,0.45-2.01c-1.42-4.82-2.84-9.64-4.25-14.46c-2.98-10.18-5.95-20.36-8.94-30.54
		c-2.23-7.6-4.46-15.2-6.72-22.78c-0.37-1.24-0.29-2.33,0.34-3.47c4.84-8.83,9.65-17.67,14.47-26.51c1.99-3.64,3.97-7.29,5.98-10.92
		c1.08-1.95,2.03-2.06,3.48-0.37c5.49,6.39,10.95,12.81,16.42,19.21c3.09,3.61,6.22,7.2,9.26,10.85c0.56,0.68,0.94,1.6,1.15,2.47
		c3.25,13.56,6.46,27.13,9.68,40.71c0.77,3.24,1.51,6.49,2.27,9.74c0.09,0.4,0.26,0.78,0.39,1.18
		C-629.87,444.3-629.83,444.29-629.78,444.27z M-643.06,486.13c0.08-0.06,0.16-0.12,0.24-0.18c-0.08-0.34-0.14-0.68-0.24-1.01
		c-3.5-11.78-7.02-23.55-10.49-35.33c-3.08-10.44-6.09-20.91-9.18-31.35c-0.17-0.57-0.7-1.19-1.24-1.47
		c-6.51-3.43-13.05-6.79-19.59-10.17c-0.55-0.28-1.12-0.53-1.94-0.9c0.19,0.78,0.28,1.28,0.43,1.76c2.32,7.7,4.66,15.38,6.95,23.09
		c3.75,12.63,7.46,25.28,11.22,37.9c0.15,0.49,0.55,1,0.97,1.31c5.35,3.87,10.73,7.7,16.1,11.54
		C-647.57,482.92-645.31,484.53-643.06,486.13z M-609.22,471.21c0.05,0.01,0.1,0.03,0.15,0.04c0.14-0.35,0.3-0.69,0.41-1.05
		c1.55-5.07,3.09-10.15,4.63-15.22c3.31-10.96,6.6-21.93,9.92-32.89c3.13-10.31,6.27-20.61,9.44-30.9c0.24-0.79,0.14-1.37-0.43-1.96
		c-2.06-2.15-4.08-4.36-6.16-6.49c-1-1.03-2.12-1.94-3.31-3.02c-0.07,0.1-0.23,0.32-0.39,0.56c-3.44,5.3-6.88,10.6-10.3,15.92
		c-0.26,0.41-0.4,0.97-0.42,1.47c-0.2,3.86-0.35,7.73-0.53,11.6c-0.3,6.4-0.62,12.8-0.93,19.2c-0.18,3.74-0.35,7.49-0.55,11.23
		c-0.29,5.35-0.59,10.7-0.89,16.05c-0.21,3.74-0.45,7.48-0.63,11.22C-609.28,468.37-609.22,469.79-609.22,471.21z M-636.57,484.79
		c2.64-2.14,5.06-4.14,7.52-6.08c0.67-0.52,0.86-1.01,0.65-1.84c-3.23-13.03-6.44-26.06-9.62-39.1c-2.65-10.85-5.27-21.7-7.9-32.55
		c-0.34-1.41-0.72-2.81-1.13-4.41c-0.32,0.37-0.46,0.51-0.57,0.67c-2.94,4.47-5.9,8.94-8.79,13.44c-0.28,0.43-0.3,1.17-0.18,1.7
		c0.34,1.49,0.81,2.94,1.24,4.41c5.53,18.81,11.06,37.62,16.6,56.43C-638.04,479.84-637.33,482.23-636.57,484.79z M-583.1,467
		c0.09-0.04,0.18-0.07,0.27-0.11c4.87-28.13,9.75-56.26,14.62-84.39c-2.91,2.16-5.49,4.46-8.13,6.69c-1.13,0.95-1.83,2.06-2.17,3.5
		c-0.38,1.64-0.93,3.25-1.42,4.86c-4.89,16.16-9.8,32.31-14.66,48.48c-0.18,0.58-0.14,1.41,0.16,1.92
		c2.64,4.56,5.37,9.08,8.07,13.61C-585.28,463.39-584.19,465.2-583.1,467z M-624.68,382.19c-0.13,0.36-0.2,0.46-0.2,0.57
		c0.19,7.7,0.36,15.4,0.58,23.09c0.3,10.88,0.64,21.76,0.94,32.64c0.33,11.6,0.63,23.21,0.96,34.82c0.13,4.56-0.71,3.2,3.38,5.08
		c1,0.46,2.03,0.84,3.11,1.29c0.08-0.46,0.15-0.7,0.16-0.94c0.19-5.15,0.36-10.31,0.56-15.46c0.24-6.08,0.49-12.16,0.75-18.24
		c0.31-7.21,0.63-14.41,0.95-21.62c0.17-3.86,0.33-7.73,0.52-11.59c0.21-4.47,0.46-8.93,0.64-13.4c0.02-0.52-0.13-1.16-0.45-1.56
		c-2.61-3.32-5.27-6.61-7.93-9.9C-621.96,385.42-623.26,383.89-624.68,382.19z M-669.9,369.42c-5.41,9.85-10.69,19.44-16.04,29.18
		c8.27,4.08,16.37,8.08,24.49,12.08c0.29-0.41,0.51-0.69,0.71-0.99c3.26-4.89,6.5-9.78,9.77-14.66c1.34-2,1.33-1.96-0.25-3.79
		c-4.52-5.25-9.02-10.52-13.52-15.78C-666.38,373.55-668.02,371.62-669.9,369.42z M-609.32,390.4c0.17-0.24,0.27-0.37,0.35-0.5
		c3.25-5.09,6.51-10.18,9.73-15.29c0.3-0.48,0.47-1.13,0.47-1.7c0.03-11.09,0.02-22.19,0.02-33.28c0-0.45-0.07-0.9-0.13-1.61
		c-2.16,3.04-4.12,5.82-6.1,8.59c-5.91,8.25-11.82,16.5-17.73,24.75c-1.24,1.73-1.61,1.3,0.14,3.37c2.91,3.45,5.8,6.92,8.71,10.37
		C-612.4,386.83-610.9,388.56-609.32,390.4z M-592.05,337.81c-0.06,0.64-0.12,0.91-0.12,1.19c0.01,10.89,0.02,21.77,0.06,32.66
		c0,0.43,0.21,0.97,0.51,1.28c3.48,3.64,7.01,7.24,10.5,10.87c0.42,0.44,0.74,0.47,1.21,0.06c3.73-3.26,7.48-6.5,11.24-9.73
		c0.63-0.54,0.65-0.98,0.18-1.62c-0.79-1.07-1.49-2.2-2.24-3.3c-5.45-8.03-10.9-16.06-16.35-24.08
		C-588.65,342.77-590.27,340.42-592.05,337.81z M-599.43,493.9c-0.58-0.49-0.88-0.82-1.25-1.03c-1.68-0.94-3.33-1.98-5.1-2.72
		c-5.6-2.34-11.27-4.5-16.86-6.87c-1.28-0.54-2.07-0.24-3.01,0.52c-2.97,2.41-5.97,4.79-8.97,7.15c-2.39,1.88-4.81,3.73-7.36,5.72
		c0.62,0.17,1.03,0.31,1.46,0.39c4.64,0.94,9.28,1.92,13.93,2.79c1.9,0.36,3.77,0.96,5.81,0.29c3.36-1.09,6.8-1.93,10.19-2.92
		C-606.98,496.19-603.38,495.08-599.43,493.9z M-687.52,488.15c0.96,0.2,1.54,0.33,2.13,0.44c11.46,2.15,22.91,4.3,34.37,6.43
		c0.37,0.07,0.89,0.11,1.14-0.09c1.37-1.09,2.68-2.26,4.09-3.47c-0.39-0.31-0.63-0.52-0.88-0.69c-6.96-4.87-13.93-9.73-20.86-14.64
		c-0.97-0.69-1.63-0.61-2.55,0.03c-5.02,3.5-10.09,6.94-15.13,10.4C-685.9,487.01-686.57,487.49-687.52,488.15z M-597.45,455.22
		c-0.26,0.75-0.39,1.13-0.51,1.51c-2.46,8.07-4.93,16.15-7.39,24.23c-0.66,2.16-0.6,2.1,1.49,3.12c0.99,0.48,1.66,0.36,2.5-0.27
		c3.14-2.32,6.33-4.57,9.5-6.86c1.75-1.27,3.48-2.56,5.26-3.86C-590.2,467.14-593.74,461.32-597.45,455.22z M-566.2,488.48
		c-0.5-0.43-0.78-0.69-1.09-0.92c-4.38-3.14-8.8-6.25-13.14-9.45c-0.88-0.64-1.43-0.5-2.21,0.05c-2.79,1.98-5.62,3.91-8.43,5.85
		c-1.81,1.25-3.61,2.49-5.51,3.8c1.43,1.33,2.75,2.52,4.01,3.76c0.62,0.61,1.25,0.68,2.08,0.55c5.68-0.89,11.36-1.72,17.05-2.57
		C-571.13,489.21-568.8,488.86-566.2,488.48z"/>
	<path d="M-692.23,438.34c-0.23,0.49-0.37,0.96-0.64,1.34c-2.07,2.93-4.13,5.86-6.25,8.75c-0.98,1.34-2.23,1.35-3.18,0.05
		c-2.1-2.85-4.14-5.76-6.25-8.61c-0.68-0.92-0.67-1.79-0.07-2.67c2.1-3.05,4.2-6.11,6.35-9.12c0.9-1.26,2.01-1.21,2.94,0.05
		c2.08,2.82,4.15,5.65,6.19,8.49C-692.77,437.12-692.55,437.73-692.23,438.34z M-700.74,442.09c0.87-1.23,1.62-2.26,2.32-3.32
		c0.12-0.18,0.12-0.58,0-0.75c-0.73-1.08-1.51-2.12-2.35-3.3c-0.88,1.2-1.63,2.19-2.34,3.21c-0.14,0.2-0.24,0.6-0.13,0.75
		C-702.48,439.79-701.66,440.85-700.74,442.09z"/>
	<path d="M-538.1,406.06c-0.18,0.38-0.3,0.82-0.55,1.17c-1.9,2.69-3.8,5.39-5.74,8.05c-0.95,1.31-2.11,1.35-3.07,0.07
		c-2.01-2.71-4-5.45-5.86-8.26c-0.35-0.53-0.38-1.69-0.04-2.21c1.97-2.99,4.07-5.89,6.18-8.77c0.65-0.89,1.7-0.86,2.36,0.05
		c2.15,2.96,4.24,5.96,6.34,8.96C-538.3,405.36-538.24,405.7-538.1,406.06z M-546.14,403.18c-0.58,0.78-1.09,1.45-1.57,2.14
		c-0.15,0.22-0.35,0.6-0.26,0.74c0.61,1.01,1.28,1.97,2.04,3.1c0.67-0.93,1.21-1.63,1.68-2.37c0.13-0.21,0.16-0.64,0.03-0.85
		C-544.8,405.03-545.45,404.16-546.14,403.18z"/>
	<path d="M-564.95,449.77c0.25-0.5,0.38-0.93,0.64-1.27c1.73-2.32,3.47-4.64,5.25-6.92c0.91-1.17,1.84-1.2,2.76,0.02
		c1.87,2.46,3.69,4.97,5.41,7.54c0.3,0.45,0.23,1.48-0.09,1.96c-1.57,2.33-3.24,4.6-4.97,6.82c-1.33,1.71-2.36,1.66-3.62-0.08
		c-1.56-2.15-3.1-4.31-4.61-6.49C-564.52,450.87-564.7,450.29-564.95,449.77z"/>
</g>
<path d="M-615.47,21.05c1.53,0.44,3.09,0.77,4.58,1.32c6.77,2.53,12.49,6.56,17.17,12.08c4.57,5.39,7.6,11.53,9.03,18.43
	c1.74,8.43,1.01,16.73-1.59,24.9c-2.55,8.03-6.72,15.13-12.19,21.5c-1.25,1.45-2.56,2.85-3.82,4.29c-0.61,0.69-1.09,0.59-1.51-0.17
	c-2.01-3.62-3.31-7.46-3.78-11.58c-0.61-5.43,0.06-10.76,1.34-16.04c0.06-0.25,0.09-0.51,0.14-0.76c-0.11-0.09-0.21-0.19-0.32-0.28
	c-0.91,1.01-1.83,2.02-2.73,3.04c-7.62,8.72-13.3,18.55-16.64,29.67c-1.91,6.37-2.95,12.89-2.99,19.55
	c-0.04,6.85,1.41,13.42,4.01,19.75c0.18,0.45,0.35,0.9,0.77,1.37c0.28-1.07,0.55-2.14,0.83-3.21c2.44-9.54,7.67-17.45,14.53-24.33
	c4.41-4.42,9.02-8.64,13.53-12.96c8.2-7.85,15.52-16.39,20.72-26.58c0.13-0.26,0.32-0.5,0.64-0.97c0.33,0.55,0.66,0.91,0.78,1.34
	c1.04,3.47,1.45,7.04,1.36,10.65c-0.12,4.65-0.9,9.2-2.59,13.56c-2.05,5.28-5.23,9.87-9.02,14.02c-4.52,4.95-9.32,9.65-13.72,14.71
	c-5.99,6.88-10.25,14.73-11.98,23.79c-2.06,10.8-0.56,20.96,5.97,30.05c4.59,6.39,10.84,10.13,18.67,11.06
	c6.58,0.78,13.06,0.04,19.43-1.66c0.38-0.1,0.78-0.69,0.88-1.12c0.96-3.93,1.87-7.87,2.79-11.81c3.16-13.53,6.33-27.05,9.48-40.59
	c0.08-0.36,0.08-0.85-0.11-1.15c-3.9-6.13-7.83-12.24-11.76-18.36c-0.12-0.18-0.28-0.34-0.61-0.74c-1.92,9.76-3.79,19.27-5.73,29.14
	c-1.01-2.31-1.7-4.43-2.79-6.31c-1.67-2.86-1.5-5.73-0.88-8.81c1.19-5.95,2.18-11.95,3.25-17.93c0.18-1.03,0.7-1.77,1.58-2.39
	c8.92-6.34,17.8-12.73,26.7-19.09c4.89-3.49,9.79-6.96,14.69-10.44c0.33-0.24,0.7-0.42,1.23-0.72c0.29,1.01,0.57,1.87,0.79,2.74
	c2.95,11.74,5.91,23.48,8.83,35.23c0.15,0.59,0.1,1.31-0.09,1.89c-2.8,8.84-5.63,17.67-8.45,26.5c-0.11,0.36-0.2,0.73-0.36,1.3
	c1.53-0.38,2.91-0.69,4.28-1.07c2.94-0.81,5.89-1.63,8.81-2.52c0.46-0.14,0.98-0.61,1.16-1.06c3.18-8.25,5.2-16.75,5.73-25.61
	c0.73-12.18-1.17-23.88-6.03-35.05c-3.48-8.01-8.13-15.31-13.95-21.87c-7.8-8.8-17.23-15.33-27.77-20.36
	c-5.6-2.67-11.47-4.58-17.43-6.27c-1.13-0.32-2.21-1-3.19-1.68c-3.33-2.31-6.61-4.7-9.91-7.06c-0.33-0.24-0.65-0.5-1.26-0.96
	c0.85,0.05,1.39,0.05,1.92,0.12c4.65,0.66,9.32,1.23,13.95,2.03c6.96,1.2,13.57,3.57,20.02,6.42c6.82,3.02,13.19,6.79,18.99,11.49
	c10.46,8.46,18.73,18.68,24.52,30.85c3.98,8.37,6.69,17.16,7.8,26.38c1.75,14.65,0.28,28.95-4.99,42.78
	c-3.99,10.48-9.79,19.85-17.46,28.08c-6.91,7.41-14.76,13.56-23.77,18.17c-8.32,4.26-17.08,7.19-26.33,8.63
	c-5.31,0.83-10.64,1.27-16.01,1.05c-13.13-0.53-25.6-3.64-37.31-9.68c-6.77-3.5-12.94-7.82-18.57-12.97
	c-8.47-7.75-15.22-16.77-20.15-27.1c-4.49-9.42-7.27-19.35-8.31-29.77c-1.2-12.11,0.13-23.9,4.01-35.41
	c0.51-1.52,1.3-2.95,2.16-4.39c2.95,7.5,7.55,13.42,14.62,17.63c-5.66-15.91-5.43-31.07,4.14-45.27c3.76-5.58,8.2-10.54,14.34-13.63
	c0.09,0.06,0.19,0.12,0.28,0.19c-0.06,0.27-0.1,0.54-0.18,0.81c-1.43,5.13-2.66,10.29-2.54,15.67c0.11,5.11,1.55,9.85,4.04,14.29
	c0.05,0.09,0.16,0.14,0.14,0.13c0.62-2.35,1.11-4.79,1.92-7.12c1.44-4.12,3.91-7.68,6.6-11.08c3.98-5.04,7.55-10.31,9.18-16.64
	c1.89-7.38,0.82-14.33-3.22-20.8c-0.17-0.28-0.33-0.57-0.49-0.86C-615.61,21.3-615.54,21.18-615.47,21.05z M-560.12,196.22
	c19.84-6.66,33.88-20.05,45.58-36.77c-0.38,0.11-0.49,0.12-0.58,0.16c-5.38,2.38-10.76,4.74-16.12,7.17
	c-0.8,0.36-1.56,0.96-2.17,1.6c-2.86,2.99-5.65,6.05-8.49,9.06c-0.57,0.61-1.24,1.12-2.05,1.83c7.08-16.07,14.05-31.87,21.01-47.67
	c-0.68,0.13-1.14,0.39-1.57,0.68c-5.98,4-11.94,8.02-17.94,11.99c-0.89,0.59-1.42,1.29-1.72,2.29c-1,3.28-2.06,6.55-3.11,9.82
	C-551.53,169.58-555.78,182.76-560.12,196.22z M-546.75,138.32c0.3-0.17,0.57-0.32,0.82-0.48c6.94-4.39,13.88-8.79,20.81-13.19
	c1.77-1.12,1.77-1.13,1.31-3.21c-1.2-5.48-2.4-10.96-3.62-16.43c-0.62-2.77-1.27-5.54-1.97-8.55
	c-7.86,10.91-15.57,21.62-23.28,32.32C-550.67,131.99-548.73,135.13-546.75,138.32z M-641.72,138.23c2.63-3.44,5.11-6.68,7.57-9.95
	c0.17-0.22,0.21-0.77,0.06-0.98c-2.49-3.43-5.01-6.82-7.52-10.21c-0.15,0.06-0.25,0.06-0.29,0.11c-2.41,3.4-4.82,6.79-7.19,10.22
	c-0.14,0.21-0.04,0.73,0.13,0.99c0.62,0.96,1.31,1.88,1.99,2.8C-645.26,133.51-643.54,135.79-641.72,138.23z"/>
<g>
	<path d="M-812.76,39.76c0.3,0.33,0.59,0.64,0.86,0.96c0.86,0.97,1.72,1.94,2.58,2.91c0.5,0.57,0.5,0.57,0.4,1.34
		c-0.06,0.52-0.1,1.05-0.14,1.57c-0.1,1.46-0.2,2.92-0.3,4.38c0,0.02-0.02,0.04-0.09,0.07c-0.2-1.56-0.39-3.12-0.6-4.72
		c-0.24,0.29-0.46,0.55-0.68,0.81c-0.26,0.31-0.53,0.61-0.79,0.92c-0.13,0.16-0.22,0.16-0.37,0.02c-0.81-0.74-1.63-1.47-2.45-2.21
		c-0.01-0.01-0.03-0.01-0.08-0.03c0.35,1.76,0.69,3.5,1.03,5.24c-0.01,0.01-0.02,0.01-0.04,0.02c-0.27-0.32-0.53-0.64-0.8-0.96
		c-0.08-0.09-0.14-0.21-0.23-0.28c-0.54-0.46-0.68-1.09-0.78-1.74c-0.18-1.13-0.39-2.26-0.57-3.39c-0.02-0.13,0.01-0.3,0.08-0.41
		c0.91-1.43,1.84-2.85,2.77-4.27C-812.91,39.9-812.85,39.85-812.76,39.76z M-812.68,41.8c-0.26,0.92-0.47,1.78-0.75,2.61
		c-0.18,0.54-0.11,0.91,0.34,1.27c0.44,0.35,0.82,0.77,1.23,1.17c0.52-0.63,1.05-1.27,1.6-1.92
		C-811.07,43.91-811.85,42.88-812.68,41.8z"/>
	<path d="M-805.95,28.22c-0.15-0.19-0.31-0.38-0.46-0.58c-0.48-0.62-0.94-1.25-1.43-1.87c-0.15-0.19-0.15-0.32,0-0.51
		c0.6-0.77,1.18-1.54,1.76-2.31c0.04-0.06,0.06-0.13,0.11-0.23c0.45,0.59,0.83,1.08,1.21,1.58c0.27,0.35,0.54,0.71,0.81,1.06
		c0.07,0.09,0.11,0.17,0.03,0.28c-0.64,0.84-1.28,1.69-1.92,2.53C-805.88,28.18-805.9,28.19-805.95,28.22z"/>
	<path d="M-760.47-58.56c0.51,0.59,1.08,1.15,1.53,1.78c3.21,4.48,4.99,9.5,5.58,14.96c1.04,9.62-2.64,17.61-8.65,24.77
		c-2.6,3.1-5.4,6.04-7.84,9.26c-2.55,3.37-4.2,7.24-4.96,11.43c-0.6,3.27-0.09,6.44,1.07,9.53c0.03,0.09,0.13,0.15,0.26,0.29
		c0.84-1.94,1.58-3.87,2.48-5.72c3.1-6.38,7.2-11.94,13.45-15.6c2.96-1.74,6.13-2.95,9.71-3.49c-0.2,0.43-0.34,0.76-0.5,1.08
		c-2.71,5.13-4.42,10.54-4.86,16.36c-0.27,3.61-0.93,7.17-2.03,10.65c-1.92,6.08-5.72,10.49-11.44,13.27
		c-0.82,0.4-1.63,0.81-2.65,1.31c-0.22-1.46-0.37-2.81-0.65-4.12c-0.25-1.17,0.11-1.9,1.05-2.66c3.66-2.98,6.4-6.63,7.49-11.32
		c0.3-1.27,0.34-2.6,0.5-3.91c-0.09-0.04-0.18-0.08-0.27-0.13c-1.47,1.12-2.95,2.23-4.4,3.38c-3.32,2.64-6.43,5.5-8.77,9.08
		c-0.37,0.56-0.58,1.37-0.52,2.04c0.33,3.92,0.75,7.84,1.18,11.76c0.09,0.85-0.15,1.42-0.73,2.05c-2.06,2.21-4.02,4.53-6.08,6.74
		c-0.35,0.38-0.98,0.64-1.5,0.68c-3.46,0.23-6.78,0.81-9.48,3.26c-0.73,0.66-1.11,1.37-1.09,2.38c0.03,2.32-0.11,4.65,0.01,6.97
		c0.04,0.75,0.52,1.59,1.04,2.17c1.07,1.2,2.3,2.26,3.59,3.49c-3.8,4.04-6.95,8.85-13.08,9.52c-2.19,0.24-4.43,0.1-6.64,0.11
		c-5.14,0.02-10.28-0.04-15.42,0.06c-3.68,0.07-6.88-1.07-9.55-3.52c-2.04-1.87-3.92-3.92-6.16-6.18c1.44-1.31,2.7-2.48,3.99-3.61
		c0.8-0.7,1.1-1.53,1.04-2.61c-0.11-2.18-0.02-4.37-0.16-6.54c-0.04-0.66-0.41-1.42-0.86-1.9c-2.55-2.71-5.93-3.34-9.43-3.53
		c-0.84-0.05-1.44-0.23-2-0.88c-2.02-2.35-4.1-4.64-6.12-6.99c-0.24-0.28-0.38-0.76-0.35-1.13c0.37-4.17,0.81-8.33,1.17-12.5
		c0.05-0.57-0.13-1.26-0.44-1.74c-2.75-4.18-6.48-7.39-10.37-10.44c-0.91-0.71-1.85-1.38-2.78-2.07c-0.12,0.03-0.24,0.07-0.36,0.1
		c0.22,1.49,0.33,3.01,0.68,4.47c1.14,4.69,4.06,8.21,7.69,11.19c0.6,0.49,0.79,0.96,0.67,1.7c-0.25,1.51-0.43,3.03-0.67,4.7
		c-5.28-2.44-9.71-5.48-12.42-10.62c-2.06-3.9-3.18-8.08-3.5-12.41c-0.51-6.81-2.06-13.26-5.45-19.22
		c-0.06-0.11-0.07-0.25-0.13-0.49c4.71,0.77,8.87,2.55,12.5,5.46c4.67,3.75,8.08,8.51,10.65,13.88c0.71,1.49,1.33,3.03,1.99,4.54
		c0.14,0.31,0.29,0.61,0.44,0.92c0.13,0.01,0.26,0.01,0.38,0.02c0.37-1.88,0.89-3.74,1.08-5.63c0.5-4.91-1.26-9.28-3.61-13.44
		c-2.22-3.94-5.41-7.1-8.43-10.4c-5.06-5.53-8.65-11.87-9.56-19.38c-1-8.25,1.11-15.77,6.25-22.37c0.15-0.19,0.33-0.36,0.51-0.53
		c0.07-0.07,0.17-0.11,0.41-0.25c-0.17,1.34-0.34,2.56-0.46,3.79c-0.95,9.17,1.74,17.23,7.76,24.08c2.47,2.81,5.46,5.17,8.3,7.63
		c3.72,3.23,7.73,6.15,11.25,9.58c5.38,5.24,8.38,11.75,8.9,19.31c0.1,1.47,0.15,2.96,0.41,4.41c0.11,0.59,0.69,1.13,1.15,1.6
		c0.38,0.39,0.9,0.65,1.59,1.13c-0.07-4.58-0.4-8.89-1.18-13.09c5.06,0.15,10.07,0.41,15.08,0.41c4.98,0,9.96-0.26,14.84-0.41
		c-0.41,4.14-0.84,8.41-1.28,12.82c2.26-0.81,3.22-1.88,3.21-3.56c-0.06-10.89,4.59-19.46,12.9-26.22
		c3.82-3.11,7.79-6.05,11.55-9.23c6.09-5.13,10.08-11.58,11.6-19.47c0.77-3.99,0.68-7.98-0.14-11.95c-0.05-0.23-0.09-0.46-0.13-0.7
		C-760.59-58.48-760.53-58.52-760.47-58.56z M-842.5,18.55c-0.1,0.52-0.22,0.86-0.23,1.19c-0.02,1.86-0.16,3.73,0.02,5.58
		c0.57,5.87,5.16,10.5,10.22,11.08c1.5,0.17,3.01,0.35,4.51,0.33c1.06-0.01,1.65,0.24,1.98,1.32c0.35,1.15,0.93,2.22,1.47,3.46
		c0.76-0.79,1.31-1.5,1.98-2.04c1.01-0.82,1.37-1.86,1.47-3.1c0.1-1.19,0.35-2.36,0.52-3.54c0.2-1.46,0.38-2.92,0.58-4.51
		c-1.4,1.3-2.64,2.47-3.88,3.63C-829.99,27.53-836.16,23.1-842.5,18.55z M-801.89,41.19c0.54-1.21,1.08-2.51,1.71-3.75
		c0.16-0.32,0.63-0.62,0.99-0.66c1.11-0.14,2.25-0.11,3.37-0.21c3.57-0.32,6.81-1.36,9.16-4.32c3.14-3.95,3.35-8.5,2.78-13.22
		c-0.01-0.09-0.1-0.16-0.2-0.31c-6.2,4.46-12.39,8.91-18.62,13.39c-1.33-1.25-2.59-2.44-3.87-3.66c0.48,3.12,0.96,6.27,1.45,9.41
		c0.03,0.16,0.1,0.35,0.22,0.47C-803.93,39.28-802.93,40.21-801.89,41.19z M-817.81,62.21c-1.07-3.4-2.82-6.06-5.39-8.13
		c-0.85-0.68-1.93-0.9-2.99-0.39c-1.58,0.77-2.55,3.52-1.86,5.15c0.28,0.66,0.65,0.97,1.38,0.66c1.27-0.55,2.47-0.26,3.66,0.3
		C-821.36,60.57-819.71,61.33-817.81,62.21z M-808.66,62.21c1.86-0.88,3.48-1.64,5.09-2.41c1.22-0.58,2.47-0.82,3.77-0.31
		c0.68,0.27,1.04,0,1.32-0.61c0.62-1.32,0.18-3.19-1.09-4.54c-0.92-0.97-2.4-1.26-3.44-0.44C-805.7,56.02-807.53,58.74-808.66,62.21
		z"/>
	<path d="M-794.89,104.81c-2.56-5.47-5.99-10.34-10.61-14.7c0.16,1.5,0.22,2.77,0.43,4.01c0.74,4.44,0.11,8.69-1.66,12.79
		c-2.16,5-4.34,9.99-6.54,15.05c-0.09-0.21-0.19-0.44-0.28-0.67c-2.04-4.79-3.97-9.62-6.14-14.35c-2.01-4.36-2.44-8.83-1.72-13.49
		c0.15-0.99,0.23-1.99,0.36-3.15c-4.59,4.26-8.04,9.06-10.48,14.72c-2.29-6.51-2.62-12.69,1.22-18.6c0.27-0.41,0.31-1.15,0.14-1.63
		c-1.06-3.01-1.63-6.1-1.92-9.45c2.49,2.28,4.85,4.45,7.27,6.67c3.26-3.28,7.36-3.65,11.59-3.67c4.24-0.02,8.32,0.41,11.65,3.65
		c2.41-2.21,4.74-4.33,7.13-6.52c-0.2,3.2-0.67,6.3-1.87,9.24c-0.29,0.7-0.26,1.19,0.16,1.82c3.09,4.61,3.74,9.61,2.36,14.93
		c-0.28,1.09-0.57,2.17-0.85,3.26C-794.67,104.73-794.72,104.73-794.89,104.81z"/>
	<path d="M-840.43,67.39c1.85,1.75,3.63,3.44,5.47,5.17c0.03-0.05,0,0.07-0.07,0.11c-3.83,2.51-7.92,4.43-12.61,4.14
		c-5.29-0.32-10-2.13-13.17-6.68c-1.79-2.56-3.34-5.29-5.08-7.89c-1.35-2.01-2.71-4.03-4.28-5.87c-2.09-2.44-4.91-2.94-7.99-2.49
		c-5.47,0.8-9.25,3.98-12.15,8.46c-2.6,4.02-3.87,8.47-4.66,13.2c-0.21-1.42-0.52-2.82-0.61-4.25c-0.45-7.02,1.31-13.32,6.22-18.54
		c6.45-6.86,18.77-7.79,26.14,1.57c1.52,1.93,2.66,4.14,4.06,6.16c1.58,2.28,3.11,4.62,4.9,6.73c2.79,3.28,6.23,3.96,10.18,2.18
		C-842.7,68.78-841.4,67.93-840.43,67.39z"/>
	<path d="M-731.83,75.58c-0.63-4.53-1.73-8.72-3.96-12.53c-2.56-4.39-6.08-7.65-11.15-8.9c-4.83-1.19-8.16,0.01-10.99,4.13
		c-1.71,2.49-3.18,5.14-4.77,7.72c-1.76,2.86-3.67,5.65-6.49,7.55c-5.96,4.03-12.26,4.3-18.73,1.29c-1.35-0.63-2.62-1.45-3.64-2.03
		c1.89-1.9,3.72-3.73,5.55-5.56c-0.07-0.11-0.14-0.22-0.21-0.33c0.54,0.42,1.07,0.87,1.64,1.27c2.29,1.6,4.77,2.57,7.62,2
		c1.68-0.33,3.07-1.23,4.24-2.44c2.4-2.46,4.39-5.22,6-8.25c2.07-3.88,4.68-7.24,8.44-9.67c5.67-3.67,15.5-3.19,20.96,2.98
		c5.72,6.46,7.42,13.85,5.69,22.17C-731.64,75.13-731.72,75.27-731.83,75.58z"/>
	<path d="M-867.95,36.67c2.67-1.08,5.08-0.9,7.47-0.14c2.86,0.91,5.17,2.72,7.15,4.89c1.55,1.71,3.04,3.53,4.27,5.47
		c0.91,1.44,1.83,2.07,3.59,1.97c2.54-0.14,5.01,0.5,7.4,1.43c0.66,0.26,0.91,0.62,0.87,1.33c-0.07,1.33-0.02,2.67-0.05,4.01
		c-0.02,0.98-0.57,1.38-1.5,1.12c-4.54-1.26-9.14-1.51-13.78-0.7c-0.85,0.15-1.11-0.23-1.37-0.88c-1.6-4.01-3.67-7.77-6.5-11.04
		c-1.61-1.85-3.45-3.5-5.19-5.24C-866.31,38.21-867.05,37.52-867.95,36.67z"/>
	<path d="M-758.66,36.98c-0.53,0.45-1.05,0.92-1.59,1.36c-5.62,4.59-9.84,10.21-12.47,16.99c-0.27,0.7-0.61,0.82-1.34,0.72
		c-4.57-0.64-9.11-0.68-13.59,0.66c-1.15,0.34-1.52,0.04-1.54-1.2c-0.02-1.3,0.02-2.61-0.07-3.9c-0.05-0.74,0.2-1.07,0.87-1.31
		c2.74-0.99,5.53-1.64,8.46-1.46c0.76,0.05,1.2-0.23,1.61-0.87c2.21-3.51,4.81-6.67,8.16-9.18c2.94-2.2,6.17-3.32,9.88-2.63
		c0.5,0.09,0.98,0.29,1.47,0.44C-758.76,36.72-758.71,36.85-758.66,36.98z"/>
	<path d="M-735.78,26.45c1.8,2.88,3.49,5.54,5.1,8.26c0.17,0.29,0.01,1.02-0.26,1.28c-1.66,1.61-3.4,3.15-5.24,4.83
		c-1.41-1.51-3.07-3.26-4.67-5.05c-0.18-0.21-0.19-0.78-0.04-1.04C-739.25,32.02-737.57,29.35-735.78,26.45z"/>
	<path d="M-751.79,81.9c-1.73-2.14-3.3-4.07-4.83-6.03c-0.15-0.19-0.12-0.69,0.03-0.9c1.53-2.14,3.11-4.24,4.76-6.48
		c0.54,0.7,1.05,1.35,1.54,2c1.05,1.4,2.12,2.8,3.13,4.23c0.18,0.26,0.28,0.84,0.12,1.06C-748.55,77.79-750.12,79.76-751.79,81.9z"
		/>
	<path d="M-891.61,25.18c1.45,1.73,2.85,3.4,4.25,5.06c0.47,0.55,0.54,1.06,0.03,1.68c-1.4,1.71-2.74,3.45-4.27,5.39
		c-1.29-1.52-2.44-2.82-3.54-4.17c-1.65-2.01-1.65-2.03,0.06-4.03C-893.95,27.8-892.8,26.53-891.61,25.18z"/>
	<path d="M-769.02,101.78c-1.39-2.2-2.68-4.24-3.95-6.29c-0.11-0.17-0.13-0.51-0.03-0.67c1.28-2.09,2.59-4.16,4.01-6.42
		c1.38,2.21,2.65,4.22,3.89,6.25c0.1,0.16,0.07,0.5-0.03,0.67C-766.38,97.42-767.66,99.51-769.02,101.78z"/>
	<path d="M-874.97,88.07c-1.36-2.05-2.63-3.94-3.85-5.85c-0.13-0.21-0.13-0.65,0-0.85c1.24-1.82,2.53-3.61,3.91-5.56
		c1.35,2,2.61,3.86,3.85,5.73c0.11,0.16,0.14,0.51,0.05,0.66C-872.28,84.11-873.58,86.02-874.97,88.07z"/>
</g>
<g>
	<path d="M-475.54-57.47c-14.61-1.54-26.19-8.01-34.85-19.48c-5.7-7.56-8.74-16.18-9.05-25.63c-0.54-16.44,5.77-29.7,19-40.01
		c0.67,1.63,1.33,2.98,1.75,4.4c0.1,0.35-0.46,1.03-0.87,1.37c-3.32,2.75-6.02,6.03-8.36,9.62c-3.43,5.27-5.42,11.08-6.12,17.31
		c-1.12,9.92,0.69,19.29,6.3,27.61c8.88,13.16,21.3,20.19,37.31,19.43c16.9-0.81,29.33-9.24,36.57-24.47
		c6.47-13.6,5.2-27.1-2.63-39.94c-2.3-3.77-5.29-6.99-8.72-9.77c-0.71-0.57-0.91-1.07-0.47-1.91c0.57-1.08,1.02-2.22,1.63-3.56
		c12.21,8.91,18.51,20.84,19.3,35.6c0.68,12.79-3.58,23.97-12.1,33.5c-8.5,9.5-19.22,14.7-32.04,15.96
		c1.03,2.02,1.92,3.79,2.83,5.55c1,1.95,2.06,3.87,2.98,5.86c0.24,0.52,0.28,1.36,0.03,1.86c-2.76,5.34-5.6,10.65-8.43,15.96
		c-0.2,0.37-0.45,0.71-0.82,1.28c-0.66-1.18-1.21-2.13-1.72-3.1c-2.42-4.53-4.82-9.08-7.28-13.59c-0.53-0.98-0.53-1.73,0.01-2.74
		C-479.33-49.93-477.53-53.57-475.54-57.47z M-471.91-52.3c-0.14,0.01-0.28,0.02-0.42,0.03c-1.13,2.26-2.27,4.52-3.39,6.79
		c-0.08,0.16-0.09,0.42-0.01,0.57c1.1,2.27,2.22,4.53,3.5,7.13c1.32-2.64,2.48-4.93,3.62-7.23c0.08-0.15,0.05-0.41-0.02-0.58
		C-469.71-47.82-470.81-50.06-471.91-52.3z"/>
	<path d="M-472.01-141.08c19.52-0.3,35.96,15.78,36.46,35.37c0.52,20.8-16.24,37.12-35.76,37.53c-20.31,0.43-37-15.67-37.43-35.59
		C-509.18-124.1-492.45-141.53-472.01-141.08z M-472.22-73.52c17.34-0.02,31.41-13.75,31.43-30.66
		c0.01-17.73-13.88-31.68-31.6-31.66c-16.15,0.02-31.04,12.88-30.96,31.58C-503.28-87.25-489.44-73.51-472.22-73.52z"/>
	<path d="M-500.43-173.08c2.21,1.06,4.11,1.96,6,2.88c3.48,1.68,6.96,3.34,10.41,5.08c0.91,0.46,1.27,0.23,1.72-0.61
		c3.14-5.95,6.32-11.88,9.5-17.81c0.15-0.28,0.34-0.53,0.71-1.09c3.58,6.78,7.05,13.36,10.59,20.07c5.72-2.78,11.38-5.54,17.3-8.42
		c-0.56,1.61-1.03,2.95-1.48,4.29c-2.54,7.5-5.07,15.01-7.6,22.52c-0.08,0.23-0.19,0.44-0.24,0.67c-0.2,0.98-0.7,1.02-1.55,0.66
		c-5.31-2.28-10.89-3.28-16.63-3.36c-6.04-0.08-11.88,1.04-17.49,3.31c-0.96,0.39-1.39,0.28-1.74-0.75
		c-2.86-8.36-5.76-16.71-8.66-25.06C-499.83-171.38-500.06-172.05-500.43-173.08z M-453.19-162.9c-0.75,0.33-1.15,0.5-1.53,0.69
		c-2.53,1.26-5.09,2.48-7.58,3.81c-1.11,0.59-1.63,0.35-2.18-0.73c-2.24-4.36-4.55-8.68-6.84-13.01c-0.23-0.43-0.5-0.83-0.87-1.43
		c-0.33,0.56-0.53,0.88-0.71,1.22c-2.42,4.53-4.86,9.06-7.23,13.62c-0.47,0.91-0.92,0.98-1.76,0.56c-2.59-1.31-5.21-2.58-7.83-3.85
		c-0.41-0.2-0.85-0.33-1.54-0.6c0.21,0.76,0.32,1.25,0.49,1.72c1.01,2.9,2.06,5.78,3.03,8.69c0.3,0.89,0.68,1.08,1.56,0.82
		c4.22-1.24,8.55-1.93,12.95-2.01c5.04-0.09,10.03,0.47,14.86,1.98c1.02,0.32,1.44,0.01,1.74-0.94c0.86-2.73,1.79-5.45,2.68-8.17
		C-453.73-161.19-453.52-161.87-453.19-162.9z"/>
	<path d="M-554.15-176.28c13.96,9.28,25.51,20.67,35.7,33.95C-532.63-151.44-543.63-163.4-554.15-176.28z"/>
	<path d="M-519.11-67.58c-4.34,7.96-26.32,29.1-34.97,33.62C-547.91-43.17-524.33-65.84-519.11-67.58z"/>
	<path d="M-390.73-34.23c-13.92-9.23-25.05-20.86-35.02-33.69C-420.23-65.97-397.33-44.01-390.73-34.23z"/>
	<path d="M-425.24-142.8c9.73-12.74,20.89-23.97,34.25-32.9C-400.88-163.14-411.8-151.66-425.24-142.8z"/>
	<path d="M-527.76-104.81c-12.77,2.54-25.53,2.7-38.44-0.06C-553.3-107.56-540.54-107.79-527.76-104.81z"/>
	<path d="M-416.53-104.93c12.74-3.05,25.39-2.33,38.05-0.04C-383.44-102.39-407.83-102.35-416.53-104.93z"/>
	<path d="M-508.49-51.8c3.2-0.32,6.39-0.63,9.59-0.95c0.32-0.03,0.64-0.04,0.95-0.08c2.88-0.41,2.85-0.4,4.37,2.03
		c2.03,3.24,4.11,6.44,6.16,9.67c0.2,0.32,0.38,0.65,0.39,1.21c-7.17-3.84-14.35-7.68-21.52-11.52
		C-508.52-51.57-508.51-51.69-508.49-51.8z"/>
	<path d="M-435.47-51.72c-7.5,3.99-14.76,7.85-22.01,11.71c-0.06-0.06-0.12-0.12-0.19-0.19c0.88-1.37,1.75-2.74,2.64-4.1
		c1.73-2.67,3.44-5.36,5.23-7.99c0.27-0.4,0.93-0.82,1.38-0.79c3.96,0.3,7.92,0.7,11.88,1.09
		C-436.27-51.96-436.02-51.86-435.47-51.72z"/>
	<path d="M-541.87-129.72c1.87-1.86,3.49-3.48,5.14-5.12c1.53,1.65,3.14,3.39,4.73,5.11c-1.27,1.36-2.71,2.94-4.21,4.46
		c-0.16,0.16-0.78,0.13-0.97-0.04C-538.77-126.75-540.31-128.24-541.87-129.72z"/>
	<path d="M-402.84-79.6c-1.65,1.67-3.21,3.25-4.73,4.8c-1.53-1.62-3.12-3.31-4.76-5.05c1.24-1.29,2.7-2.83,4.21-4.34
		c0.15-0.15,0.68-0.18,0.81-0.05C-405.77-82.7-404.28-81.11-402.84-79.6z"/>
	<path d="M-531.92-79.62c-1.66,1.64-3.29,3.25-5.02,4.96c-1.44-1.65-2.92-3.35-4.48-5.14c1.2-1.24,2.74-2.88,4.34-4.46
		c0.14-0.13,0.77,0.01,0.98,0.22C-534.68-82.6-533.31-81.11-531.92-79.62z"/>
	<path d="M-412.15-129.86c1.37-1.54,2.9-3.25,4.42-4.96c1.61,1.75,3.13,3.39,4.71,5.11c-1.45,1.3-3.15,2.82-4.9,4.39
		C-409.22-126.73-410.8-128.42-412.15-129.86z"/>
	<path d="M-495.7-100.73c4.2,9.96,11.3,16.11,22.5,15.89c9.38-0.19,16.16-5.12,19.7-13.7c4.25-10.32,0.7-18.93-7.13-26.42
		c2.92,1.06,5.45,2.46,7.53,4.57c6.52,6.62,8.35,14.54,6.27,23.45c-2.52,10.79-11.82,18.21-23.13,19.07
		c-11.1,0.84-21.72-6.09-24.94-16.66c-0.61-1.99-0.81-4.1-1.2-6.15C-495.96-100.7-495.83-100.71-495.7-100.73z"/>
</g>
<g>
	<path d="M99.07,196.94c-3.7-4.46-8.37-7.43-12.96-10.54c-1.81-1.22-3.24-3-4.87-4.5c-0.38-0.35-0.83-0.7-1.3-0.89
		c-11.45-4.57-23.25-7.92-35.39-10.1c-11.5-2.07-23.09-3.31-34.79-3.54c-0.19,0-0.39-0.04-0.76-0.08c0.22-2.17,0.42-4.3,0.67-6.43
		c0.75-6.38,1.52-12.76,2.29-19.14c0.39-3.24,0.83-6.47,1.2-9.71c0.07-0.66,0.01-1.39-0.2-2.01c-2.52-7.57-4.34-15.3-5.1-23.24
		C6.03,87.89,9.75,70.1,19.19,53.69C32.76,30.1,53.03,15.17,79.67,9.78c27.85-5.63,53.62-0.21,76.27,17.38
		c17.24,13.39,28.02,31.06,32.74,52.36c3.67,16.55,2.11,32.83-3.15,48.8c-0.72,2.2-0.64,4.23-0.39,6.39
		c1.28,10.7,2.53,21.4,3.79,32.1c0.01,0.1-0.02,0.2-0.04,0.44c-2.32,0.12-4.66,0.24-7.01,0.36c-21.57,1.07-42.52,5.11-62.73,12.84
		c-1.49,0.57-2.7,1.21-3.6,2.72c-0.8,1.34-2.19,2.43-3.52,3.32C107.44,189.57,102.73,192.5,99.07,196.94z M95.22,179.97
		c-19.34-19.44-43.4-26.6-70.42-26.51c2.8-27.3,5.59-54.47,8.39-81.64c1.34,0,2.38-0.08,3.41,0.01c3.54,0.33,7.1,0.61,10.62,1.13
		c7.78,1.15,15.4,2.96,22.67,6.09c1.64,0.7,2.54,1.56,2.88,3.41c0.44,2.37,1.41,4.64,2.14,6.92c-12.08-5.78-28.65-10.47-35.39-9.96
		c-2.25,22.23-4.5,44.49-6.76,66.86c23.36,1.47,44.65,7.88,62.84,23.67c0-21.44,0-42.41,0-63.69c2.46,1.34,4.64,0.92,7.04-0.29
		c0,21.43,0,42.54,0,64.01c18.11-15.72,39.26-22.41,62.62-23.66c-2.17-22.46-4.32-44.72-6.48-67.11
		c-11.01,1.16-21.4,3.84-31.57,8.38c0.7-2.02,1.61-3.69,1.79-5.43c0.3-2.94,1.99-4.01,4.54-4.86c8.35-2.78,16.92-4.33,25.64-5.22
		c1.95-0.2,3.91-0.24,6.02-0.37c2.66,27.34,5.29,54.48,7.94,81.76c-26.94-0.09-50.97,6.89-70.14,26.54
		c24.36-13.05,50.83-17.75,78.08-19.65c-2.69-23.96-5.37-47.8-8.08-71.89c1.65,0.4,2.97,0.86,4.32,1.01
		c1.41,0.16,1.71,0.99,1.87,2.15c0.8,5.92,1.63,11.84,2.45,17.76c0.14,1.03,0.32,2.05,0.48,3.08c5.83-29.89-6.87-67.59-42-87.02
		C106.3,6.76,62.72,13.32,36.22,42.39c-8.64,9.47-14.74,20.4-18.34,32.69c-3.6,12.28-4.38,24.73-2.04,37.33
		c1.15-7.17,2.18-14.36,3.23-21.53c0.05-0.37,0.28-0.92,0.55-1.01c1.71-0.53,3.45-0.96,5.45-1.49c-2.72,24.2-5.4,48.05-8.09,72.08
		c13.66,0.68,27.06,2.44,40.24,5.62C70.4,169.26,83.21,173.5,95.22,179.97z"/>
	<path d="M48.12,188.6c1.55-1.87,3.04-3.68,4.54-5.49c1.51,1.64,3.17,3.44,4.97,5.4c-1.72,1.43-3.5,2.9-5.03,4.18
		C51.39,191.59,49.72,190.06,48.12,188.6z"/>
	<path d="M95.47,30.02c2.98,1.33,5.29,3.23,7.28,5.52c5.15,5.97,8.06,12.79,7.14,20.81c-0.33,2.92-1.4,5.76-1.81,8.67
		c-0.33,2.36-0.22,4.78-0.21,7.18c0,0.54,0.4,1.08,0.73,1.88c5.47-4.01,8.4-9.46,10.48-15.49c9.21,15.76,3.58,33.95-12.9,39.82
		c0.11-0.83,0.18-1.58,0.32-2.31c0.76-3.8-0.13-7.25-2.25-10.42c-1.01-1.52-2.13-2.98-3.19-4.46c-1.52-2.11-2.38-4.47-2.32-7.06
		c0.06-3.31,0.31-6.61,0.48-9.92c0.02-0.48,0.07-0.95-0.05-1.49c-3.07,3.69-6.21,7.3-8.25,11.66c-0.74,1.58-1.18,3.34-1.5,5.07
		c-0.55,2.92,0.32,5.6,1.99,7.98c1.27,1.82,2.8,3.47,4.02,5.33c1.28,1.96,2.32,4.07,3.46,6.11c-0.14,0.14-0.27,0.28-0.41,0.43
		c-1.31-0.33-2.67-0.54-3.93-1.02c-8.81-3.38-14.52-9.53-15.92-18.98c-1.06-7.12,1.24-13.47,5.78-19.01
		c2.42-2.95,4.97-5.78,7.31-8.78c4.86-6.25,6.17-13.2,3.8-20.79C95.49,30.61,95.51,30.46,95.47,30.02z"/>
	<path d="M127.68,110.44c7.22-3.07,11.24-8.63,13.04-16.11c1.28,7.62,5.35,12.94,12.42,16.08c-7.06,3.03-10.44,8.72-12.5,15.77
		C138.52,119.06,134.45,113.73,127.68,110.44z"/>
	<path d="M64.33,59.97c-1.9-5.41-4.87-9.63-9.99-12.18c5.35-2.63,8.47-6.88,9.73-12.64c1.61,5.62,4.6,10.02,10.02,12.63
		C68.88,50.23,65.96,54.44,64.33,59.97z"/>
	<path d="M154.98,57.41c-1.88,2.18-3.77,4.38-5.6,6.51c-1.8-2.06-3.72-4.23-5.56-6.33c1.83-2.3,3.69-4.66,5.47-6.9
		C151.16,52.9,153.14,55.24,154.98,57.41z"/>
	<path d="M125.52,127.8c1.38,1.92,2.77,3.47,3.72,5.26c0.82,1.55-0.56,2.64-1.57,3.62c-1.21,1.16-2.7,1.35-3.93,0.66
		c-2.54-1.42-2.99-3.53-1.21-5.8C123.44,130.39,124.36,129.26,125.52,127.8z"/>
	<path d="M63.88,107.25c-0.57,1.51-1.89,2.67-3.44,3.55c-1.18,0.68-2.16-0.07-3.05-0.83c-2.84-2.47-2.77-3.96,0.36-6.28
		c0.9-0.67,1.83-1.38,3.09-0.71C62.13,103.67,63.91,105.95,63.88,107.25z"/>
	<path d="M68.86,130.87c1.39-1.77,2.78-3.54,4.24-5.41c1.38,1.82,2.71,3.57,4.08,5.37c-1.32,1.82-2.67,3.69-4.1,5.66
		C71.67,134.61,70.29,132.78,68.86,130.87z"/>
	<path d="M141.07,188.6c1.55-1.87,3.04-3.68,4.54-5.49c1.51,1.64,3.17,3.44,4.97,5.4c-1.72,1.43-3.5,2.9-5.03,4.18
		C144.34,191.59,142.66,190.06,141.07,188.6z"/>
</g>
<g>
</g>
<g>
</g>
<g>
</g>
<g>
</g>
<g>
</g>
<g>
</g>
</svg>
