<?xml version="1.0" encoding="utf-8"?>
<!-- Generator: Adobe Illustrator 27.8.0, SVG Export Plug-In . SVG Version: 6.00 Build 0)  -->
<svg version="1.1" id="Capa_1" xmlns="http://www.w3.org/2000/svg" xmlns:xlink="http://www.w3.org/1999/xlink" x="0px" y="0px"
	 viewBox="0 0 200 200" style="enable-background:new 0 0 200 200;" xml:space="preserve">
<g>
	<path d="M179.55,178.9c-3.95,0.53-7.71,0.84-11.39,1.58c-4.81,0.97-9.55,2.28-14.32,3.46c-3.03,0.75-6.03,1.65-9.09,2.25
		c-3.85,0.76-7.56-0.24-11.2-1.42c-5.14-1.68-9.51-4.66-13.55-8.17c-0.58-0.5-0.88-0.49-1.46,0.03c-3.09,2.74-6.35,5.24-10.25,6.78
		c-5.53,2.18-11.12,2.18-16.77,0.56c-3.84-1.1-7.41-2.81-10.76-4.96c-0.86-0.55-1.52-0.49-2.39,0.01
		c-6.01,3.43-12.41,5.89-19.28,6.82c-4.42,0.6-8.76-0.19-13-1.58c-7.02-2.31-14.21-3.89-21.56-4.76c-1.27-0.15-2.54-0.3-4.09-0.48
		c1.62-1.91,3.04-3.54,4.41-5.22c4.23-5.19,8.52-10.33,12.63-15.61c7.33-9.44,13.85-19.43,19.78-29.8
		c4.74-8.3,9.08-16.81,12.77-25.64c2.49-5.96,4.92-11.94,7.37-17.92c0.54-1.33,0.59-1.33,1.9-0.71c5.3,2.51,10.6,5.01,15.92,7.49
		c0.78,0.36,1.17,0.83,1.15,1.72c-0.04,1.66-0.02,3.33,0,5c0.07,6.46,0.15,12.92,0.25,19.37c0.01,0.5,0.08,1.05,0.31,1.49
		c1.76,3.51,3.56,6.99,5.36,10.48c0.05,0.09,0.16,0.16,0.3,0.29c0.53-1.06,0.49-2.06,0.04-3.09c-1.15-2.61-2.32-5.21-3.41-7.85
		c-0.25-0.61-0.37-1.39-0.23-2.03c1.65-7.71,3.38-15.41,5.02-23.12c0.31-1.48,0.93-2.42,2.38-3.06c4.89-2.17,9.72-4.47,14.55-6.78
		c0.96-0.46,1.25-0.04,1.56,0.74c1.69,4.28,3.35,8.57,5.13,12.81c4.02,9.58,8.37,19,13.51,28.05c5.82,10.25,12.06,20.24,19.15,29.64
		c5.1,6.76,10.55,13.27,15.87,19.86C177.18,176.41,178.35,177.58,179.55,178.9z M93.59,157.83c-0.1-0.01-0.21-0.01-0.31-0.02
		c0-0.72-0.04-1.44,0.01-2.15c0.3-5.09,0.61-10.19,0.93-15.28c0.12-1.85,0.33-3.7,0.41-5.56c0.07-1.64,0.24-3.23-0.82-4.79
		c-1.96-2.88-3.71-5.9-5.5-8.9c-0.31-0.52-0.5-1.18-0.51-1.78c-0.11-6.18-0.33-12.36-0.18-18.54c0.06-2.51-0.56-3.97-3-4.79
		c-1.65-0.55-1.58-0.74-2.24,0.89c-3.28,8.12-6.86,16.11-10.88,23.9c-5.65,10.93-11.84,21.54-18.96,31.57
		c-4.15,5.85-8.61,11.46-12.94,17.18c-0.83,1.09-1.69,2.16-2.6,3.33c0.43,0.17,0.66,0.3,0.92,0.37c3.68,0.95,7.4,1.77,11.04,2.86
		c5.48,1.65,10.8,1.45,16.21-0.41c4.76-1.63,9.22-3.82,13.47-6.46c0.8-0.49,1.44-0.63,2.25,0c3,2.33,6.42,3.92,9.92,5.32
		c6.39,2.56,12.7,2.6,18.53-1.3c3.3-2.21,6.24-4.98,9.24-7.61c0.9-0.79,1.36-0.84,2.2,0.03c2.98,3.07,5.95,6.14,9.66,8.4
		c5.66,3.44,11.57,4.75,18.06,2.7c3.81-1.2,7.7-2.2,11.55-3.27c0.82-0.23,1.66-0.36,2.65-0.57c-0.31-0.48-0.47-0.78-0.68-1.05
		c-1.4-1.77-2.88-3.48-4.22-5.3c-4.63-6.28-9.44-12.45-13.74-18.95c-4.39-6.63-8.48-13.49-12.32-20.46
		c-3.57-6.48-6.72-13.2-9.89-19.89c-1.71-3.61-3.1-7.38-4.6-11.09c-0.27-0.66-0.62-0.86-1.27-0.54c-1.28,0.63-2.6,1.19-3.84,1.89
		c-0.37,0.21-0.67,0.78-0.75,1.23c-1.05,5.81-2.08,11.62-3.03,17.45c-0.14,0.88,0,1.89,0.28,2.75c0.78,2.41,1.76,4.76,2.53,7.17
		c0.2,0.62,0.12,1.53-0.21,2.09c-4.58,7.88-9.23,15.72-13.86,23.57C95.93,153.82,94.76,155.82,93.59,157.83z"/>
	<path d="M90.29,72.7c-0.26-0.52-0.52-1.03-0.78-1.55c-1.6-3.28-3.18-6.56-4.81-9.83c-0.47-0.95-0.56-1.84-0.25-2.86
		c3.17-10.34,6.33-20.69,9.48-31.04c1.79-5.88,3.56-11.76,5.35-17.63c0.11-0.36,0.27-0.72,0.71-1.1c0.49,1.51,1.01,3.02,1.47,4.53
		c2.73,8.86,5.45,17.72,8.16,26.59c1.91,6.25,3.82,12.5,5.65,18.78c0.21,0.71,0.05,1.66-0.25,2.35c-1.59,3.58-3.28,7.12-4.94,10.68
		c-0.18,0.38-0.41,0.73-0.62,1.09c-0.13,0.01-0.27,0.01-0.4,0.02c-2.99-10.31-5.98-20.62-8.97-30.92c-0.11-0.01-0.23-0.03-0.34-0.04
		c-2.98,10.33-5.97,20.65-8.95,30.98C90.63,72.73,90.46,72.71,90.29,72.7z"/>
	<path d="M120.68,64.68c0.58-1.54,1.13-3.09,1.75-4.61c3.53-8.82,7.08-17.63,10.62-26.45c0.6-1.48,0.77-1.51,2.12-0.68
		c2.06,1.26,4.12,2.51,6.23,3.7c0.95,0.53,1.13,0.99,0.41,1.9c-4.96,6.27-9.87,12.57-14.8,18.86c-1.76,2.24-3.51,4.48-5.27,6.72
		c-0.21,0.27-0.46,0.5-0.68,0.75C120.92,64.81,120.8,64.74,120.68,64.68z"/>
	<path d="M58.38,54.55c10.07,7.77,19.88,15.35,29.69,22.92c-0.05,0.1-0.1,0.21-0.16,0.31c-0.44-0.16-0.9-0.3-1.33-0.5
		c-9.33-4.14-18.66-8.29-28-12.42c-2.22-0.98-2.36-0.44-1.65-3.49C57.42,59.23,57.85,57.06,58.38,54.55z"/>
	<path d="M79.85,53.4c-0.96-1.03-1.95-2.05-2.89-3.1c-4.18-4.7-8.33-9.42-12.51-14.12c-1.71-1.92-3.45-3.81-5.18-5.71
		c-1.11-1.22-1.06-1.35,0.32-2.12c2.01-1.11,4-2.25,5.96-3.45c0.77-0.47,1.17-0.41,1.56,0.41c2.75,5.88,5.52,11.75,8.28,17.63
		c1.43,3.05,2.84,6.1,4.26,9.15c0.18,0.38,0.33,0.76,0.5,1.14C80.04,53.29,79.95,53.34,79.85,53.4z"/>
	<path d="M136.55,67.22c0.51,2.2,0.99,4.15,1.41,6.11c0.47,2.17,0.45,2.19-1.74,2.63c-4.16,0.82-8.33,1.61-12.49,2.41
		c-0.15,0.03-0.31,0-0.64-0.25C127.48,74.57,131.87,71.01,136.55,67.22z"/>
	<path d="M113.24,193.31c0.44-0.41,0.86-0.79,1.26-1.18c1.24-1.22,2.49-2.44,3.7-3.68c0.55-0.56,0.96-0.64,1.55,0.01
		c1.29,1.39,2.67,2.71,4,4.06c0.26,0.27,0.5,0.57,0.76,0.87C121.74,195.05,115.63,195.04,113.24,193.31z"/>
	<path d="M72.75,193.47c1.41-1.42,2.66-2.67,3.9-3.91c1.86-1.86,1.86-1.86,3.67-0.04c1.24,1.25,2.48,2.5,3.83,3.85
		C80.34,195,76.73,194.9,72.75,193.47z"/>
	<path d="M118.52,117.31c0.86,1.94,1.63,3.92,2.6,5.81c2.88,5.6,5.69,11.23,8.79,16.7c4.83,8.52,10.52,16.49,16.34,24.35
		c1.01,1.36,1,1.42-0.23,2.66c-1.26,1.26-2.55,2.49-3.77,3.79c-0.73,0.77-1.25,0.81-1.86-0.11c-3.59-5.46-7.28-10.86-10.77-16.38
		c-2.34-3.71-4.4-7.6-6.59-11.42c-2.11-3.69-2.98-7.71-3.37-11.9c-0.39-4.09-0.93-8.17-1.39-12.26c-0.04-0.38-0.01-0.78-0.01-1.17
		C118.35,117.36,118.44,117.34,118.52,117.31z"/>
	<path d="M80.22,125.18c-0.23,1.11-0.43,2.22-0.68,3.33c-1.21,5.49-2.47,10.98-3.64,16.48c-0.53,2.46-2.1,4.33-3.39,6.36
		c-2.54,4.02-5.21,7.96-7.84,11.92c-0.93,1.4-1.07,1.42-2.55,0.57c-1.31-0.75-2.61-1.5-3.93-2.23c-0.82-0.45-0.86-0.94-0.34-1.71
		c3.51-5.13,7.12-10.21,10.43-15.47c3.71-5.9,7.14-11.98,10.69-17.97c0.28-0.47,0.57-0.92,0.86-1.39
		C79.96,125.1,80.09,125.14,80.22,125.18z"/>
</g>
<g>
	<path d="M585.05-136.69c0-2.47,0.05-4.94-0.01-7.41c-0.14-5.48-0.35-10.96-0.5-16.45c-0.36-13.1-0.69-26.21-1.06-39.31
		c-0.26-9.14-0.53-18.27-0.86-27.41c-0.07-1.98,0.47-3.58,1.65-5.2c14.52-19.96,28.98-39.96,43.45-59.94c0.24-0.34,0.49-0.67,0.76-1
		c1.07-1.31,2.04-1.34,3.03,0.03c1.79,2.5,3.53,5.05,5.26,7.6c7.75,11.39,15.51,22.77,23.25,34.17c4.42,6.52,8.7,13.14,13.28,19.55
		c1.77,2.48,2.14,4.83,1.61,7.73c-2.28,12.44-4.41,24.91-6.6,37.36c-1.95,11.07-3.92,22.14-5.86,33.21
		c-2.44,13.94-4.86,27.89-7.31,41.83c-0.62,3.54-1.24,7.08-1.98,10.59c-0.21,1,0.07,1.55,0.81,2.11
		c9.3,6.99,18.58,14.01,27.91,20.98c1.24,0.92,1.92,1.96,1.49,3.44c-0.41,1.41-1.67,1.7-2.96,1.88c-7.12,0.99-14.23,2.01-21.35,3.01
		c-7.01,0.98-14.01,2.1-21.04,2.89c-6.7,0.76-12.95,3.08-19.35,4.93c-6.45,1.87-12.92,3.67-19.32,5.72
		c-3.31,1.06-6.47,0.59-9.71-0.04c-11.6-2.25-23.19-4.55-34.8-6.71c-13.86-2.58-27.75-5.06-41.63-7.53
		c-5.33-0.95-10.68-1.74-16.02-2.62c-0.36-0.06-0.7-0.2-1.06-0.27c-1.14-0.22-2.09-0.86-2.02-2.02c0.05-0.85,0.52-1.96,1.18-2.46
		c6.39-4.78,12.86-9.46,19.32-14.16c4.43-3.22,8.86-6.44,13.33-9.59c1.08-0.76,0.88-1.6,0.59-2.6c-1.84-6.24-3.67-12.48-5.5-18.73
		c-3.86-13.18-7.71-26.37-11.58-39.55c-2.89-9.84-5.77-19.68-8.7-29.51c-0.48-1.61-0.37-3.02,0.44-4.5
		c6.27-11.43,12.5-22.88,18.75-34.33c2.57-4.72,5.14-9.44,7.74-14.14c1.39-2.53,2.63-2.67,4.51-0.49
		c7.11,8.28,14.18,16.59,21.27,24.88c4,4.68,8.05,9.32,11.99,14.05c0.73,0.88,1.22,2.07,1.49,3.19
		c4.21,17.57,8.37,35.14,12.53,52.72c0.99,4.2,1.95,8.41,2.94,12.61c0.12,0.52,0.34,1.02,0.51,1.52
		C584.93-136.65,584.99-136.67,585.05-136.69z M567.85-82.47c0.1-0.08,0.21-0.15,0.31-0.23c-0.1-0.44-0.18-0.88-0.31-1.31
		c-4.53-15.25-9.09-30.5-13.59-45.76c-3.99-13.53-7.89-27.08-11.89-40.6c-0.22-0.74-0.91-1.55-1.6-1.91
		c-8.43-4.44-16.9-8.8-25.37-13.17c-0.71-0.37-1.45-0.68-2.51-1.17c0.24,1.01,0.37,1.66,0.55,2.28c3,9.97,6.04,19.92,9.01,29.9
		c4.86,16.36,9.66,32.73,14.53,49.09c0.19,0.64,0.71,1.3,1.26,1.69c6.93,5.01,13.89,9.97,20.85,14.94
		C562.01-86.63,564.93-84.55,567.85-82.47z M611.68-101.79c0.07,0.02,0.13,0.04,0.2,0.05c0.18-0.45,0.39-0.9,0.53-1.36
		c2-6.57,4.01-13.14,5.99-19.72c4.29-14.2,8.55-28.41,12.85-42.6c4.05-13.35,8.13-26.69,12.22-40.02c0.31-1.02,0.18-1.78-0.55-2.54
		c-2.67-2.79-5.28-5.65-7.98-8.41c-1.3-1.33-2.75-2.52-4.29-3.91c-0.09,0.13-0.3,0.42-0.5,0.72c-4.45,6.87-8.92,13.73-13.34,20.62
		c-0.34,0.53-0.52,1.26-0.55,1.9c-0.26,5.01-0.45,10.01-0.69,15.02c-0.39,8.29-0.8,16.58-1.21,24.86c-0.24,4.85-0.46,9.7-0.72,14.55
		c-0.37,6.93-0.77,13.86-1.16,20.79c-0.27,4.84-0.58,9.68-0.81,14.53C611.6-105.47,611.68-103.63,611.68-101.79z M576.26-84.22
		c3.42-2.77,6.55-5.37,9.75-7.87c0.87-0.68,1.11-1.31,0.84-2.38c-4.18-16.87-8.34-33.76-12.47-50.64
		c-3.43-14.05-6.82-28.1-10.24-42.16c-0.44-1.82-0.93-3.63-1.46-5.71c-0.41,0.48-0.59,0.66-0.73,0.86
		c-3.81,5.79-7.64,11.57-11.38,17.41c-0.36,0.56-0.39,1.51-0.23,2.2c0.44,1.92,1.05,3.81,1.61,5.71
		c7.16,24.36,14.33,48.73,21.5,73.09C574.36-90.62,575.28-87.53,576.26-84.22z M645.51-107.25c0.12-0.05,0.24-0.09,0.35-0.14
		c6.31-36.43,12.62-72.87,18.93-109.3c-3.76,2.79-7.11,5.78-10.54,8.67c-1.46,1.23-2.38,2.67-2.81,4.54c-0.5,2.13-1.2,4.21-1.83,6.3
		c-6.34,20.93-12.69,41.85-18.98,62.79c-0.23,0.75-0.18,1.83,0.2,2.49c3.42,5.91,6.95,11.76,10.45,17.63
		C642.68-111.92,644.1-109.59,645.51-107.25z M591.66-217.1c-0.16,0.46-0.26,0.6-0.25,0.73c0.24,9.97,0.47,19.94,0.75,29.91
		c0.39,14.09,0.82,28.18,1.22,42.27c0.42,15.03,0.82,30.06,1.25,45.09c0.17,5.91-0.92,4.14,4.37,6.58c1.29,0.59,2.62,1.09,4.03,1.67
		c0.1-0.6,0.19-0.91,0.2-1.21c0.25-6.68,0.47-13.35,0.73-20.03c0.31-7.87,0.63-15.75,0.97-23.62c0.4-9.33,0.82-18.66,1.23-28
		c0.22-5,0.43-10.01,0.67-15.01c0.27-5.78,0.6-11.57,0.84-17.35c0.03-0.67-0.17-1.5-0.58-2.02c-3.38-4.31-6.83-8.56-10.28-12.82
		C595.17-212.91,593.49-214.89,591.66-217.1z M533.09-233.63c-7.01,12.76-13.84,25.18-20.78,37.8c10.71,5.29,21.2,10.46,31.72,15.65
		c0.38-0.53,0.66-0.9,0.92-1.28c4.22-6.33,8.42-12.67,12.66-18.99c1.74-2.59,1.72-2.54-0.32-4.9c-5.86-6.8-11.68-13.62-17.52-20.44
		C537.64-228.29,535.52-230.78,533.09-233.63z M611.55-206.46c0.22-0.31,0.35-0.47,0.46-0.65c4.21-6.6,8.43-13.18,12.6-19.81
		c0.39-0.62,0.61-1.47,0.61-2.21c0.04-14.37,0.03-28.74,0.02-43.11c0-0.58-0.09-1.16-0.17-2.08c-2.79,3.93-5.34,7.54-7.9,11.13
		c-7.65,10.69-15.3,21.38-22.97,32.05c-1.61,2.24-2.08,1.69,0.18,4.36c3.77,4.46,7.51,8.96,11.28,13.43
		C607.56-211.08,609.51-208.85,611.55-206.46z M633.91-274.57c-0.08,0.83-0.15,1.18-0.15,1.54c0.01,14.1,0.02,28.2,0.08,42.3
		c0,0.56,0.27,1.25,0.65,1.65c4.51,4.71,9.07,9.38,13.6,14.07c0.55,0.57,0.96,0.61,1.57,0.07c4.84-4.22,9.69-8.42,14.56-12.6
		c0.81-0.7,0.84-1.27,0.23-2.1c-1.02-1.39-1.94-2.84-2.9-4.27c-7.06-10.4-14.11-20.8-21.17-31.19
		C638.32-268.15,636.23-271.19,633.91-274.57z M624.35-72.41c-0.76-0.63-1.14-1.07-1.62-1.33c-2.18-1.21-4.31-2.57-6.6-3.53
		c-7.25-3.03-14.6-5.83-21.83-8.89c-1.65-0.7-2.69-0.31-3.9,0.67c-3.85,3.12-7.73,6.2-11.62,9.27c-3.1,2.44-6.23,4.84-9.54,7.41
		c0.81,0.22,1.34,0.4,1.89,0.51c6.01,1.22,12.01,2.48,18.04,3.62c2.47,0.46,4.88,1.24,7.52,0.38c4.35-1.42,8.81-2.5,13.2-3.78
		C614.58-69.45,619.24-70.88,624.35-72.41z M510.27-79.86c1.25,0.26,2,0.43,2.76,0.57c14.84,2.78,29.67,5.56,44.51,8.32
		c0.48,0.09,1.16,0.14,1.48-0.12c1.77-1.41,3.47-2.93,5.29-4.5c-0.51-0.4-0.81-0.67-1.14-0.9c-9.01-6.31-18.05-12.6-27.02-18.96
		c-1.25-0.89-2.11-0.79-3.3,0.03c-6.51,4.53-13.06,8.99-19.6,13.48C512.37-81.33,511.5-80.72,510.27-79.86z M626.93-122.51
		c-0.33,0.97-0.51,1.46-0.66,1.95c-3.19,10.46-6.39,20.91-9.57,31.37c-0.85,2.8-0.77,2.72,1.94,4.04c1.28,0.62,2.15,0.46,3.24-0.34
		c4.06-3.01,8.2-5.92,12.3-8.88c2.27-1.64,4.51-3.31,6.81-5C636.31-107.07,631.72-114.61,626.93-122.51z M667.39-79.43
		c-0.65-0.55-1.01-0.9-1.41-1.19c-5.68-4.07-11.39-8.1-17.02-12.24c-1.13-0.83-1.85-0.65-2.86,0.07c-3.61,2.57-7.28,5.06-10.92,7.58
		c-2.34,1.62-4.68,3.23-7.14,4.92c1.85,1.73,3.56,3.26,5.19,4.87c0.8,0.79,1.62,0.89,2.69,0.72c7.35-1.15,14.72-2.23,22.08-3.33
		C661.01-78.49,664.03-78.93,667.39-79.43z"/>
	<path d="M504.17-144.37c-0.3,0.63-0.48,1.24-0.83,1.73c-2.68,3.79-5.35,7.58-8.09,11.33c-1.27,1.73-2.88,1.74-4.12,0.06
		c-2.73-3.7-5.36-7.46-8.09-11.15c-0.88-1.19-0.87-2.32-0.09-3.46c2.72-3.96,5.44-7.91,8.23-11.82c1.16-1.63,2.61-1.57,3.81,0.06
		c2.69,3.65,5.37,7.31,8.02,11C503.46-145.95,503.76-145.16,504.17-144.37z M493.15-139.51c1.13-1.59,2.1-2.92,3.01-4.3
		c0.15-0.23,0.15-0.75-0.01-0.98c-0.94-1.4-1.95-2.75-3.05-4.27c-1.14,1.56-2.12,2.84-3.03,4.16c-0.18,0.25-0.31,0.77-0.17,0.97
		C490.89-142.5,491.96-141.11,493.15-139.51z"/>
	<path d="M703.79-186.18c-0.23,0.49-0.39,1.06-0.71,1.51c-2.46,3.49-4.92,6.98-7.44,10.42c-1.23,1.69-2.74,1.75-3.98,0.09
		c-2.61-3.51-5.18-7.06-7.59-10.7c-0.46-0.69-0.49-2.18-0.05-2.86c2.55-3.87,5.27-7.62,8.01-11.36c0.85-1.15,2.2-1.11,3.06,0.07
		c2.78,3.84,5.5,7.72,8.22,11.61C703.53-187.08,703.61-186.64,703.79-186.18z M693.37-189.91c-0.75,1.01-1.41,1.87-2.03,2.77
		c-0.19,0.28-0.45,0.77-0.34,0.96c0.79,1.3,1.66,2.55,2.64,4.01c0.87-1.21,1.57-2.11,2.17-3.07c0.17-0.28,0.21-0.83,0.04-1.1
		C695.11-187.52,694.27-188.63,693.37-189.91z"/>
	<path d="M669.01-129.57c0.32-0.65,0.5-1.21,0.83-1.65c2.24-3,4.49-6,6.8-8.96c1.18-1.51,2.38-1.55,3.58,0.02
		c2.42,3.19,4.78,6.43,7.01,9.76c0.39,0.58,0.3,1.92-0.12,2.53c-2.04,3.02-4.2,5.96-6.44,8.84c-1.72,2.21-3.05,2.14-4.69-0.1
		c-2.02-2.78-4.01-5.58-5.97-8.4C669.58-128.15,669.33-128.89,669.01-129.57z"/>
</g>
<g>
</g>
<g>
</g>
<g>
</g>
<g>
</g>
<g>
</g>
<g>
</g>
</svg>
