<?xml version="1.0" encoding="utf-8"?>
<!-- Generator: Adobe Illustrator 27.8.0, SVG Export Plug-In . SVG Version: 6.00 Build 0)  -->
<svg version="1.1" id="Capa_1" xmlns="http://www.w3.org/2000/svg" xmlns:xlink="http://www.w3.org/1999/xlink" x="0px" y="0px"
	 viewBox="0 0 200 200" style="enable-background:new 0 0 200 200;" xml:space="preserve">
<g>
	<path d="M-162.49,160.97c-3.95,0.53-7.71,0.84-11.39,1.58c-4.81,0.97-9.55,2.28-14.32,3.46c-3.03,0.75-6.03,1.65-9.09,2.25
		c-3.85,0.76-7.56-0.24-11.2-1.42c-5.14-1.68-9.51-4.66-13.55-8.17c-0.58-0.5-0.88-0.49-1.46,0.03c-3.09,2.74-6.35,5.24-10.25,6.78
		c-5.53,2.18-11.12,2.18-16.77,0.56c-3.84-1.1-7.41-2.81-10.76-4.96c-0.86-0.55-1.52-0.49-2.39,0.01
		c-6.01,3.43-12.41,5.89-19.28,6.82c-4.42,0.6-8.76-0.19-13-1.58c-7.02-2.31-14.21-3.89-21.56-4.76c-1.27-0.15-2.54-0.3-4.09-0.48
		c1.62-1.91,3.04-3.54,4.41-5.22c4.23-5.19,8.52-10.33,12.63-15.61c7.33-9.44,13.85-19.43,19.78-29.8
		c4.74-8.3,9.08-16.81,12.77-25.64c2.49-5.96,4.92-11.94,7.37-17.92c0.54-1.33,0.59-1.33,1.9-0.71c5.3,2.51,10.6,5.01,15.92,7.49
		c0.78,0.36,1.17,0.83,1.15,1.72c-0.04,1.66-0.02,3.33,0,5c0.07,6.46,0.15,12.92,0.25,19.37c0.01,0.5,0.08,1.05,0.31,1.49
		c1.76,3.51,3.56,6.99,5.36,10.48c0.05,0.09,0.16,0.16,0.3,0.29c0.53-1.06,0.49-2.06,0.04-3.09c-1.15-2.61-2.32-5.21-3.41-7.85
		c-0.25-0.61-0.37-1.39-0.23-2.03c1.65-7.71,3.38-15.41,5.02-23.12c0.31-1.48,0.93-2.42,2.38-3.06c4.89-2.17,9.72-4.47,14.55-6.78
		c0.96-0.46,1.25-0.04,1.56,0.74c1.69,4.28,3.35,8.57,5.13,12.81c4.02,9.58,8.37,19,13.51,28.05c5.82,10.25,12.06,20.24,19.15,29.64
		c5.1,6.76,10.55,13.27,15.87,19.86C-164.86,158.48-163.69,159.65-162.49,160.97z M-248.46,139.89c-0.1-0.01-0.21-0.01-0.31-0.02
		c0-0.72-0.04-1.44,0.01-2.15c0.3-5.09,0.61-10.19,0.93-15.28c0.12-1.85,0.33-3.7,0.41-5.56c0.07-1.64,0.24-3.23-0.82-4.79
		c-1.96-2.88-3.71-5.9-5.5-8.9c-0.31-0.52-0.5-1.18-0.51-1.78c-0.11-6.18-0.33-12.36-0.18-18.54c0.06-2.51-0.56-3.97-3-4.79
		c-1.65-0.55-1.58-0.74-2.24,0.89c-3.28,8.12-6.86,16.11-10.88,23.9c-5.65,10.93-11.84,21.54-18.96,31.57
		c-4.15,5.85-8.61,11.46-12.94,17.18c-0.83,1.09-1.69,2.16-2.6,3.33c0.43,0.17,0.66,0.3,0.92,0.37c3.68,0.95,7.4,1.77,11.04,2.86
		c5.48,1.65,10.8,1.45,16.21-0.41c4.76-1.63,9.22-3.82,13.47-6.46c0.8-0.49,1.44-0.63,2.25,0c3,2.33,6.42,3.92,9.92,5.32
		c6.39,2.56,12.7,2.6,18.53-1.3c3.3-2.21,6.24-4.98,9.24-7.61c0.9-0.79,1.36-0.84,2.2,0.03c2.98,3.07,5.95,6.14,9.66,8.4
		c5.66,3.44,11.57,4.75,18.06,2.7c3.81-1.2,7.7-2.2,11.55-3.27c0.82-0.23,1.66-0.36,2.65-0.57c-0.31-0.48-0.47-0.78-0.68-1.05
		c-1.4-1.77-2.88-3.48-4.22-5.3c-4.63-6.28-9.44-12.45-13.74-18.95c-4.39-6.63-8.48-13.49-12.32-20.46
		c-3.57-6.48-6.72-13.2-9.89-19.89c-1.71-3.61-3.1-7.38-4.6-11.09c-0.27-0.66-0.62-0.86-1.27-0.54c-1.28,0.63-2.6,1.19-3.84,1.89
		c-0.37,0.21-0.67,0.78-0.75,1.23c-1.05,5.81-2.08,11.62-3.03,17.45c-0.14,0.88,0,1.89,0.28,2.75c0.78,2.41,1.76,4.76,2.53,7.17
		c0.2,0.62,0.12,1.53-0.21,2.09c-4.58,7.88-9.23,15.72-13.86,23.57C-246.12,135.89-247.29,137.89-248.46,139.89z"/>
	<path d="M-251.75,54.76c-0.26-0.52-0.52-1.03-0.78-1.55c-1.6-3.28-3.18-6.56-4.81-9.83c-0.47-0.95-0.56-1.84-0.25-2.86
		c3.17-10.34,6.33-20.69,9.48-31.04c1.79-5.88,3.56-11.76,5.35-17.63c0.11-0.36,0.27-0.72,0.71-1.1c0.49,1.51,1.01,3.02,1.47,4.53
		c2.73,8.86,5.45,17.72,8.16,26.59c1.91,6.25,3.82,12.5,5.65,18.78c0.21,0.71,0.05,1.66-0.25,2.35c-1.59,3.58-3.28,7.12-4.94,10.68
		c-0.18,0.38-0.41,0.73-0.62,1.09c-0.13,0.01-0.27,0.01-0.4,0.02c-2.99-10.31-5.98-20.62-8.97-30.92c-0.11-0.01-0.23-0.03-0.34-0.04
		c-2.98,10.33-5.97,20.65-8.95,30.98C-251.42,54.79-251.59,54.78-251.75,54.76z"/>
	<path d="M-221.37,46.75c0.58-1.54,1.13-3.09,1.75-4.61c3.53-8.82,7.08-17.63,10.62-26.45c0.6-1.48,0.77-1.51,2.12-0.68
		c2.06,1.26,4.12,2.51,6.23,3.7c0.95,0.53,1.13,0.99,0.41,1.9c-4.96,6.27-9.87,12.57-14.8,18.86c-1.76,2.24-3.51,4.48-5.27,6.72
		c-0.21,0.27-0.46,0.5-0.68,0.75C-221.13,46.88-221.25,46.81-221.37,46.75z"/>
	<path d="M-283.67,36.62c10.07,7.77,19.88,15.35,29.69,22.92c-0.05,0.1-0.1,0.21-0.16,0.31c-0.44-0.16-0.9-0.3-1.33-0.5
		c-9.33-4.14-18.66-8.29-28-12.42c-2.22-0.98-2.36-0.44-1.65-3.49C-284.62,41.29-284.2,39.12-283.67,36.62z"/>
	<path d="M-262.2,35.47c-0.96-1.03-1.95-2.05-2.89-3.1c-4.18-4.7-8.33-9.42-12.51-14.12c-1.71-1.92-3.45-3.81-5.18-5.71
		c-1.11-1.22-1.06-1.35,0.32-2.12c2.01-1.11,4-2.25,5.96-3.45c0.77-0.47,1.17-0.41,1.56,0.41c2.75,5.88,5.52,11.75,8.28,17.63
		c1.43,3.05,2.84,6.1,4.26,9.15c0.18,0.38,0.33,0.76,0.5,1.14C-262,35.36-262.1,35.41-262.2,35.47z"/>
	<path d="M-205.5,49.29c0.51,2.2,0.99,4.15,1.41,6.11c0.47,2.17,0.45,2.19-1.74,2.63c-4.16,0.82-8.33,1.61-12.49,2.41
		c-0.15,0.03-0.31,0-0.64-0.25C-214.57,56.64-210.18,53.08-205.5,49.29z"/>
	<path d="M-228.8,175.38c0.44-0.41,0.86-0.79,1.26-1.18c1.24-1.22,2.49-2.44,3.7-3.68c0.55-0.56,0.96-0.64,1.55,0.01
		c1.29,1.39,2.67,2.71,4,4.06c0.26,0.27,0.5,0.57,0.76,0.87C-220.3,177.12-226.41,177.11-228.8,175.38z"/>
	<path d="M-269.29,175.53c1.41-1.42,2.66-2.67,3.9-3.91c1.86-1.86,1.86-1.86,3.67-0.04c1.24,1.25,2.48,2.5,3.83,3.85
		C-261.7,177.07-265.32,176.97-269.29,175.53z"/>
	<path d="M-223.53,99.38c0.86,1.94,1.63,3.92,2.6,5.81c2.88,5.6,5.69,11.23,8.79,16.7c4.83,8.52,10.52,16.49,16.34,24.35
		c1.01,1.36,1,1.42-0.23,2.66c-1.26,1.26-2.55,2.49-3.77,3.79c-0.73,0.77-1.25,0.81-1.86-0.11c-3.59-5.46-7.28-10.86-10.77-16.38
		c-2.34-3.71-4.4-7.6-6.59-11.42c-2.11-3.69-2.98-7.71-3.37-11.9c-0.39-4.09-0.93-8.17-1.39-12.26c-0.04-0.38-0.01-0.78-0.01-1.17
		C-223.69,99.43-223.61,99.41-223.53,99.38z"/>
	<path d="M-261.83,107.25c-0.23,1.11-0.43,2.22-0.68,3.33c-1.21,5.49-2.47,10.98-3.64,16.48c-0.53,2.46-2.1,4.33-3.39,6.36
		c-2.54,4.02-5.21,7.96-7.84,11.92c-0.93,1.4-1.07,1.42-2.55,0.57c-1.31-0.75-2.61-1.5-3.93-2.23c-0.82-0.45-0.86-0.94-0.34-1.71
		c3.51-5.13,7.12-10.21,10.43-15.47c3.71-5.9,7.14-11.98,10.69-17.97c0.28-0.47,0.57-0.92,0.86-1.39
		C-262.08,107.17-261.95,107.21-261.83,107.25z"/>
</g>
<g>
	<path d="M93.81,128.44c0-1.91,0.04-3.82-0.01-5.72c-0.11-4.23-0.27-8.46-0.39-12.7c-0.28-10.12-0.53-20.24-0.82-30.35
		c-0.2-7.05-0.41-14.11-0.66-21.16c-0.06-1.53,0.36-2.77,1.27-4.02c11.21-15.41,22.37-30.85,33.55-46.28
		c0.19-0.26,0.38-0.52,0.58-0.77c0.83-1.01,1.58-1.03,2.34,0.03c1.38,1.93,2.72,3.9,4.06,5.87c5.99,8.79,11.97,17.58,17.95,26.38
		c3.42,5.03,6.72,10.15,10.25,15.09c1.37,1.91,1.65,3.73,1.24,5.97c-1.76,9.6-3.4,19.23-5.1,28.85c-1.5,8.55-3.03,17.09-4.52,25.64
		c-1.89,10.76-3.76,21.53-5.64,32.29c-0.48,2.73-0.96,5.46-1.53,8.18c-0.16,0.77,0.05,1.2,0.63,1.63
		c7.18,5.4,14.35,10.82,21.55,16.2c0.96,0.71,1.48,1.51,1.15,2.66c-0.32,1.09-1.29,1.32-2.29,1.46c-5.49,0.77-10.99,1.55-16.48,2.32
		c-5.41,0.76-10.82,1.62-16.25,2.23c-5.17,0.58-10,2.38-14.94,3.8c-4.98,1.44-9.98,2.84-14.92,4.41c-2.56,0.82-4.99,0.46-7.49-0.03
		c-8.95-1.74-17.9-3.51-26.87-5.18c-10.7-1.99-21.42-3.91-32.14-5.81c-4.11-0.73-8.25-1.35-12.37-2.02
		c-0.28-0.05-0.54-0.15-0.82-0.21c-0.88-0.17-1.62-0.66-1.56-1.56c0.04-0.66,0.4-1.52,0.91-1.9c4.94-3.69,9.93-7.31,14.92-10.93
		c3.42-2.49,6.84-4.97,10.3-7.41c0.83-0.59,0.68-1.24,0.45-2.01c-1.42-4.82-2.84-9.64-4.25-14.46c-2.98-10.18-5.95-20.36-8.94-30.54
		c-2.23-7.6-4.46-15.2-6.72-22.78c-0.37-1.24-0.29-2.33,0.34-3.47c4.84-8.83,9.65-17.67,14.47-26.51c1.99-3.64,3.97-7.29,5.98-10.92
		c1.08-1.95,2.03-2.06,3.48-0.37c5.49,6.39,10.95,12.81,16.42,19.21c3.09,3.61,6.22,7.2,9.26,10.85c0.56,0.68,0.94,1.6,1.15,2.47
		c3.25,13.56,6.46,27.13,9.68,40.71c0.77,3.24,1.51,6.49,2.27,9.74c0.09,0.4,0.26,0.78,0.39,1.18
		C93.72,128.47,93.76,128.45,93.81,128.44z M80.53,170.3c0.08-0.06,0.16-0.12,0.24-0.18c-0.08-0.34-0.14-0.68-0.24-1.01
		c-3.5-11.78-7.02-23.55-10.49-35.33c-3.08-10.44-6.09-20.91-9.18-31.35c-0.17-0.57-0.7-1.19-1.24-1.47
		c-6.51-3.43-13.05-6.79-19.59-10.17c-0.55-0.28-1.12-0.53-1.94-0.9c0.19,0.78,0.28,1.28,0.43,1.76c2.32,7.7,4.66,15.38,6.95,23.09
		c3.75,12.63,7.46,25.28,11.22,37.9c0.15,0.49,0.55,1,0.97,1.31c5.35,3.87,10.73,7.7,16.1,11.54
		C76.02,167.09,78.28,168.69,80.53,170.3z M114.37,155.38c0.05,0.01,0.1,0.03,0.15,0.04c0.14-0.35,0.3-0.69,0.41-1.05
		c1.55-5.07,3.09-10.15,4.63-15.22c3.31-10.96,6.6-21.93,9.92-32.89c3.13-10.31,6.27-20.61,9.44-30.9c0.24-0.79,0.14-1.37-0.43-1.96
		c-2.06-2.15-4.08-4.36-6.16-6.49c-1-1.03-2.12-1.94-3.31-3.02c-0.07,0.1-0.23,0.32-0.39,0.56c-3.44,5.3-6.88,10.6-10.3,15.92
		c-0.26,0.41-0.4,0.97-0.42,1.47c-0.2,3.86-0.35,7.73-0.53,11.6c-0.3,6.4-0.62,12.8-0.93,19.2c-0.18,3.74-0.35,7.49-0.55,11.23
		c-0.29,5.35-0.59,10.7-0.89,16.05c-0.21,3.74-0.45,7.48-0.63,11.22C114.31,152.54,114.37,153.96,114.37,155.38z M87.02,168.95
		c2.64-2.14,5.06-4.14,7.52-6.08c0.67-0.52,0.86-1.01,0.65-1.84c-3.23-13.03-6.44-26.06-9.62-39.1c-2.65-10.85-5.27-21.7-7.9-32.55
		c-0.34-1.41-0.72-2.81-1.13-4.41c-0.32,0.37-0.46,0.51-0.57,0.67c-2.94,4.47-5.9,8.94-8.79,13.44c-0.28,0.43-0.3,1.17-0.18,1.7
		c0.34,1.49,0.81,2.94,1.24,4.41c5.53,18.81,11.06,37.62,16.6,56.43C85.55,164.01,86.26,166.39,87.02,168.95z M140.49,151.17
		c0.09-0.04,0.18-0.07,0.27-0.11c4.87-28.13,9.75-56.26,14.62-84.39c-2.91,2.16-5.49,4.46-8.13,6.69c-1.13,0.95-1.83,2.06-2.17,3.5
		c-0.38,1.64-0.93,3.25-1.42,4.86c-4.89,16.16-9.8,32.31-14.66,48.48c-0.18,0.58-0.14,1.41,0.16,1.92
		c2.64,4.56,5.37,9.08,8.07,13.61C138.31,147.56,139.4,149.36,140.49,151.17z M98.91,66.35c-0.13,0.36-0.2,0.46-0.2,0.57
		c0.19,7.7,0.36,15.4,0.58,23.09c0.3,10.88,0.64,21.76,0.94,32.64c0.33,11.6,0.63,23.21,0.96,34.82c0.13,4.56-0.71,3.2,3.38,5.08
		c1,0.46,2.03,0.84,3.11,1.29c0.08-0.46,0.15-0.7,0.16-0.94c0.19-5.15,0.36-10.31,0.56-15.46c0.24-6.08,0.49-12.16,0.75-18.24
		c0.31-7.21,0.63-14.41,0.95-21.62c0.17-3.86,0.33-7.73,0.52-11.59c0.21-4.47,0.46-8.93,0.64-13.4c0.02-0.52-0.13-1.16-0.45-1.56
		c-2.61-3.32-5.27-6.61-7.93-9.9C101.62,69.58,100.33,68.05,98.91,66.35z M53.69,53.59C48.27,63.43,43,73.02,37.65,82.77
		c8.27,4.08,16.37,8.08,24.49,12.08c0.29-0.41,0.51-0.69,0.71-0.99c3.26-4.89,6.5-9.78,9.77-14.66c1.34-2,1.33-1.96-0.25-3.79
		c-4.52-5.25-9.02-10.52-13.52-15.78C57.2,57.71,55.57,55.79,53.69,53.59z M114.27,74.56c0.17-0.24,0.27-0.37,0.35-0.5
		c3.25-5.09,6.51-10.18,9.73-15.29c0.3-0.48,0.47-1.13,0.47-1.7c0.03-11.09,0.02-22.19,0.02-33.28c0-0.45-0.07-0.9-0.13-1.61
		c-2.16,3.04-4.12,5.82-6.1,8.59c-5.91,8.25-11.82,16.5-17.73,24.75c-1.24,1.73-1.61,1.3,0.14,3.37c2.91,3.45,5.8,6.92,8.71,10.37
		C111.19,71,112.69,72.72,114.27,74.56z M131.54,21.97c-0.06,0.64-0.12,0.91-0.12,1.19c0.01,10.89,0.02,21.77,0.06,32.66
		c0,0.43,0.21,0.97,0.51,1.28c3.48,3.64,7.01,7.24,10.5,10.87c0.42,0.44,0.74,0.47,1.21,0.06c3.73-3.26,7.48-6.5,11.24-9.73
		c0.63-0.54,0.65-0.98,0.18-1.62c-0.79-1.07-1.49-2.2-2.24-3.3c-5.45-8.03-10.9-16.06-16.35-24.08
		C134.94,26.94,133.32,24.59,131.54,21.97z M124.16,178.06c-0.58-0.49-0.88-0.82-1.25-1.03c-1.68-0.94-3.33-1.98-5.1-2.72
		c-5.6-2.34-11.27-4.5-16.86-6.87c-1.28-0.54-2.07-0.24-3.01,0.52c-2.97,2.41-5.97,4.79-8.97,7.15c-2.39,1.88-4.81,3.73-7.36,5.72
		c0.62,0.17,1.03,0.31,1.46,0.39c4.64,0.94,9.28,1.92,13.93,2.79c1.9,0.36,3.77,0.96,5.81,0.29c3.36-1.09,6.8-1.93,10.19-2.92
		C116.61,180.35,120.21,179.25,124.16,178.06z M36.07,172.31c0.96,0.2,1.54,0.33,2.13,0.44c11.46,2.15,22.91,4.3,34.37,6.43
		c0.37,0.07,0.89,0.11,1.14-0.09c1.37-1.09,2.68-2.26,4.09-3.47c-0.39-0.31-0.63-0.52-0.88-0.69c-6.96-4.87-13.93-9.73-20.86-14.64
		c-0.97-0.69-1.63-0.61-2.55,0.03c-5.02,3.5-10.09,6.94-15.13,10.4C37.69,171.18,37.02,171.65,36.07,172.31z M126.14,139.39
		c-0.26,0.75-0.39,1.13-0.51,1.51c-2.46,8.07-4.93,16.15-7.39,24.23c-0.66,2.16-0.6,2.1,1.49,3.12c0.99,0.48,1.66,0.36,2.5-0.27
		c3.14-2.32,6.33-4.57,9.5-6.86c1.75-1.27,3.48-2.56,5.26-3.86C133.38,151.3,129.85,145.48,126.14,139.39z M157.39,172.64
		c-0.5-0.43-0.78-0.69-1.09-0.92c-4.38-3.14-8.8-6.25-13.14-9.45c-0.88-0.64-1.43-0.5-2.21,0.05c-2.79,1.98-5.62,3.91-8.43,5.85
		c-1.81,1.25-3.61,2.49-5.51,3.8c1.43,1.33,2.75,2.52,4.01,3.76c0.62,0.61,1.25,0.68,2.08,0.55c5.68-0.89,11.36-1.72,17.05-2.57
		C152.46,173.37,154.79,173.03,157.39,172.64z"/>
	<path d="M31.36,122.5c-0.23,0.49-0.37,0.96-0.64,1.34c-2.07,2.93-4.13,5.86-6.25,8.75c-0.98,1.34-2.23,1.35-3.18,0.05
		c-2.1-2.85-4.14-5.76-6.25-8.61c-0.68-0.92-0.67-1.79-0.07-2.67c2.1-3.05,4.2-6.11,6.35-9.12c0.9-1.26,2.01-1.21,2.94,0.05
		c2.08,2.82,4.15,5.65,6.19,8.49C30.81,121.29,31.04,121.9,31.36,122.5z M22.85,126.25c0.87-1.23,1.62-2.26,2.32-3.32
		c0.12-0.18,0.12-0.58,0-0.75c-0.73-1.08-1.51-2.12-2.35-3.3c-0.88,1.2-1.63,2.19-2.34,3.21c-0.14,0.2-0.24,0.6-0.13,0.75
		C21.11,123.95,21.93,125.02,22.85,126.25z"/>
	<path d="M185.49,90.23c-0.18,0.38-0.3,0.82-0.55,1.17c-1.9,2.69-3.8,5.39-5.74,8.05c-0.95,1.31-2.11,1.35-3.07,0.07
		c-2.01-2.71-4-5.45-5.86-8.26c-0.35-0.53-0.38-1.69-0.04-2.21c1.97-2.99,4.07-5.89,6.18-8.77c0.65-0.89,1.7-0.86,2.36,0.05
		c2.15,2.96,4.24,5.96,6.34,8.96C185.29,89.53,185.35,89.87,185.49,90.23z M177.44,87.34c-0.58,0.78-1.09,1.45-1.57,2.14
		c-0.15,0.22-0.35,0.6-0.26,0.74c0.61,1.01,1.28,1.97,2.04,3.1c0.67-0.93,1.21-1.63,1.68-2.37c0.13-0.21,0.16-0.64,0.03-0.85
		C178.79,89.19,178.14,88.33,177.44,87.34z"/>
	<path d="M158.64,133.93c0.25-0.5,0.38-0.93,0.64-1.27c1.73-2.32,3.47-4.64,5.25-6.92c0.91-1.17,1.84-1.2,2.76,0.02
		c1.87,2.46,3.69,4.97,5.41,7.54c0.3,0.45,0.23,1.48-0.09,1.96c-1.57,2.33-3.24,4.6-4.97,6.82c-1.33,1.71-2.36,1.66-3.62-0.08
		c-1.56-2.15-3.1-4.31-4.61-6.49C159.07,135.03,158.89,134.46,158.64,133.93z"/>
</g>
<g>
</g>
<g>
</g>
<g>
</g>
<g>
</g>
<g>
</g>
<g>
</g>
</svg>
