<?xml version="1.0" encoding="utf-8"?>
<!-- Generator: Adobe Illustrator 27.8.0, SVG Export Plug-In . SVG Version: 6.00 Build 0)  -->
<svg version="1.1" id="Capa_1" xmlns="http://www.w3.org/2000/svg" xmlns:xlink="http://www.w3.org/1999/xlink" x="0px" y="0px"
	 viewBox="0 0 200 200" style="enable-background:new 0 0 200 200;" xml:space="preserve">
<g>
	<path d="M-683.67,333.58c-3.95,0.53-7.71,0.84-11.39,1.58c-4.81,0.97-9.55,2.28-14.32,3.46c-3.03,0.75-6.03,1.65-9.09,2.25
		c-3.85,0.76-7.56-0.24-11.2-1.42c-5.14-1.68-9.51-4.66-13.55-8.17c-0.58-0.5-0.88-0.49-1.46,0.03c-3.09,2.74-6.35,5.24-10.25,6.78
		c-5.53,2.18-11.12,2.18-16.77,0.56c-3.84-1.1-7.41-2.81-10.76-4.96c-0.86-0.55-1.52-0.49-2.39,0.01
		c-6.01,3.43-12.41,5.89-19.28,6.82c-4.42,0.6-8.76-0.19-13-1.58c-7.02-2.31-14.21-3.89-21.56-4.76c-1.27-0.15-2.54-0.3-4.09-0.48
		c1.62-1.91,3.04-3.54,4.41-5.22c4.23-5.19,8.52-10.33,12.63-15.61c7.33-9.44,13.85-19.43,19.78-29.8
		c4.74-8.3,9.08-16.81,12.77-25.64c2.49-5.96,4.92-11.94,7.37-17.92c0.54-1.33,0.59-1.33,1.9-0.71c5.3,2.51,10.6,5.01,15.92,7.49
		c0.78,0.36,1.17,0.83,1.15,1.72c-0.04,1.66-0.02,3.33,0,5c0.07,6.46,0.15,12.92,0.25,19.37c0.01,0.5,0.08,1.05,0.31,1.49
		c1.76,3.51,3.56,6.99,5.36,10.48c0.05,0.09,0.16,0.16,0.3,0.29c0.53-1.06,0.49-2.06,0.04-3.09c-1.15-2.61-2.32-5.21-3.41-7.85
		c-0.25-0.61-0.37-1.39-0.23-2.03c1.65-7.71,3.38-15.41,5.02-23.12c0.31-1.48,0.93-2.42,2.38-3.06c4.89-2.17,9.72-4.47,14.55-6.78
		c0.96-0.46,1.25-0.04,1.56,0.74c1.69,4.28,3.35,8.57,5.13,12.81c4.02,9.58,8.37,19,13.51,28.05c5.82,10.25,12.06,20.24,19.15,29.64
		c5.1,6.76,10.55,13.27,15.87,19.86C-686.04,331.09-684.87,332.26-683.67,333.58z M-769.64,312.5c-0.1-0.01-0.21-0.01-0.31-0.02
		c0-0.72-0.04-1.44,0.01-2.15c0.3-5.09,0.61-10.19,0.93-15.28c0.12-1.85,0.33-3.7,0.41-5.56c0.07-1.64,0.24-3.23-0.82-4.79
		c-1.96-2.88-3.71-5.9-5.5-8.9c-0.31-0.52-0.5-1.18-0.51-1.78c-0.11-6.18-0.33-12.36-0.18-18.54c0.06-2.51-0.56-3.97-3-4.79
		c-1.65-0.55-1.58-0.74-2.24,0.89c-3.28,8.12-6.86,16.11-10.88,23.9c-5.65,10.93-11.84,21.54-18.96,31.57
		c-4.15,5.85-8.61,11.46-12.94,17.18c-0.83,1.09-1.69,2.16-2.6,3.33c0.43,0.17,0.66,0.3,0.92,0.37c3.68,0.95,7.4,1.77,11.04,2.86
		c5.48,1.65,10.8,1.45,16.21-0.41c4.76-1.63,9.22-3.82,13.47-6.46c0.8-0.49,1.44-0.63,2.25,0c3,2.33,6.42,3.92,9.92,5.32
		c6.39,2.56,12.7,2.6,18.53-1.3c3.3-2.21,6.24-4.98,9.24-7.61c0.9-0.79,1.36-0.84,2.2,0.03c2.98,3.07,5.95,6.14,9.66,8.4
		c5.66,3.44,11.57,4.75,18.06,2.7c3.81-1.2,7.7-2.2,11.55-3.27c0.82-0.23,1.66-0.36,2.65-0.57c-0.31-0.48-0.47-0.78-0.68-1.05
		c-1.4-1.77-2.88-3.48-4.22-5.3c-4.63-6.28-9.44-12.45-13.74-18.95c-4.39-6.63-8.48-13.49-12.32-20.46
		c-3.57-6.48-6.72-13.2-9.89-19.89c-1.71-3.61-3.1-7.38-4.6-11.09c-0.27-0.66-0.62-0.86-1.27-0.54c-1.28,0.63-2.6,1.19-3.84,1.89
		c-0.37,0.21-0.67,0.78-0.75,1.23c-1.05,5.81-2.08,11.62-3.03,17.45c-0.14,0.88,0,1.89,0.28,2.75c0.78,2.41,1.76,4.76,2.53,7.17
		c0.2,0.62,0.12,1.53-0.21,2.09c-4.58,7.88-9.23,15.72-13.86,23.57C-767.3,308.5-768.47,310.5-769.64,312.5z"/>
	<path d="M-772.93,227.37c-0.26-0.52-0.52-1.03-0.78-1.55c-1.6-3.28-3.18-6.56-4.81-9.83c-0.47-0.95-0.56-1.84-0.25-2.86
		c3.17-10.34,6.33-20.69,9.48-31.04c1.79-5.88,3.56-11.76,5.35-17.63c0.11-0.36,0.27-0.72,0.71-1.1c0.49,1.51,1.01,3.02,1.47,4.53
		c2.73,8.86,5.45,17.72,8.16,26.59c1.91,6.25,3.82,12.5,5.65,18.78c0.21,0.71,0.05,1.66-0.25,2.35c-1.59,3.58-3.28,7.12-4.94,10.68
		c-0.18,0.38-0.41,0.73-0.62,1.09c-0.14,0.01-0.27,0.01-0.4,0.02c-2.99-10.31-5.98-20.62-8.97-30.92c-0.11-0.01-0.23-0.03-0.34-0.04
		c-2.98,10.33-5.97,20.65-8.95,30.98C-772.6,227.4-772.77,227.39-772.93,227.37z"/>
	<path d="M-742.55,219.36c0.58-1.54,1.13-3.09,1.75-4.61c3.53-8.82,7.08-17.63,10.62-26.45c0.6-1.48,0.77-1.51,2.12-0.68
		c2.06,1.26,4.12,2.51,6.23,3.7c0.95,0.53,1.13,0.99,0.41,1.9c-4.96,6.27-9.87,12.57-14.8,18.86c-1.76,2.24-3.51,4.48-5.27,6.72
		c-0.21,0.27-0.46,0.5-0.68,0.75C-742.31,219.48-742.43,219.42-742.55,219.36z"/>
	<path d="M-804.85,209.23c10.07,7.77,19.88,15.35,29.69,22.92c-0.05,0.1-0.1,0.21-0.16,0.31c-0.44-0.16-0.9-0.3-1.33-0.5
		c-9.33-4.14-18.66-8.29-28-12.42c-2.22-0.98-2.36-0.44-1.65-3.49C-805.8,213.9-805.38,211.73-804.85,209.23z"/>
	<path d="M-783.38,208.08c-0.96-1.03-1.95-2.05-2.89-3.1c-4.18-4.7-8.33-9.42-12.51-14.12c-1.71-1.92-3.45-3.81-5.18-5.71
		c-1.11-1.22-1.07-1.35,0.32-2.12c2.01-1.11,4-2.25,5.96-3.45c0.77-0.47,1.17-0.41,1.56,0.41c2.75,5.88,5.52,11.75,8.28,17.63
		c1.43,3.05,2.84,6.1,4.26,9.15c0.18,0.38,0.33,0.76,0.5,1.14C-783.18,207.97-783.28,208.02-783.38,208.08z"/>
	<path d="M-726.68,221.9c0.51,2.2,0.99,4.15,1.41,6.11c0.47,2.17,0.45,2.19-1.74,2.63c-4.16,0.82-8.33,1.61-12.49,2.41
		c-0.15,0.03-0.3,0-0.64-0.25C-735.75,229.25-731.36,225.69-726.68,221.9z"/>
	<path d="M-749.99,347.99c0.44-0.41,0.86-0.79,1.26-1.18c1.24-1.22,2.49-2.44,3.7-3.68c0.55-0.56,0.96-0.64,1.55,0.01
		c1.29,1.39,2.67,2.71,4,4.06c0.26,0.27,0.5,0.57,0.76,0.87C-741.48,349.73-747.59,349.71-749.99,347.99z"/>
	<path d="M-790.47,348.14c1.41-1.42,2.66-2.67,3.9-3.91c1.86-1.86,1.86-1.86,3.67-0.04c1.24,1.25,2.48,2.5,3.83,3.85
		C-782.89,349.68-786.5,349.58-790.47,348.14z"/>
	<path d="M-744.71,271.99c0.86,1.94,1.63,3.92,2.6,5.81c2.88,5.6,5.69,11.23,8.79,16.7c4.83,8.52,10.52,16.49,16.34,24.35
		c1.01,1.36,1,1.42-0.23,2.66c-1.26,1.26-2.55,2.49-3.77,3.79c-0.73,0.77-1.25,0.81-1.86-0.11c-3.59-5.46-7.28-10.86-10.77-16.38
		c-2.34-3.71-4.4-7.6-6.59-11.42c-2.11-3.69-2.98-7.71-3.37-11.9c-0.39-4.09-0.93-8.17-1.39-12.26c-0.04-0.38-0.01-0.78-0.01-1.17
		C-744.87,272.04-744.79,272.01-744.71,271.99z"/>
	<path d="M-783.01,279.86c-0.23,1.11-0.43,2.22-0.68,3.33c-1.21,5.49-2.47,10.98-3.64,16.48c-0.53,2.46-2.1,4.33-3.39,6.36
		c-2.54,4.02-5.21,7.96-7.84,11.92c-0.93,1.4-1.07,1.42-2.55,0.57c-1.31-0.75-2.61-1.5-3.93-2.23c-0.82-0.45-0.86-0.94-0.34-1.71
		c3.51-5.13,7.12-10.21,10.43-15.47c3.71-5.9,7.14-11.98,10.69-17.97c0.28-0.47,0.57-0.92,0.86-1.39
		C-783.26,279.78-783.13,279.82-783.01,279.86z"/>
</g>
<g>
	<path d="M-629.78,444.27c0-1.91,0.04-3.82-0.01-5.72c-0.11-4.23-0.27-8.46-0.39-12.7c-0.28-10.12-0.53-20.24-0.82-30.35
		c-0.2-7.05-0.41-14.11-0.66-21.16c-0.06-1.53,0.36-2.77,1.27-4.02c11.21-15.41,22.37-30.85,33.55-46.28
		c0.19-0.26,0.38-0.52,0.58-0.77c0.83-1.01,1.58-1.03,2.34,0.03c1.38,1.93,2.72,3.9,4.06,5.87c5.99,8.79,11.97,17.58,17.95,26.38
		c3.42,5.03,6.72,10.15,10.25,15.09c1.37,1.91,1.65,3.73,1.24,5.97c-1.76,9.6-3.4,19.23-5.1,28.85c-1.5,8.55-3.03,17.09-4.52,25.64
		c-1.89,10.76-3.76,21.53-5.64,32.29c-0.48,2.73-0.96,5.46-1.53,8.18c-0.16,0.77,0.05,1.2,0.63,1.63
		c7.18,5.4,14.35,10.82,21.55,16.2c0.96,0.71,1.48,1.51,1.15,2.66c-0.32,1.09-1.29,1.32-2.29,1.46c-5.49,0.77-10.99,1.55-16.48,2.32
		c-5.41,0.76-10.82,1.62-16.25,2.23c-5.17,0.58-10,2.38-14.94,3.8c-4.98,1.44-9.98,2.84-14.92,4.41c-2.56,0.82-4.99,0.46-7.49-0.03
		c-8.95-1.74-17.9-3.51-26.87-5.18c-10.71-1.99-21.42-3.91-32.14-5.81c-4.11-0.73-8.25-1.35-12.37-2.02
		c-0.28-0.05-0.54-0.15-0.82-0.21c-0.88-0.17-1.62-0.66-1.56-1.56c0.04-0.66,0.4-1.52,0.91-1.9c4.94-3.69,9.93-7.31,14.92-10.93
		c3.42-2.49,6.84-4.97,10.3-7.41c0.83-0.59,0.68-1.24,0.45-2.01c-1.42-4.82-2.84-9.64-4.25-14.46c-2.98-10.18-5.95-20.36-8.94-30.54
		c-2.23-7.6-4.46-15.2-6.72-22.78c-0.37-1.24-0.29-2.33,0.34-3.47c4.84-8.83,9.65-17.67,14.47-26.51c1.99-3.64,3.97-7.29,5.98-10.92
		c1.08-1.95,2.03-2.06,3.48-0.37c5.49,6.39,10.95,12.81,16.42,19.21c3.09,3.61,6.22,7.2,9.26,10.85c0.56,0.68,0.94,1.6,1.15,2.47
		c3.25,13.56,6.46,27.13,9.68,40.71c0.77,3.24,1.51,6.49,2.27,9.74c0.09,0.4,0.26,0.78,0.39,1.18
		C-629.87,444.3-629.83,444.29-629.78,444.27z M-643.06,486.13c0.08-0.06,0.16-0.12,0.24-0.18c-0.08-0.34-0.14-0.68-0.24-1.01
		c-3.5-11.78-7.02-23.55-10.49-35.33c-3.08-10.44-6.09-20.91-9.18-31.35c-0.17-0.57-0.7-1.19-1.24-1.47
		c-6.51-3.43-13.05-6.79-19.59-10.17c-0.55-0.28-1.12-0.53-1.94-0.9c0.19,0.78,0.28,1.28,0.43,1.76c2.32,7.7,4.66,15.38,6.95,23.09
		c3.75,12.63,7.46,25.28,11.22,37.9c0.15,0.49,0.55,1,0.97,1.31c5.35,3.87,10.73,7.7,16.1,11.54
		C-647.57,482.92-645.31,484.53-643.06,486.13z M-609.22,471.21c0.05,0.01,0.1,0.03,0.15,0.04c0.14-0.35,0.3-0.69,0.41-1.05
		c1.55-5.07,3.09-10.15,4.63-15.22c3.31-10.96,6.6-21.93,9.92-32.89c3.13-10.31,6.27-20.61,9.44-30.9c0.24-0.79,0.14-1.37-0.43-1.96
		c-2.06-2.15-4.08-4.36-6.16-6.49c-1-1.03-2.12-1.94-3.31-3.02c-0.07,0.1-0.23,0.32-0.39,0.56c-3.44,5.3-6.88,10.6-10.3,15.92
		c-0.26,0.41-0.4,0.97-0.42,1.47c-0.2,3.86-0.35,7.73-0.53,11.6c-0.3,6.4-0.62,12.8-0.93,19.2c-0.18,3.74-0.35,7.49-0.55,11.23
		c-0.29,5.35-0.59,10.7-0.89,16.05c-0.21,3.74-0.45,7.48-0.63,11.22C-609.28,468.37-609.22,469.79-609.22,471.21z M-636.57,484.79
		c2.64-2.14,5.06-4.14,7.52-6.08c0.67-0.52,0.86-1.01,0.65-1.84c-3.23-13.03-6.44-26.06-9.62-39.1c-2.65-10.85-5.27-21.7-7.9-32.55
		c-0.34-1.41-0.72-2.81-1.13-4.41c-0.32,0.37-0.46,0.51-0.57,0.67c-2.94,4.47-5.9,8.94-8.79,13.44c-0.28,0.43-0.3,1.17-0.18,1.7
		c0.34,1.49,0.81,2.94,1.24,4.41c5.53,18.81,11.06,37.62,16.6,56.43C-638.04,479.84-637.33,482.23-636.57,484.79z M-583.1,467
		c0.09-0.04,0.18-0.07,0.27-0.11c4.87-28.13,9.75-56.26,14.62-84.39c-2.91,2.16-5.49,4.46-8.13,6.69c-1.13,0.95-1.83,2.06-2.17,3.5
		c-0.38,1.64-0.93,3.25-1.42,4.86c-4.89,16.16-9.8,32.31-14.66,48.48c-0.18,0.58-0.14,1.41,0.16,1.92
		c2.64,4.56,5.37,9.08,8.07,13.61C-585.28,463.39-584.19,465.2-583.1,467z M-624.68,382.19c-0.13,0.36-0.2,0.46-0.2,0.57
		c0.19,7.7,0.36,15.4,0.58,23.09c0.3,10.88,0.64,21.76,0.94,32.64c0.33,11.6,0.63,23.21,0.96,34.82c0.13,4.56-0.71,3.2,3.38,5.08
		c1,0.46,2.03,0.84,3.11,1.29c0.08-0.46,0.15-0.7,0.16-0.94c0.19-5.15,0.36-10.31,0.56-15.46c0.24-6.08,0.49-12.16,0.75-18.24
		c0.31-7.21,0.63-14.41,0.95-21.62c0.17-3.86,0.33-7.73,0.52-11.59c0.21-4.47,0.46-8.93,0.64-13.4c0.02-0.52-0.13-1.16-0.45-1.56
		c-2.61-3.32-5.27-6.61-7.93-9.9C-621.96,385.42-623.26,383.89-624.68,382.19z M-669.9,369.42c-5.41,9.85-10.69,19.44-16.04,29.18
		c8.27,4.08,16.37,8.08,24.49,12.08c0.29-0.41,0.51-0.69,0.71-0.99c3.26-4.89,6.5-9.78,9.77-14.66c1.34-2,1.33-1.96-0.25-3.79
		c-4.52-5.25-9.02-10.52-13.52-15.78C-666.38,373.55-668.02,371.62-669.9,369.42z M-609.32,390.4c0.17-0.24,0.27-0.37,0.35-0.5
		c3.25-5.09,6.51-10.18,9.73-15.29c0.3-0.48,0.47-1.13,0.47-1.7c0.03-11.09,0.02-22.19,0.02-33.28c0-0.45-0.07-0.9-0.13-1.61
		c-2.16,3.04-4.12,5.82-6.1,8.59c-5.91,8.25-11.82,16.5-17.73,24.75c-1.24,1.73-1.61,1.3,0.14,3.37c2.91,3.45,5.8,6.92,8.71,10.37
		C-612.4,386.83-610.9,388.56-609.32,390.4z M-592.05,337.81c-0.06,0.64-0.12,0.91-0.12,1.19c0.01,10.89,0.02,21.77,0.06,32.66
		c0,0.43,0.21,0.97,0.51,1.28c3.48,3.64,7.01,7.24,10.5,10.87c0.42,0.44,0.74,0.47,1.21,0.06c3.73-3.26,7.48-6.5,11.24-9.73
		c0.63-0.54,0.65-0.98,0.18-1.62c-0.79-1.07-1.49-2.2-2.24-3.3c-5.45-8.03-10.9-16.06-16.35-24.08
		C-588.65,342.77-590.27,340.42-592.05,337.81z M-599.43,493.9c-0.58-0.49-0.88-0.82-1.25-1.03c-1.68-0.94-3.33-1.98-5.1-2.72
		c-5.6-2.34-11.27-4.5-16.86-6.87c-1.28-0.54-2.07-0.24-3.01,0.52c-2.97,2.41-5.97,4.79-8.97,7.15c-2.39,1.88-4.81,3.73-7.36,5.72
		c0.62,0.17,1.03,0.31,1.46,0.39c4.64,0.94,9.28,1.92,13.93,2.79c1.9,0.36,3.77,0.96,5.81,0.29c3.36-1.09,6.8-1.93,10.19-2.92
		C-606.98,496.19-603.38,495.08-599.43,493.9z M-687.52,488.15c0.96,0.2,1.54,0.33,2.13,0.44c11.46,2.15,22.91,4.3,34.37,6.43
		c0.37,0.07,0.89,0.11,1.14-0.09c1.37-1.09,2.68-2.26,4.09-3.47c-0.39-0.31-0.63-0.52-0.88-0.69c-6.96-4.87-13.93-9.73-20.86-14.64
		c-0.97-0.69-1.63-0.61-2.55,0.03c-5.02,3.5-10.09,6.94-15.13,10.4C-685.9,487.01-686.57,487.49-687.52,488.15z M-597.45,455.22
		c-0.26,0.75-0.39,1.13-0.51,1.51c-2.46,8.07-4.93,16.15-7.39,24.23c-0.66,2.16-0.6,2.1,1.49,3.12c0.99,0.48,1.66,0.36,2.5-0.27
		c3.14-2.32,6.33-4.57,9.5-6.86c1.75-1.27,3.48-2.56,5.26-3.86C-590.2,467.14-593.74,461.32-597.45,455.22z M-566.2,488.48
		c-0.5-0.43-0.78-0.69-1.09-0.92c-4.38-3.14-8.8-6.25-13.14-9.45c-0.88-0.64-1.43-0.5-2.21,0.05c-2.79,1.98-5.62,3.91-8.43,5.85
		c-1.81,1.25-3.61,2.49-5.51,3.8c1.43,1.33,2.75,2.52,4.01,3.76c0.62,0.61,1.25,0.68,2.08,0.55c5.68-0.89,11.36-1.72,17.05-2.57
		C-571.13,489.21-568.8,488.86-566.2,488.48z"/>
	<path d="M-692.23,438.34c-0.23,0.49-0.37,0.96-0.64,1.34c-2.07,2.93-4.13,5.86-6.25,8.75c-0.98,1.34-2.23,1.35-3.18,0.05
		c-2.1-2.85-4.14-5.76-6.25-8.61c-0.68-0.92-0.67-1.79-0.07-2.67c2.1-3.05,4.2-6.11,6.35-9.12c0.9-1.26,2.01-1.21,2.94,0.05
		c2.08,2.82,4.15,5.65,6.19,8.49C-692.77,437.12-692.55,437.73-692.23,438.34z M-700.74,442.09c0.87-1.23,1.62-2.26,2.32-3.32
		c0.12-0.18,0.12-0.58,0-0.75c-0.73-1.08-1.51-2.12-2.35-3.3c-0.88,1.2-1.63,2.19-2.34,3.21c-0.14,0.2-0.24,0.6-0.13,0.75
		C-702.48,439.79-701.66,440.85-700.74,442.09z"/>
	<path d="M-538.1,406.06c-0.18,0.38-0.3,0.82-0.55,1.17c-1.9,2.69-3.8,5.39-5.74,8.05c-0.95,1.31-2.11,1.35-3.07,0.07
		c-2.01-2.71-4-5.45-5.86-8.26c-0.35-0.53-0.38-1.69-0.04-2.21c1.97-2.99,4.07-5.89,6.18-8.77c0.65-0.89,1.7-0.86,2.36,0.05
		c2.15,2.96,4.24,5.96,6.34,8.96C-538.3,405.36-538.24,405.7-538.1,406.06z M-546.14,403.18c-0.58,0.78-1.09,1.45-1.57,2.14
		c-0.15,0.22-0.35,0.6-0.26,0.74c0.61,1.01,1.28,1.97,2.04,3.1c0.67-0.93,1.21-1.63,1.68-2.37c0.13-0.21,0.16-0.64,0.03-0.85
		C-544.8,405.03-545.45,404.16-546.14,403.18z"/>
	<path d="M-564.95,449.77c0.25-0.5,0.38-0.93,0.64-1.27c1.73-2.32,3.47-4.64,5.25-6.92c0.91-1.17,1.84-1.2,2.76,0.02
		c1.87,2.46,3.69,4.97,5.41,7.54c0.3,0.45,0.23,1.48-0.09,1.96c-1.57,2.33-3.24,4.6-4.97,6.82c-1.33,1.71-2.36,1.66-3.62-0.08
		c-1.56-2.15-3.1-4.31-4.61-6.49C-564.52,450.87-564.7,450.29-564.95,449.77z"/>
</g>
<path d="M-615.47,21.05c1.53,0.44,3.09,0.77,4.58,1.32c6.77,2.53,12.49,6.56,17.17,12.08c4.57,5.39,7.6,11.53,9.03,18.43
	c1.74,8.43,1.01,16.73-1.59,24.9c-2.55,8.03-6.72,15.13-12.19,21.5c-1.25,1.45-2.56,2.85-3.82,4.29c-0.61,0.69-1.09,0.59-1.51-0.17
	c-2.01-3.62-3.31-7.46-3.78-11.58c-0.61-5.43,0.06-10.76,1.34-16.04c0.06-0.25,0.09-0.51,0.14-0.76c-0.11-0.09-0.21-0.19-0.32-0.28
	c-0.91,1.01-1.83,2.02-2.73,3.04c-7.62,8.72-13.3,18.55-16.64,29.67c-1.91,6.37-2.95,12.89-2.99,19.55
	c-0.04,6.85,1.41,13.42,4.01,19.75c0.18,0.45,0.35,0.9,0.77,1.37c0.28-1.07,0.55-2.14,0.83-3.21c2.44-9.54,7.67-17.45,14.53-24.33
	c4.41-4.42,9.02-8.64,13.53-12.96c8.2-7.85,15.52-16.39,20.72-26.58c0.13-0.26,0.32-0.5,0.64-0.97c0.33,0.55,0.66,0.91,0.78,1.34
	c1.04,3.47,1.45,7.04,1.36,10.65c-0.12,4.65-0.9,9.2-2.59,13.56c-2.05,5.28-5.23,9.87-9.02,14.02c-4.52,4.95-9.32,9.65-13.72,14.71
	c-5.99,6.88-10.25,14.73-11.98,23.79c-2.06,10.8-0.56,20.96,5.97,30.05c4.59,6.39,10.84,10.13,18.67,11.06
	c6.58,0.78,13.06,0.04,19.43-1.66c0.38-0.1,0.78-0.69,0.88-1.12c0.96-3.93,1.87-7.87,2.79-11.81c3.16-13.53,6.33-27.05,9.48-40.59
	c0.08-0.36,0.08-0.85-0.11-1.15c-3.9-6.13-7.83-12.24-11.76-18.36c-0.12-0.18-0.28-0.34-0.61-0.74c-1.92,9.76-3.79,19.27-5.73,29.14
	c-1.01-2.31-1.7-4.43-2.79-6.31c-1.67-2.86-1.5-5.73-0.88-8.81c1.19-5.95,2.18-11.95,3.25-17.93c0.18-1.03,0.7-1.77,1.58-2.39
	c8.92-6.34,17.8-12.73,26.7-19.09c4.89-3.49,9.79-6.96,14.69-10.44c0.33-0.24,0.7-0.42,1.23-0.72c0.29,1.01,0.57,1.87,0.79,2.74
	c2.95,11.74,5.91,23.48,8.83,35.23c0.15,0.59,0.1,1.31-0.09,1.89c-2.8,8.84-5.63,17.67-8.45,26.5c-0.11,0.36-0.2,0.73-0.36,1.3
	c1.53-0.38,2.91-0.69,4.28-1.07c2.94-0.81,5.89-1.63,8.81-2.52c0.46-0.14,0.98-0.61,1.16-1.06c3.18-8.25,5.2-16.75,5.73-25.61
	c0.73-12.18-1.17-23.88-6.03-35.05c-3.48-8.01-8.13-15.31-13.95-21.87c-7.8-8.8-17.23-15.33-27.77-20.36
	c-5.6-2.67-11.47-4.58-17.43-6.27c-1.13-0.32-2.21-1-3.19-1.68c-3.33-2.31-6.61-4.7-9.91-7.06c-0.33-0.24-0.65-0.5-1.26-0.96
	c0.85,0.05,1.39,0.05,1.92,0.12c4.65,0.66,9.32,1.23,13.95,2.03c6.96,1.2,13.57,3.57,20.02,6.42c6.82,3.02,13.19,6.79,18.99,11.49
	c10.46,8.46,18.73,18.68,24.52,30.85c3.98,8.37,6.69,17.16,7.8,26.38c1.75,14.65,0.28,28.95-4.99,42.78
	c-3.99,10.48-9.79,19.85-17.46,28.08c-6.91,7.41-14.76,13.56-23.77,18.17c-8.32,4.26-17.08,7.19-26.33,8.63
	c-5.31,0.83-10.64,1.27-16.01,1.05c-13.13-0.53-25.6-3.64-37.31-9.68c-6.77-3.5-12.94-7.82-18.57-12.97
	c-8.47-7.75-15.22-16.77-20.15-27.1c-4.49-9.42-7.27-19.35-8.31-29.77c-1.2-12.11,0.13-23.9,4.01-35.41
	c0.51-1.52,1.3-2.95,2.16-4.39c2.95,7.5,7.55,13.42,14.62,17.63c-5.66-15.91-5.43-31.07,4.14-45.27c3.76-5.58,8.2-10.54,14.34-13.63
	c0.09,0.06,0.19,0.12,0.28,0.19c-0.06,0.27-0.1,0.54-0.18,0.81c-1.43,5.13-2.66,10.29-2.54,15.67c0.11,5.11,1.55,9.85,4.04,14.29
	c0.05,0.09,0.16,0.14,0.14,0.13c0.62-2.35,1.11-4.79,1.92-7.12c1.44-4.12,3.91-7.68,6.6-11.08c3.98-5.04,7.55-10.31,9.18-16.64
	c1.89-7.38,0.82-14.33-3.22-20.8c-0.17-0.28-0.33-0.57-0.49-0.86C-615.61,21.3-615.54,21.18-615.47,21.05z M-560.12,196.22
	c19.84-6.66,33.88-20.05,45.58-36.77c-0.38,0.11-0.49,0.12-0.58,0.16c-5.38,2.38-10.76,4.74-16.12,7.17
	c-0.8,0.36-1.56,0.96-2.17,1.6c-2.86,2.99-5.65,6.05-8.49,9.06c-0.57,0.61-1.24,1.12-2.05,1.83c7.08-16.07,14.05-31.87,21.01-47.67
	c-0.68,0.13-1.14,0.39-1.57,0.68c-5.98,4-11.94,8.02-17.94,11.99c-0.89,0.59-1.42,1.29-1.72,2.29c-1,3.28-2.06,6.55-3.11,9.82
	C-551.53,169.58-555.78,182.76-560.12,196.22z M-546.75,138.32c0.3-0.17,0.57-0.32,0.82-0.48c6.94-4.39,13.88-8.79,20.81-13.19
	c1.77-1.12,1.77-1.13,1.31-3.21c-1.2-5.48-2.4-10.96-3.62-16.43c-0.62-2.77-1.27-5.54-1.97-8.55
	c-7.86,10.91-15.57,21.62-23.28,32.32C-550.67,131.99-548.73,135.13-546.75,138.32z M-641.72,138.23c2.63-3.44,5.11-6.68,7.57-9.95
	c0.17-0.22,0.21-0.77,0.06-0.98c-2.49-3.43-5.01-6.82-7.52-10.21c-0.15,0.06-0.25,0.06-0.29,0.11c-2.41,3.4-4.82,6.79-7.19,10.22
	c-0.14,0.21-0.04,0.73,0.13,0.99c0.62,0.96,1.31,1.88,1.99,2.8C-645.26,133.51-643.54,135.79-641.72,138.23z"/>
<g>
	<path d="M-812.76,39.76c0.3,0.33,0.59,0.64,0.86,0.96c0.86,0.97,1.72,1.94,2.58,2.91c0.5,0.57,0.5,0.57,0.4,1.34
		c-0.06,0.52-0.1,1.05-0.14,1.57c-0.1,1.46-0.2,2.92-0.3,4.38c0,0.02-0.02,0.04-0.09,0.07c-0.2-1.56-0.39-3.12-0.6-4.72
		c-0.24,0.29-0.46,0.55-0.68,0.81c-0.26,0.31-0.53,0.61-0.79,0.92c-0.13,0.16-0.22,0.16-0.37,0.02c-0.81-0.74-1.63-1.47-2.45-2.21
		c-0.01-0.01-0.03-0.01-0.08-0.03c0.35,1.76,0.69,3.5,1.03,5.24c-0.01,0.01-0.02,0.01-0.04,0.02c-0.27-0.32-0.53-0.64-0.8-0.96
		c-0.08-0.09-0.14-0.21-0.23-0.28c-0.54-0.46-0.68-1.09-0.78-1.74c-0.18-1.13-0.39-2.26-0.57-3.39c-0.02-0.13,0.01-0.3,0.08-0.41
		c0.91-1.43,1.84-2.85,2.77-4.27C-812.91,39.9-812.85,39.85-812.76,39.76z M-812.68,41.8c-0.26,0.92-0.47,1.78-0.75,2.61
		c-0.18,0.54-0.11,0.91,0.34,1.27c0.44,0.35,0.82,0.77,1.23,1.17c0.52-0.63,1.05-1.27,1.6-1.92
		C-811.07,43.91-811.85,42.88-812.68,41.8z"/>
	<path d="M-805.95,28.22c-0.15-0.19-0.31-0.38-0.46-0.58c-0.48-0.62-0.94-1.25-1.43-1.87c-0.15-0.19-0.15-0.32,0-0.51
		c0.6-0.77,1.18-1.54,1.76-2.31c0.04-0.06,0.06-0.13,0.11-0.23c0.45,0.59,0.83,1.08,1.21,1.58c0.27,0.35,0.54,0.71,0.81,1.06
		c0.07,0.09,0.11,0.17,0.03,0.28c-0.64,0.84-1.28,1.69-1.92,2.53C-805.88,28.18-805.9,28.19-805.95,28.22z"/>
	<path d="M-760.47-58.56c0.51,0.59,1.08,1.15,1.53,1.78c3.21,4.48,4.99,9.5,5.58,14.96c1.04,9.62-2.64,17.61-8.65,24.77
		c-2.6,3.1-5.4,6.04-7.84,9.26c-2.55,3.37-4.2,7.24-4.96,11.43c-0.6,3.27-0.09,6.44,1.07,9.53c0.03,0.09,0.13,0.15,0.26,0.29
		c0.84-1.94,1.58-3.87,2.48-5.72c3.1-6.38,7.2-11.94,13.45-15.6c2.96-1.74,6.13-2.95,9.71-3.49c-0.2,0.43-0.34,0.76-0.5,1.08
		c-2.71,5.13-4.42,10.54-4.86,16.36c-0.27,3.61-0.93,7.17-2.03,10.65c-1.92,6.08-5.72,10.49-11.44,13.27
		c-0.82,0.4-1.63,0.81-2.65,1.31c-0.22-1.46-0.37-2.81-0.65-4.12c-0.25-1.17,0.11-1.9,1.05-2.66c3.66-2.98,6.4-6.63,7.49-11.32
		c0.3-1.27,0.34-2.6,0.5-3.91c-0.09-0.04-0.18-0.08-0.27-0.13c-1.47,1.12-2.95,2.23-4.4,3.38c-3.32,2.64-6.43,5.5-8.77,9.08
		c-0.37,0.56-0.58,1.37-0.52,2.04c0.33,3.92,0.75,7.84,1.18,11.76c0.09,0.85-0.15,1.42-0.73,2.05c-2.06,2.21-4.02,4.53-6.08,6.74
		c-0.35,0.38-0.98,0.64-1.5,0.68c-3.46,0.23-6.78,0.81-9.48,3.26c-0.73,0.66-1.11,1.37-1.09,2.38c0.03,2.32-0.11,4.65,0.01,6.97
		c0.04,0.75,0.52,1.59,1.04,2.17c1.07,1.2,2.3,2.26,3.59,3.49c-3.8,4.04-6.95,8.85-13.08,9.52c-2.19,0.24-4.43,0.1-6.64,0.11
		c-5.14,0.02-10.28-0.04-15.42,0.06c-3.68,0.07-6.88-1.07-9.55-3.52c-2.04-1.87-3.92-3.92-6.16-6.18c1.44-1.31,2.7-2.48,3.99-3.61
		c0.8-0.7,1.1-1.53,1.04-2.61c-0.11-2.18-0.02-4.37-0.16-6.54c-0.04-0.66-0.41-1.42-0.86-1.9c-2.55-2.71-5.93-3.34-9.43-3.53
		c-0.84-0.05-1.44-0.23-2-0.88c-2.02-2.35-4.1-4.64-6.12-6.99c-0.24-0.28-0.38-0.76-0.35-1.13c0.37-4.17,0.81-8.33,1.17-12.5
		c0.05-0.57-0.13-1.26-0.44-1.74c-2.75-4.18-6.48-7.39-10.37-10.44c-0.91-0.71-1.85-1.38-2.78-2.07c-0.12,0.03-0.24,0.07-0.36,0.1
		c0.22,1.49,0.33,3.01,0.68,4.47c1.14,4.69,4.06,8.21,7.69,11.19c0.6,0.49,0.79,0.96,0.67,1.7c-0.25,1.51-0.43,3.03-0.67,4.7
		c-5.28-2.44-9.71-5.48-12.42-10.62c-2.06-3.9-3.18-8.08-3.5-12.41c-0.51-6.81-2.06-13.26-5.45-19.22
		c-0.06-0.11-0.07-0.25-0.13-0.49c4.71,0.77,8.87,2.55,12.5,5.46c4.67,3.75,8.08,8.51,10.65,13.88c0.71,1.49,1.33,3.03,1.99,4.54
		c0.14,0.31,0.29,0.61,0.44,0.92c0.13,0.01,0.26,0.01,0.38,0.02c0.37-1.88,0.89-3.74,1.08-5.63c0.5-4.91-1.26-9.28-3.61-13.44
		c-2.22-3.94-5.41-7.1-8.43-10.4c-5.06-5.53-8.65-11.87-9.56-19.38c-1-8.25,1.11-15.77,6.25-22.37c0.15-0.19,0.33-0.36,0.51-0.53
		c0.07-0.07,0.17-0.11,0.41-0.25c-0.17,1.34-0.34,2.56-0.46,3.79c-0.95,9.17,1.74,17.23,7.76,24.08c2.47,2.81,5.46,5.17,8.3,7.63
		c3.72,3.23,7.73,6.15,11.25,9.58c5.38,5.24,8.38,11.75,8.9,19.31c0.1,1.47,0.15,2.96,0.41,4.41c0.11,0.59,0.69,1.13,1.15,1.6
		c0.38,0.39,0.9,0.65,1.59,1.13c-0.07-4.58-0.4-8.89-1.18-13.09c5.06,0.15,10.07,0.41,15.08,0.41c4.98,0,9.96-0.26,14.84-0.41
		c-0.41,4.14-0.84,8.41-1.28,12.82c2.26-0.81,3.22-1.88,3.21-3.56c-0.06-10.89,4.59-19.46,12.9-26.22
		c3.82-3.11,7.79-6.05,11.55-9.23c6.09-5.13,10.08-11.58,11.6-19.47c0.77-3.99,0.68-7.98-0.14-11.95c-0.05-0.23-0.09-0.46-0.13-0.7
		C-760.59-58.48-760.53-58.52-760.47-58.56z M-842.5,18.55c-0.1,0.52-0.22,0.86-0.23,1.19c-0.02,1.86-0.16,3.73,0.02,5.58
		c0.57,5.87,5.16,10.5,10.22,11.08c1.5,0.17,3.01,0.35,4.51,0.33c1.06-0.01,1.65,0.24,1.98,1.32c0.35,1.15,0.93,2.22,1.47,3.46
		c0.76-0.79,1.31-1.5,1.98-2.04c1.01-0.82,1.37-1.86,1.47-3.1c0.1-1.19,0.35-2.36,0.52-3.54c0.2-1.46,0.38-2.92,0.58-4.51
		c-1.4,1.3-2.64,2.47-3.88,3.63C-829.99,27.53-836.16,23.1-842.5,18.55z M-801.89,41.19c0.54-1.21,1.08-2.51,1.71-3.75
		c0.16-0.32,0.63-0.62,0.99-0.66c1.11-0.14,2.25-0.11,3.37-0.21c3.57-0.32,6.81-1.36,9.16-4.32c3.14-3.95,3.35-8.5,2.78-13.22
		c-0.01-0.09-0.1-0.16-0.2-0.31c-6.2,4.46-12.39,8.91-18.62,13.39c-1.33-1.25-2.59-2.44-3.87-3.66c0.48,3.12,0.96,6.27,1.45,9.41
		c0.03,0.16,0.1,0.35,0.22,0.47C-803.93,39.28-802.93,40.21-801.89,41.19z M-817.81,62.21c-1.07-3.4-2.82-6.06-5.39-8.13
		c-0.85-0.68-1.93-0.9-2.99-0.39c-1.58,0.77-2.55,3.52-1.86,5.15c0.28,0.66,0.65,0.97,1.38,0.66c1.27-0.55,2.47-0.26,3.66,0.3
		C-821.36,60.57-819.71,61.33-817.81,62.21z M-808.66,62.21c1.86-0.88,3.48-1.64,5.09-2.41c1.22-0.58,2.47-0.82,3.77-0.31
		c0.68,0.27,1.04,0,1.32-0.61c0.62-1.32,0.18-3.19-1.09-4.54c-0.92-0.97-2.4-1.26-3.44-0.44C-805.7,56.02-807.53,58.74-808.66,62.21
		z"/>
	<path d="M-794.89,104.81c-2.56-5.47-5.99-10.34-10.61-14.7c0.16,1.5,0.22,2.77,0.43,4.01c0.74,4.44,0.11,8.69-1.66,12.79
		c-2.16,5-4.34,9.99-6.54,15.05c-0.09-0.21-0.19-0.44-0.28-0.67c-2.04-4.79-3.97-9.62-6.14-14.35c-2.01-4.36-2.44-8.83-1.72-13.49
		c0.15-0.99,0.23-1.99,0.36-3.15c-4.59,4.26-8.04,9.06-10.48,14.72c-2.29-6.51-2.62-12.69,1.22-18.6c0.27-0.41,0.31-1.15,0.14-1.63
		c-1.06-3.01-1.63-6.1-1.92-9.45c2.49,2.28,4.85,4.45,7.27,6.67c3.26-3.28,7.36-3.65,11.59-3.67c4.24-0.02,8.32,0.41,11.65,3.65
		c2.41-2.21,4.74-4.33,7.13-6.52c-0.2,3.2-0.67,6.3-1.87,9.24c-0.29,0.7-0.26,1.19,0.16,1.82c3.09,4.61,3.74,9.61,2.36,14.93
		c-0.28,1.09-0.57,2.17-0.85,3.26C-794.67,104.73-794.72,104.73-794.89,104.81z"/>
	<path d="M-840.43,67.39c1.85,1.75,3.63,3.44,5.47,5.17c0.03-0.05,0,0.07-0.07,0.11c-3.83,2.51-7.92,4.43-12.61,4.14
		c-5.29-0.32-10-2.13-13.17-6.68c-1.79-2.56-3.34-5.29-5.08-7.89c-1.35-2.01-2.71-4.03-4.28-5.87c-2.09-2.44-4.91-2.94-7.99-2.49
		c-5.47,0.8-9.25,3.98-12.15,8.46c-2.6,4.02-3.87,8.47-4.66,13.2c-0.21-1.42-0.52-2.82-0.61-4.25c-0.45-7.02,1.31-13.32,6.22-18.54
		c6.45-6.86,18.77-7.79,26.14,1.57c1.52,1.93,2.66,4.14,4.06,6.16c1.58,2.28,3.11,4.62,4.9,6.73c2.79,3.28,6.23,3.96,10.18,2.18
		C-842.7,68.78-841.4,67.93-840.43,67.39z"/>
	<path d="M-731.83,75.58c-0.63-4.53-1.73-8.72-3.96-12.53c-2.56-4.39-6.08-7.65-11.15-8.9c-4.83-1.19-8.16,0.01-10.99,4.13
		c-1.71,2.49-3.18,5.14-4.77,7.72c-1.76,2.86-3.67,5.65-6.49,7.55c-5.96,4.03-12.26,4.3-18.73,1.29c-1.35-0.63-2.62-1.45-3.64-2.03
		c1.89-1.9,3.72-3.73,5.55-5.56c-0.07-0.11-0.14-0.22-0.21-0.33c0.54,0.42,1.07,0.87,1.64,1.27c2.29,1.6,4.77,2.57,7.62,2
		c1.68-0.33,3.07-1.23,4.24-2.44c2.4-2.46,4.39-5.22,6-8.25c2.07-3.88,4.68-7.24,8.44-9.67c5.67-3.67,15.5-3.19,20.96,2.98
		c5.72,6.46,7.42,13.85,5.69,22.17C-731.64,75.13-731.72,75.27-731.83,75.58z"/>
	<path d="M-867.95,36.67c2.67-1.08,5.08-0.9,7.47-0.14c2.86,0.91,5.17,2.72,7.15,4.89c1.55,1.71,3.04,3.53,4.27,5.47
		c0.91,1.44,1.83,2.07,3.59,1.97c2.54-0.14,5.01,0.5,7.4,1.43c0.66,0.26,0.91,0.62,0.87,1.33c-0.07,1.33-0.02,2.67-0.05,4.01
		c-0.02,0.98-0.57,1.38-1.5,1.12c-4.54-1.26-9.14-1.51-13.78-0.7c-0.85,0.15-1.11-0.23-1.37-0.88c-1.6-4.01-3.67-7.77-6.5-11.04
		c-1.61-1.85-3.45-3.5-5.19-5.24C-866.31,38.21-867.05,37.52-867.95,36.67z"/>
	<path d="M-758.66,36.98c-0.53,0.45-1.05,0.92-1.59,1.36c-5.62,4.59-9.84,10.21-12.47,16.99c-0.27,0.7-0.61,0.82-1.34,0.72
		c-4.57-0.64-9.11-0.68-13.59,0.66c-1.15,0.34-1.52,0.04-1.54-1.2c-0.02-1.3,0.02-2.61-0.07-3.9c-0.05-0.74,0.2-1.07,0.87-1.31
		c2.74-0.99,5.53-1.64,8.46-1.46c0.76,0.05,1.2-0.23,1.61-0.87c2.21-3.51,4.81-6.67,8.16-9.18c2.94-2.2,6.17-3.32,9.88-2.63
		c0.5,0.09,0.98,0.29,1.47,0.44C-758.76,36.72-758.71,36.85-758.66,36.98z"/>
	<path d="M-735.78,26.45c1.8,2.88,3.49,5.54,5.1,8.26c0.17,0.29,0.01,1.02-0.26,1.28c-1.66,1.61-3.4,3.15-5.24,4.83
		c-1.41-1.51-3.07-3.26-4.67-5.05c-0.18-0.21-0.19-0.78-0.04-1.04C-739.25,32.02-737.57,29.35-735.78,26.45z"/>
	<path d="M-751.79,81.9c-1.73-2.14-3.3-4.07-4.83-6.03c-0.15-0.19-0.12-0.69,0.03-0.9c1.53-2.14,3.11-4.24,4.76-6.48
		c0.54,0.7,1.05,1.35,1.54,2c1.05,1.4,2.12,2.8,3.13,4.23c0.18,0.26,0.28,0.84,0.12,1.06C-748.55,77.79-750.12,79.76-751.79,81.9z"
		/>
	<path d="M-891.61,25.18c1.45,1.73,2.85,3.4,4.25,5.06c0.47,0.55,0.54,1.06,0.03,1.68c-1.4,1.71-2.74,3.45-4.27,5.39
		c-1.29-1.52-2.44-2.82-3.54-4.17c-1.65-2.01-1.65-2.03,0.06-4.03C-893.95,27.8-892.8,26.53-891.61,25.18z"/>
	<path d="M-769.02,101.78c-1.39-2.2-2.68-4.24-3.95-6.29c-0.11-0.17-0.13-0.51-0.03-0.67c1.28-2.09,2.59-4.16,4.01-6.42
		c1.38,2.21,2.65,4.22,3.89,6.25c0.1,0.16,0.07,0.5-0.03,0.67C-766.38,97.42-767.66,99.51-769.02,101.78z"/>
	<path d="M-874.97,88.07c-1.36-2.05-2.63-3.94-3.85-5.85c-0.13-0.21-0.13-0.65,0-0.85c1.24-1.82,2.53-3.61,3.91-5.56
		c1.35,2,2.61,3.86,3.85,5.73c0.11,0.16,0.14,0.51,0.05,0.66C-872.28,84.11-873.58,86.02-874.97,88.07z"/>
</g>
<g>
	<path d="M-416.91-49c-14.61-1.54-26.19-8.01-34.85-19.48c-5.7-7.56-8.74-16.18-9.05-25.63c-0.54-16.44,5.77-29.7,19-40.01
		c0.67,1.63,1.33,2.98,1.75,4.4c0.1,0.35-0.46,1.03-0.87,1.37c-3.32,2.75-6.02,6.03-8.36,9.62c-3.43,5.27-5.42,11.08-6.12,17.31
		c-1.12,9.92,0.69,19.29,6.3,27.61c8.88,13.16,21.3,20.19,37.31,19.43c16.9-0.81,29.33-9.24,36.57-24.47
		c6.47-13.6,5.2-27.1-2.63-39.94c-2.3-3.77-5.29-6.99-8.72-9.77c-0.71-0.57-0.91-1.07-0.47-1.91c0.57-1.08,1.02-2.22,1.63-3.56
		c12.21,8.91,18.51,20.84,19.3,35.6c0.68,12.79-3.58,23.97-12.1,33.5c-8.5,9.5-19.22,14.7-32.04,15.96
		c1.03,2.02,1.92,3.79,2.83,5.55c1,1.95,2.06,3.87,2.98,5.86c0.24,0.52,0.28,1.36,0.03,1.86c-2.76,5.34-5.6,10.65-8.43,15.96
		c-0.2,0.37-0.45,0.71-0.82,1.28c-0.66-1.18-1.21-2.13-1.72-3.1c-2.42-4.53-4.82-9.08-7.28-13.59c-0.53-0.98-0.53-1.73,0.01-2.74
		C-420.7-41.47-418.9-45.11-416.91-49z M-413.27-43.84c-0.14,0.01-0.28,0.02-0.42,0.03c-1.13,2.26-2.27,4.52-3.39,6.79
		c-0.08,0.16-0.09,0.42-0.01,0.57c1.1,2.27,2.22,4.53,3.5,7.13c1.32-2.64,2.48-4.93,3.62-7.23c0.08-0.15,0.05-0.41-0.02-0.58
		C-411.08-39.36-412.18-41.6-413.27-43.84z"/>
	<path d="M-413.38-132.62c19.52-0.3,35.96,15.78,36.46,35.37c0.52,20.8-16.24,37.12-35.76,37.53c-20.31,0.43-37-15.67-37.43-35.59
		C-450.55-115.63-433.82-133.07-413.38-132.62z M-413.59-65.06c17.34-0.02,31.41-13.75,31.43-30.66
		c0.01-17.73-13.88-31.68-31.6-31.66c-16.15,0.02-31.04,12.88-30.96,31.58C-444.65-78.79-430.81-65.05-413.59-65.06z"/>
	<path d="M-441.8-164.62c2.21,1.06,4.11,1.96,6,2.88c3.48,1.68,6.96,3.34,10.41,5.08c0.91,0.46,1.27,0.23,1.72-0.61
		c3.14-5.95,6.32-11.88,9.5-17.81c0.15-0.28,0.34-0.53,0.71-1.09c3.58,6.78,7.05,13.36,10.59,20.07c5.72-2.78,11.38-5.54,17.3-8.42
		c-0.56,1.61-1.03,2.95-1.48,4.29c-2.54,7.5-5.07,15.01-7.6,22.52c-0.08,0.23-0.19,0.44-0.24,0.67c-0.2,0.98-0.7,1.02-1.55,0.66
		c-5.31-2.28-10.89-3.28-16.63-3.36c-6.04-0.08-11.88,1.04-17.49,3.31c-0.96,0.39-1.39,0.28-1.74-0.75
		c-2.86-8.36-5.76-16.71-8.66-25.06C-441.2-162.92-441.43-163.59-441.8-164.62z M-394.56-154.44c-0.75,0.33-1.15,0.5-1.53,0.69
		c-2.53,1.26-5.09,2.48-7.58,3.81c-1.11,0.59-1.63,0.35-2.18-0.73c-2.24-4.36-4.55-8.68-6.84-13.01c-0.23-0.43-0.5-0.83-0.87-1.43
		c-0.33,0.56-0.53,0.88-0.71,1.22c-2.42,4.53-4.86,9.06-7.23,13.62c-0.47,0.91-0.92,0.98-1.76,0.56c-2.59-1.31-5.21-2.58-7.83-3.85
		c-0.41-0.2-0.85-0.33-1.54-0.6c0.21,0.76,0.32,1.25,0.49,1.72c1.01,2.9,2.06,5.78,3.03,8.69c0.3,0.89,0.68,1.08,1.56,0.82
		c4.22-1.24,8.55-1.93,12.95-2.01c5.04-0.09,10.03,0.47,14.86,1.98c1.02,0.32,1.44,0.01,1.74-0.94c0.86-2.73,1.79-5.45,2.68-8.17
		C-395.1-152.73-394.89-153.4-394.56-154.44z"/>
	<path d="M-495.52-167.82c13.96,9.28,25.51,20.67,35.7,33.95C-474-142.97-485-154.94-495.52-167.82z"/>
	<path d="M-460.48-59.12c-4.34,7.96-26.32,29.1-34.97,33.62C-489.28-34.71-465.7-57.38-460.48-59.12z"/>
	<path d="M-332.1-25.77c-13.92-9.23-25.05-20.86-35.02-33.69C-361.6-57.51-338.7-35.55-332.1-25.77z"/>
	<path d="M-366.61-134.33c9.73-12.74,20.89-23.97,34.25-32.9C-342.25-154.68-353.17-143.2-366.61-134.33z"/>
	<path d="M-469.13-96.35c-12.77,2.54-25.53,2.7-38.44-0.06C-494.67-99.1-481.91-99.33-469.13-96.35z"/>
	<path d="M-357.9-96.46c12.74-3.05,25.39-2.33,38.05-0.04C-324.81-93.93-349.2-93.88-357.9-96.46z"/>
	<path d="M-449.86-43.34c3.2-0.32,6.39-0.63,9.59-0.95c0.32-0.03,0.64-0.04,0.95-0.08c2.88-0.41,2.85-0.4,4.37,2.03
		c2.03,3.24,4.11,6.44,6.16,9.67c0.2,0.32,0.38,0.65,0.39,1.21c-7.17-3.84-14.35-7.68-21.52-11.52
		C-449.89-43.11-449.88-43.22-449.86-43.34z"/>
	<path d="M-376.84-43.25c-7.5,3.99-14.76,7.85-22.01,11.71c-0.06-0.06-0.12-0.12-0.19-0.19c0.88-1.37,1.75-2.74,2.64-4.1
		c1.73-2.67,3.44-5.36,5.23-7.99c0.27-0.4,0.93-0.82,1.38-0.79c3.96,0.3,7.92,0.7,11.88,1.09C-377.64-43.5-377.39-43.4-376.84-43.25
		z"/>
	<path d="M-483.24-121.26c1.87-1.86,3.49-3.48,5.14-5.12c1.53,1.65,3.14,3.39,4.73,5.11c-1.27,1.36-2.71,2.94-4.21,4.46
		c-0.16,0.16-0.78,0.13-0.97-0.04C-480.14-118.29-481.68-119.78-483.24-121.26z"/>
	<path d="M-344.21-71.14c-1.65,1.67-3.21,3.25-4.73,4.8c-1.53-1.62-3.12-3.31-4.76-5.05c1.24-1.29,2.7-2.83,4.21-4.34
		c0.15-0.15,0.68-0.18,0.81-0.05C-347.14-74.24-345.65-72.65-344.21-71.14z"/>
	<path d="M-473.29-71.16c-1.66,1.64-3.29,3.25-5.02,4.96c-1.44-1.65-2.92-3.35-4.48-5.14c1.2-1.24,2.74-2.88,4.34-4.46
		c0.14-0.13,0.77,0.01,0.98,0.22C-476.05-74.14-474.68-72.65-473.29-71.16z"/>
	<path d="M-353.52-121.4c1.37-1.54,2.9-3.25,4.42-4.96c1.61,1.75,3.13,3.39,4.71,5.11c-1.45,1.3-3.15,2.82-4.9,4.39
		C-350.59-118.27-352.17-119.96-353.52-121.4z"/>
	<path d="M-437.07-92.27c4.2,9.96,11.3,16.11,22.5,15.89c9.38-0.19,16.16-5.12,19.7-13.7c4.25-10.32,0.7-18.93-7.13-26.42
		c2.92,1.06,5.45,2.46,7.53,4.57c6.52,6.62,8.35,14.54,6.27,23.45c-2.52,10.79-11.82,18.21-23.13,19.07
		c-11.1,0.84-21.72-6.09-24.94-16.66c-0.61-1.99-0.81-4.1-1.2-6.15C-437.33-92.24-437.2-92.25-437.07-92.27z"/>
</g>
<g>
	<path d="M-740.11-159.25c-3.7-4.46-8.37-7.43-12.96-10.54c-1.81-1.22-3.24-3-4.87-4.5c-0.38-0.35-0.83-0.7-1.3-0.89
		c-11.45-4.57-23.25-7.92-35.39-10.1c-11.5-2.07-23.09-3.31-34.79-3.54c-0.19,0-0.39-0.04-0.76-0.08c0.22-2.17,0.42-4.3,0.67-6.43
		c0.75-6.38,1.52-12.76,2.29-19.14c0.39-3.24,0.83-6.47,1.2-9.71c0.07-0.66,0.01-1.39-0.2-2.01c-2.52-7.57-4.34-15.3-5.1-23.24
		c-1.82-18.87,1.9-36.66,11.34-53.07c13.57-23.6,33.84-38.52,60.48-43.91c27.85-5.63,53.62-0.21,76.27,17.38
		c17.24,13.39,28.02,31.06,32.74,52.36c3.67,16.55,2.11,32.83-3.15,48.8c-0.72,2.2-0.64,4.23-0.39,6.39
		c1.28,10.7,2.53,21.4,3.79,32.1c0.01,0.1-0.02,0.2-0.04,0.44c-2.32,0.12-4.66,0.24-7.01,0.36c-21.57,1.07-42.52,5.11-62.73,12.84
		c-1.49,0.57-2.7,1.21-3.6,2.72c-0.8,1.34-2.19,2.43-3.52,3.32C-731.74-166.61-736.45-163.68-740.11-159.25z M-743.96-176.21
		c-19.34-19.44-43.4-26.6-70.42-26.51c2.8-27.3,5.59-54.47,8.39-81.64c1.34,0,2.38-0.08,3.41,0.01c3.54,0.33,7.1,0.61,10.62,1.13
		c7.78,1.15,15.4,2.96,22.67,6.09c1.64,0.7,2.54,1.56,2.88,3.41c0.44,2.37,1.41,4.64,2.14,6.92c-12.08-5.78-28.65-10.47-35.39-9.96
		c-2.25,22.23-4.5,44.49-6.76,66.86c23.36,1.47,44.65,7.88,62.84,23.67c0-21.44,0-42.41,0-63.69c2.46,1.34,4.64,0.92,7.04-0.29
		c0,21.43,0,42.54,0,64.01c18.11-15.72,39.26-22.41,62.62-23.66c-2.17-22.46-4.32-44.72-6.48-67.11
		c-11.01,1.16-21.4,3.84-31.57,8.38c0.7-2.02,1.61-3.69,1.79-5.43c0.3-2.94,1.99-4.01,4.54-4.86c8.35-2.78,16.92-4.33,25.64-5.22
		c1.95-0.2,3.91-0.24,6.02-0.37c2.66,27.34,5.29,54.48,7.94,81.76c-26.94-0.09-50.97,6.89-70.14,26.54
		c24.36-13.05,50.83-17.75,78.08-19.65c-2.69-23.96-5.37-47.8-8.08-71.89c1.65,0.4,2.97,0.86,4.32,1.01
		c1.41,0.16,1.71,0.99,1.87,2.15c0.8,5.92,1.63,11.84,2.45,17.76c0.14,1.03,0.32,2.05,0.48,3.08c5.83-29.89-6.87-67.59-42-87.02
		c-33.81-18.7-77.38-12.14-103.88,16.93c-8.64,9.47-14.74,20.4-18.34,32.69c-3.6,12.28-4.38,24.73-2.04,37.33
		c1.15-7.17,2.18-14.36,3.23-21.53c0.05-0.37,0.28-0.92,0.55-1.01c1.71-0.53,3.45-0.96,5.45-1.49c-2.72,24.2-5.4,48.05-8.09,72.08
		c13.66,0.68,27.06,2.44,40.24,5.62C-768.78-186.92-755.97-182.68-743.96-176.21z"/>
	<path d="M-791.06-167.58c1.55-1.87,3.04-3.68,4.54-5.49c1.51,1.64,3.17,3.44,4.97,5.4c-1.72,1.43-3.5,2.9-5.03,4.18
		C-787.79-164.59-789.46-166.12-791.06-167.58z"/>
	<path d="M-743.71-326.16c2.98,1.33,5.29,3.23,7.28,5.52c5.15,5.97,8.06,12.79,7.14,20.81c-0.33,2.92-1.4,5.76-1.81,8.67
		c-0.33,2.36-0.22,4.78-0.21,7.18c0,0.54,0.4,1.08,0.73,1.88c5.47-4.01,8.4-9.46,10.48-15.49c9.21,15.76,3.58,33.95-12.9,39.82
		c0.11-0.83,0.18-1.58,0.32-2.31c0.76-3.8-0.13-7.25-2.25-10.42c-1.01-1.52-2.13-2.98-3.19-4.46c-1.52-2.11-2.38-4.47-2.32-7.06
		c0.06-3.31,0.31-6.61,0.48-9.92c0.02-0.48,0.07-0.95-0.05-1.49c-3.07,3.69-6.21,7.3-8.25,11.66c-0.74,1.58-1.18,3.34-1.5,5.07
		c-0.55,2.92,0.32,5.6,1.99,7.98c1.27,1.82,2.8,3.47,4.02,5.33c1.28,1.96,2.32,4.07,3.46,6.11c-0.14,0.14-0.27,0.28-0.41,0.43
		c-1.31-0.33-2.67-0.54-3.93-1.02c-8.81-3.38-14.52-9.53-15.92-18.98c-1.06-7.12,1.24-13.47,5.78-19.01
		c2.42-2.95,4.97-5.78,7.31-8.78c4.86-6.25,6.17-13.2,3.8-20.79C-743.69-325.57-743.67-325.72-743.71-326.16z"/>
	<path d="M-711.51-245.75c7.22-3.07,11.24-8.63,13.04-16.11c1.28,7.62,5.35,12.94,12.42,16.08c-7.06,3.03-10.44,8.72-12.5,15.77
		C-700.66-237.12-704.73-242.45-711.51-245.75z"/>
	<path d="M-774.85-296.22c-1.9-5.41-4.87-9.63-9.99-12.18c5.35-2.63,8.47-6.88,9.73-12.64c1.61,5.62,4.6,10.02,10.02,12.63
		C-770.3-305.95-773.22-301.75-774.85-296.22z"/>
	<path d="M-684.2-298.77c-1.88,2.18-3.77,4.38-5.6,6.51c-1.8-2.06-3.72-4.23-5.56-6.33c1.83-2.3,3.69-4.66,5.47-6.9
		C-688.02-303.28-686.04-300.94-684.2-298.77z"/>
	<path d="M-713.66-228.38c1.38,1.92,2.77,3.47,3.72,5.26c0.82,1.55-0.56,2.64-1.57,3.62c-1.21,1.16-2.7,1.35-3.93,0.66
		c-2.54-1.42-2.99-3.53-1.21-5.8C-715.74-225.79-714.82-226.92-713.66-228.38z"/>
	<path d="M-775.3-248.93c-0.57,1.51-1.89,2.67-3.44,3.55c-1.18,0.68-2.16-0.07-3.05-0.83c-2.84-2.47-2.77-3.96,0.36-6.28
		c0.9-0.67,1.83-1.38,3.09-0.71C-777.05-252.51-775.27-250.24-775.3-248.93z"/>
	<path d="M-770.32-225.31c1.39-1.77,2.78-3.54,4.24-5.41c1.38,1.82,2.71,3.57,4.08,5.37c-1.32,1.82-2.67,3.69-4.1,5.66
		C-767.51-221.57-768.89-223.4-770.32-225.31z"/>
	<path d="M-698.11-167.58c1.55-1.87,3.04-3.68,4.54-5.49c1.51,1.64,3.17,3.44,4.97,5.4c-1.72,1.43-3.5,2.9-5.03,4.18
		C-694.84-164.59-696.52-166.12-698.11-167.58z"/>
</g>
<g>
	<path d="M175.92,108.01c-3.04,1.89-6.1,3.66-9.02,5.63c-4.59,3.1-9.1,6.33-13.61,9.55c-0.41,0.29-0.72,0.83-0.88,1.32
		c-6.1,18.04-17.94,30.4-36.08,36.57c-0.72,0.24-1.44,0.84-1.88,1.48c-4.71,6.78-9.37,13.59-14.04,20.4
		c-0.11,0.16-0.22,0.32-0.38,0.53c-1.81-2.81-3.52-5.62-5.39-8.32c-3-4.33-6.08-8.61-9.18-12.86c-0.41-0.56-1.09-1.05-1.75-1.26
		c-17.53-5.73-29.19-17.49-35.58-34.63c-0.68-1.81-1.5-3.26-3.14-4.46c-6.59-4.85-13.19-9.66-20.36-13.64
		c-0.2-0.11-0.38-0.25-0.65-0.43c7.47-3.47,13.86-8.48,20.5-13.1c2.05-1.43,3.22-3.16,4.15-5.42c4.67-11.4,11.96-20.72,22.45-27.36
		c4.03-2.55,8.29-4.6,12.89-5.93c0.54-0.16,1.11-0.59,1.44-1.05c4.93-6.91,9.82-13.85,14.73-20.81c1.32,2.02,2.68,4.2,4.15,6.32
		c3.41,4.91,6.86,9.79,10.32,14.66c0.25,0.35,0.67,0.68,1.08,0.79c6.93,1.9,13.12,5.25,18.62,9.79c7.98,6.59,13.98,14.66,17.41,24.5
		c0.61,1.76,1.53,2.99,3.09,4.02c4.77,3.18,9.39,6.59,14.16,9.78C171.15,105.53,173.53,106.67,175.92,108.01z M38.83,108.15
		c0.38,0.25,0.66,0.39,0.9,0.59c4.42,3.62,8.81,7.26,13.26,10.83c0.91,0.73,1.41,1.54,1.77,2.64c5.23,16.11,15.74,26.95,32.05,31.97
		c0.53,0.16,1.07,0.53,1.42,0.96c2.07,2.53,4.08,5.1,6.11,7.66c1.86,2.33,3.73,4.65,5.62,7.01c0.3-0.31,0.53-0.52,0.73-0.77
		c3.15-3.93,6.36-7.81,9.4-11.83c1.42-1.88,3.05-2.97,5.33-3.77c15.07-5.32,24.88-15.82,29.62-31.05c0.36-1.16,0.94-1.98,1.87-2.73
		c4.69-3.77,9.34-7.6,14.08-11.47c-0.5-0.46-0.87-0.85-1.3-1.19c-4.46-3.5-8.93-6.98-13.37-10.5c-0.41-0.32-0.82-0.8-0.94-1.29
		c-2.55-9.72-7.76-17.71-15.65-23.91c-4.92-3.86-10.3-6.88-16.47-8.33c-0.53-0.12-1.09-0.49-1.44-0.91c-2.45-2.97-4.85-6-7.28-8.99
		c-1.5-1.85-3.04-3.68-4.61-5.57c-0.33,0.35-0.55,0.57-0.74,0.81C95.8,52.61,92.4,56.9,89.02,61.2c-0.69,0.88-1.41,1.59-2.57,1.91
		c-7.56,2.04-14.1,5.94-19.72,11.32c-5.77,5.53-9.51,12.32-11.83,19.95c-0.24,0.8-0.8,1.62-1.43,2.17c-1.71,1.51-3.53,2.89-5.32,4.3
		C45.14,103.23,42.1,105.59,38.83,108.15z"/>
	<path d="M100,26.43c-5.07-0.01-9.34-4.28-9.33-9.33c0.01-5.05,4.34-9.34,9.37-9.31c5.07,0.03,9.32,4.31,9.31,9.36
		C109.34,22.23,105.1,26.44,100,26.43z"/>
	<path d="M156.47,84.1c-0.24-0.19-0.63-0.36-0.81-0.66c-0.74-1.25-1.47-2.51-2.08-3.82c-0.15-0.33,0.04-0.96,0.29-1.3
		c0.28-0.39,0.79-0.62,1.23-0.89c5.85-3.6,11.7-7.2,17.55-10.79c1.29-0.79,1.61-0.73,2.34,0.54c0.89,1.53,1.73,3.07,2.63,4.59
		c0.47,0.8,0.38,1.41-0.46,1.85c-6.66,3.42-13.32,6.84-19.98,10.25C156.99,83.95,156.8,83.99,156.47,84.1z"/>
	<path d="M46.59,78.94c-0.53,1.08-0.95,2.05-1.45,2.97c-1.46,2.71-1.44,2.65-4.14,1.18c-5.79-3.15-11.61-6.25-17.42-9.35
		c-1.74-0.92-1.83-1.09-0.91-2.74c0.72-1.3,1.44-2.61,2.18-3.9c0.78-1.36,1.08-1.47,2.4-0.65c6.14,3.82,12.26,7.65,18.38,11.5
		C45.99,78.18,46.25,78.58,46.59,78.94z"/>
	<path d="M156.66,133.21c0.73,0.33,1.27,0.56,1.79,0.82c6,3,12,6.01,18,9.02c1.77,0.89,1.8,1.01,0.79,2.72
		c-0.84,1.42-1.68,2.83-2.49,4.27c-0.5,0.88-1.05,1.12-1.99,0.55c-6.12-3.75-12.26-7.47-18.41-11.17c-0.92-0.56-1.16-1.15-0.59-2.1
		c0.64-1.08,1.16-2.22,1.83-3.28C155.82,133.66,156.32,133.46,156.66,133.21z"/>
	<path d="M137.2,156.67c0.43,0.43,0.94,0.84,1.34,1.35c2.09,2.66,4.15,5.35,6.21,8.03c2.06,2.68,4.12,5.37,6.18,8.06
		c0.82,1.07,0.78,1.4-0.29,2.22c-1.41,1.08-2.87,2.08-4.25,3.18c-0.77,0.62-1.34,0.53-1.86-0.25c-4.05-5.99-8.11-11.98-12.12-18
		c-0.21-0.32-0.24-1.14-0.02-1.32c1.35-1.08,2.78-2.04,4.2-3.03C136.72,156.82,136.88,156.79,137.2,156.67z"/>
	<path d="M54.55,37.4c0.43,0.43,0.94,0.79,1.27,1.28c3.45,5.15,6.88,10.33,10.31,15.49c0.07,0.1,0.13,0.2,0.19,0.3
		c1.78,2.81,2.25,2.1-0.8,4.31c-0.51,0.37-1.03,0.72-1.56,1.06c-1.26,0.82-1.61,0.77-2.53-0.41c-2.43-3.14-4.84-6.3-7.27-9.44
		c-1.71-2.21-3.41-4.42-5.15-6.6c-0.65-0.81-0.66-1.46,0.16-2.1c1.43-1.11,2.85-2.23,4.29-3.32C53.73,37.77,54.07,37.65,54.55,37.4z
		"/>
	<path d="M62.75,156.8c0.5,0.23,0.89,0.34,1.2,0.57c1.08,0.79,2.12,1.62,3.19,2.43c0.65,0.49,0.72,0.99,0.24,1.7
		c-3.93,5.82-7.83,11.67-11.75,17.51c-0.81,1.21-1.14,1.25-2.26,0.4c-1.31-1-2.63-1.99-3.93-3c-1.13-0.88-1.18-1.16-0.31-2.31
		c3.03-4.01,6.09-8.01,9.14-12.01c1.12-1.47,2.22-2.95,3.37-4.39C61.92,157.33,62.38,157.09,62.75,156.8z"/>
	<path d="M26.08,151.16c-0.26-0.27-0.55-0.49-0.71-0.77c-1.01-1.73-1.99-3.47-2.98-5.21c-0.49-0.86,0.02-1.32,0.7-1.68
		c2.12-1.11,4.25-2.2,6.39-3.29c4.23-2.16,8.48-4.28,12.68-6.48c1.08-0.57,1.77-0.38,2.32,0.63c0.6,1.1,1.24,2.19,1.75,3.33
		c0.14,0.31-0.01,0.9-0.24,1.19c-0.33,0.42-0.83,0.71-1.3,1c-5.79,3.55-11.58,7.09-17.38,10.62
		C26.94,150.72,26.55,150.91,26.08,151.16z"/>
	<path d="M137.43,60.62c-0.44-0.16-0.69-0.19-0.87-0.32c-1.31-0.93-2.62-1.88-3.92-2.83c-0.53-0.39-0.59-0.82-0.19-1.4
		c4.04-5.91,8.05-11.83,12.08-17.74c0.64-0.93,1.3-1.04,2.18-0.33c1.4,1.14,2.74,2.36,4.13,3.53c0.68,0.57,0.72,1.08,0.17,1.8
		c-4.16,5.39-8.29,10.8-12.44,16.19C138.23,59.94,137.78,60.28,137.43,60.62z"/>
	<path d="M99.71,133.35c-1.85,0-3.7-0.01-5.56,0.01c-0.7,0.01-1.12-0.24-1.16-1c-0.31-6.47,0.25-12.72,4.26-18.21
		c2.31-3.16,5.26-5.62,8.18-8.15c1.58-1.36,3.08-2.82,4.52-4.32c4.72-4.93,3.25-16.11-6.41-18.21c-4.4-0.95-8.66-0.56-12.27,2.43
		c-2.82,2.34-4.02,5.64-4.85,9.09c-0.05,0.23-0.09,0.46-0.14,0.69c-0.56,2.38-0.56,2.34-2.97,2.13c-3.02-0.26-6.04-0.45-9.06-0.68
		c-0.39-0.03-0.78-0.11-1.17-0.14c-0.7-0.04-0.94-0.4-0.89-1.08c0.54-7.35,3.02-13.79,8.8-18.64c6.45-5.41,13.97-7.22,22.24-6.43
		c5.41,0.52,10.49,2.02,14.89,5.28c4.39,3.25,7.62,7.42,8.75,12.87c1.46,7.06,0.2,13.6-4.71,19.04c-3.53,3.91-7.25,7.68-11.16,11.2
		c-3.19,2.86-4.28,6.36-4.47,10.37c-0.04,0.79-0.02,1.58-0.04,2.36c-0.02,0.94-0.41,1.43-1.45,1.39
		C103.26,133.31,101.49,133.36,99.71,133.35C99.71,133.35,99.71,133.35,99.71,133.35z"/>
	<path d="M100.1,153.89c-1.89,0-3.78-0.03-5.67,0.01c-1.09,0.02-1.6-0.41-1.6-1.52c0.02-3.78,0.03-7.56,0-11.34
		c-0.01-1.11,0.49-1.56,1.57-1.56c3.82,0.01,7.64,0.01,11.46,0c1.04,0,1.61,0.38,1.6,1.53c-0.03,3.78-0.03,7.56,0,11.34
		c0.01,1.12-0.51,1.56-1.57,1.55C103.96,153.88,102.03,153.9,100.1,153.89z"/>
</g>
<g>
	<path d="M-201.3,111.6c1.86,0.7,3.57,1.35,5.38,2.04c0.17-2.1,0.34-4.09,0.51-6.17c3.66,0.77,7.27,1.52,10.97,2.3
		c0.24-2.86,0.46-5.43,0.66-8c0.37-4.61,0.73-9.23,1.09-13.84c0.06-0.73,0.12-1.47,0.09-2.2c-0.01-0.32-0.17-0.67-0.37-0.93
		c-0.81-1.03-1.69-2.01-2.49-3.04c-0.21-0.27-0.37-0.68-0.37-1.02c0.01-3.32,0.02-6.64,0.12-9.96c0.02-0.68,0.27-1.44,0.67-2
		c1.54-2.16,3.17-4.25,4.77-6.36c0.17-0.22,0.36-0.43,0.7-0.83c0,3.42,0,6.61,0,10.11c1.33-1.39,2.47-2.56,3.56-3.78
		c0.15-0.17,0.09-0.55,0.11-0.83c0.07-1.72,0.13-3.43,0.2-5.18c0.39-0.05,0.7-0.08,1.13-0.13c0-1.7-0.05-3.38,0.02-5.06
		c0.07-1.7-0.06-3.3-1.16-4.7c-0.19-0.24-0.23-0.66-0.23-0.99c0-1.09,0.07-2.17,0.07-3.26c0-1.34,0.16-2.57,1.28-3.54
		c0.41-0.36,0.6-1.03,0.78-1.6c1.44-4.49,2.85-9,4.28-13.49c0.06-0.18,0.14-0.35,0.28-0.7c0.5,1.55,0.97,2.95,1.42,4.35
		c1.12,3.49,2.21,6.99,3.39,10.46c0.21,0.62,0.84,1.09,1.2,1.68c0.27,0.43,0.54,0.93,0.58,1.41c0.09,1.08-0.02,2.17,0.05,3.26
		c0.09,1.4,0,2.74-0.94,3.89c-0.11,0.14-0.2,0.35-0.2,0.53c-0.01,2.58-0.01,5.16-0.01,7.77c0.42,0.05,0.76,0.09,1.32,0.16
		c0,1.69,0.02,3.38-0.01,5.06c-0.01,0.62,0.17,1.07,0.62,1.51c0.95,0.92,1.85,1.9,2.93,3.02c0-3.42,0-6.53,0-9.75
		c0.18,0.17,0.35,0.29,0.47,0.45c1.81,2.35,3.63,4.7,5.42,7.07c0.21,0.28,0.33,0.69,0.33,1.05c0.02,3.55,0.02,7.09-0.02,10.64
		c0,0.4-0.22,0.86-0.48,1.18c-0.55,0.7-1.14,1.39-1.8,1.99c-0.66,0.61-0.79,1.28-0.73,2.14c0.4,5.35,0.77,10.7,1.14,16.05
		c0.17,2.42,0.32,4.83,0.49,7.43c3.7-0.79,7.39-1.58,11.14-2.38c0.16,2.15,0.31,4.21,0.47,6.38c1.82-0.69,3.56-1.35,5.44-2.07
		c0.29,2.02,0.56,3.93,0.83,5.84c0.67,4.77,1.35,9.54,2.02,14.31c0.43,3.03,0.86,6.06,1.25,9.1c0.11,0.85,0.38,1.43,1.24,1.81
		c3.79,1.69,7.54,3.45,11.31,5.19c0.4,0.19,0.79,0.39,1.19,0.59c-0.04,0.15-0.03,0.25-0.08,0.32c-2.12,3.19-4.23,6.39-6.38,9.56
		c-0.27,0.4-0.72,0.72-1.15,0.94c-3.47,1.83-6.96,3.62-10.43,5.46c-0.36,0.19-0.7,0.55-0.9,0.92c-1.89,3.48-3.72,6.99-5.63,10.45
		c-0.28,0.51-0.81,1-1.34,1.25c-3,1.41-6.05,2.72-9.07,4.11c-0.44,0.2-0.88,0.53-1.16,0.92c-3.85,5.33-7.68,10.68-11.51,16.03
		c-0.17,0.23-0.34,0.46-0.6,0.81c-0.72-0.82-1.41-1.6-2.09-2.38c-3.06-3.56-6.13-7.11-9.18-10.69c-0.41-0.48-0.69-1.06-1.01-1.61
		c-0.11-0.19-0.18-0.41-0.24-0.62c-1.18-3.97-3.26-7.37-6.49-10.01c-0.1-0.08-0.2-0.17-0.27-0.27c-1.24-1.86-2.82-2.39-4.82-1.2
		c-0.59,0.35-0.93-0.02-1.3-0.41c-2.36-2.48-4.7-4.96-7.11-7.39c-0.46-0.47-1.12-0.84-1.75-1.03c-2.07-0.64-4.19-1.13-6.26-1.77
		c-0.57-0.18-1.14-0.58-1.53-1.03c-3.46-3.93-6.89-7.9-10.32-11.85c-0.2-0.23-0.39-0.48-0.66-0.8c0.77-0.39,1.44-0.74,2.12-1.07
		c4.14-2,8.28-3.98,12.41-6.01c0.32-0.16,0.63-0.61,0.68-0.97c0.86-6.16,1.66-12.33,2.5-18.49
		C-202.29,118.39-201.8,115.08-201.3,111.6z M-144.39,137.91c-0.87-8.49-1.72-16.83-2.59-25.3c-2.28,0.62-4.45,1.2-6.63,1.8
		c-4.64,1.29-9.1,2.96-12.88,6.09c-0.51,0.42-0.77,0.83-0.76,1.51c0.04,7.35,0.04,14.7,0.06,22.05c0,0.31,0.04,0.61,0.07,1.1
		c0.52-0.35,0.92-0.6,1.3-0.87c2.5-1.77,5.17-3.2,8.14-3.93c2.35-0.58,4.74-1,7.12-1.44C-148.56,138.55-146.54,138.26-144.39,137.91
		z M-193.88,137.7c2.44,0.41,4.75,0.87,7.08,1.19c5.48,0.75,10.68,2.21,15.09,5.75c0.15,0.12,0.36,0.17,0.54,0.25
		c0-7.84,0.01-15.6-0.03-23.37c0-0.44-0.32-0.98-0.66-1.29c-1.83-1.73-3.93-3.08-6.34-3.84c-3.92-1.23-7.87-2.36-11.82-3.53
		c-0.38-0.11-0.78-0.18-1.25-0.29C-192.14,121-193,129.3-193.88,137.7z M-152.97,156.97c-0.06-0.07-0.12-0.13-0.18-0.2
		c-3.37,2.36-6.76,4.7-10.1,7.11c-0.65,0.47-1.24,1.11-1.67,1.79c-2.4,3.77-4.75,7.57-7.12,11.36c-0.16,0.26-0.35,0.49-0.58,0.83
		c-3.31-3.16-6.69-6.11-9.73-9.37c-3.06-3.27-5.79-6.86-8.67-10.3c0.42,1.37,0.97,2.65,1.64,3.86c1.24,2.25,2.1,4.65,4.04,6.6
		c4.64,4.66,8.95,9.64,13.41,14.49c1.81,1.97,3.63,3.92,5.54,5.97c1.14-4.16,2.26-8.17,3.34-12.2c2.11-7.88,2.1-7.88,6.6-14.66
		C-155.29,160.48-154.13,158.72-152.97,156.97z M-165.5,97.66c0-5.44,0-10.77,0-16.1c0-0.19-0.01-0.41-0.11-0.55
		c-1.14-1.68-2.3-3.35-3.57-5.19c-1.2,1.68-2.31,3.19-3.35,4.74c-0.26,0.39-0.43,0.93-0.43,1.4c-0.03,4.88-0.02,9.77-0.02,14.65
		c0,0.34,0.03,0.67,0.05,1.06C-170.41,97.66-168,97.66-165.5,97.66z M-170.23,52.91c0,6.25,0,12.37,0,18.48
		c1.96,0.44,2.18,0.27,2.17-1.59c-0.03-4.7-0.06-9.39-0.09-14.09c-0.01-0.92,0-1.83,0-2.8C-168.84,52.91-169.49,52.91-170.23,52.91z
		"/>
	<path d="M-191.76,189.71c-0.36-0.38-0.66-0.69-0.95-1.01c-2.09-2.33-4.19-4.65-6.27-6.99c-0.24-0.27-0.42-0.63-0.52-0.99
		c-0.48-1.64-0.93-3.29-1.45-5.17c0.82,0.38,1.41,0.65,2,0.92c2.25,1.05,4.52,2.08,6.75,3.18c0.32,0.16,0.68,0.62,0.68,0.95
		c0.01,2.91-0.06,5.81-0.11,8.72C-191.63,189.41-191.68,189.49-191.76,189.71z"/>
	<path d="M-153.46,204.1c0-3.02,0-5.85,0-8.69c0-1.69,0.03-3.38,0-5.07c-0.01-0.59,0.18-0.88,0.78-0.94c0.72-0.07,1.44-0.18,2.3-0.3
		c0,0.41,0,0.72,0,1.03c-0.01,4.05-0.03,8.1-0.01,12.15c0,0.67-0.22,0.97-0.85,1.12C-151.95,203.57-152.63,203.83-153.46,204.1z"/>
	<path d="M-181.57,204.01c-1-0.29-1.83-0.5-2.63-0.79c-0.22-0.08-0.48-0.43-0.48-0.65c-0.03-4.4-0.03-8.8-0.03-13.2
		c0-0.09,0.05-0.17,0.09-0.29c0.89,0,1.77,0,2.75,0C-181.77,194.04-181.67,198.93-181.57,204.01z"/>
	<path d="M-128.1,132.34c0-1.01,0-1.86,0-2.78c4.69,0,9.32,0,14.12,0c0,0.79,0.03,1.55-0.02,2.3c-0.01,0.17-0.29,0.46-0.45,0.46
		C-118.96,132.35-123.48,132.34-128.1,132.34z"/>
	<path d="M-210.79,129.57c0,0.93,0,1.78,0,2.72c-4.54,0-9.04,0-13.61,0c0-0.9,0-1.77,0-2.72
		C-219.86,129.57-215.38,129.57-210.79,129.57z"/>
	<path d="M-206.89,116.65c-0.55,0.8-1.05,1.52-1.6,2.32c-2.93-1.96-5.88-3.93-8.81-5.9c0.46-0.81,0.86-1.52,1.33-2.34
		C-212.96,112.7-209.91,114.69-206.89,116.65z"/>
	<path d="M-122.52,110.73c0.44,0.79,0.83,1.49,1.26,2.27c-2.92,2-5.86,4.01-8.75,5.98c-0.53-0.79-1.01-1.49-1.56-2.31
		C-128.6,114.72-125.58,112.74-122.52,110.73z"/>
	<path d="M-207.52,99.48c0.52-0.72,0.99-1.36,1.54-2.11c2.49,2.57,4.96,5.13,7.39,7.65c-0.76,0.45-1.48,0.88-2.34,1.38
		C-203.06,104.17-205.29,101.82-207.52,99.48z"/>
	<path d="M-137.48,106.46c-0.82-0.53-1.53-0.98-2.29-1.47c2.4-2.49,4.85-5.04,7.35-7.64c0.51,0.72,0.97,1.38,1.49,2.11
		C-133.13,101.81-135.32,104.16-137.48,106.46z"/>
	<path d="M-166.34,210.8c-1.01,0-1.95,0-2.94,0c0-2.74,0-5.43,0-8.18c0.99,0,1.93,0,2.94,0
		C-166.34,205.33-166.34,208.01-166.34,210.8z"/>
</g>
<g>
	<path d="M-313.17,158.38c0,4.48,0.12,8.97-0.03,13.44c-0.22,6.6-0.29,13.23-1.04,19.77c-0.98,8.65-5.34,15.61-12.17,21
		c-7.71,6.08-16.19,10.98-24.61,15.96c-2.81,1.66-5.66,3.24-8.48,4.88c-0.68,0.39-1.26,0.6-2.04,0.12
		c-9.17-5.6-18.41-11.08-27.51-16.78c-4.08-2.56-7.94-5.52-10.99-9.34c-4.24-5.31-6.74-11.32-7.21-18.13
		c-1.09-15.5-0.62-31.03-0.8-46.55c-0.02-1.31,0.67-1.7,1.68-2.07c8.94-3.29,17.86-6.61,26.8-9.9c5.88-2.16,11.76-4.31,17.67-6.38
		c0.7-0.25,1.64-0.21,2.35,0.04c14.08,5.06,28.13,10.18,42.2,15.29c0.65,0.24,1.3,0.49,1.96,0.73c2.55,0.92,2.25,0.59,2.26,3.32
		c0.01,4.87,0,9.74,0,14.62C-313.14,158.38-313.15,158.38-313.17,158.38z M-321.08,148.08c0.29-1.4-0.68-1.72-1.68-2.09
		c-12.28-4.53-24.56-9.09-36.84-13.61c-0.48-0.18-1.13-0.2-1.6-0.02c-12.57,4.63-25.13,9.3-37.7,13.93
		c-0.89,0.33-1.19,0.8-1.18,1.72c0.09,6.17,0.13,12.35,0.21,18.52c0.09,6.61,0.23,13.22,0.3,19.83c0.1,8.77,3.33,16.04,10.73,20.91
		c9.01,5.93,18.23,11.52,27.4,17.2c0.41,0.25,1.29,0.13,1.75-0.14c6.6-3.88,13.22-7.73,19.71-11.79c3.68-2.3,7.32-4.75,10.61-7.56
		c5.48-4.67,7.47-11.08,7.74-18.05c0.27-6.91,0.43-13.82,0.53-20.73C-321.01,160.17-321.08,154.12-321.08,148.08z"/>
	<path d="M-380.08,244.37c0.48,3.7,0.96,7.39,1.44,11.09c-0.12,0.07-0.24,0.13-0.36,0.2c-1.64-0.94-3.29-1.89-4.93-2.83
		c-3.55-2.03-7.09-4.08-10.66-6.07c-0.93-0.52-1.53-1.17-1.86-2.21c-0.87-2.68-1.83-5.33-2.8-8.12c2.37-0.84,4.61-1.64,6.86-2.43
		c2.91-1.03,5.81-2.11,8.75-3.04c0.69-0.22,1.66-0.12,2.31,0.21c6.51,3.22,12.99,6.51,19.46,9.82c0.89,0.45,1.63,0.54,2.56,0.06
		c6.47-3.29,12.98-6.51,19.46-9.8c0.84-0.43,1.55-0.57,2.46-0.26c4.72,1.66,9.44,3.3,14.18,4.89c1.01,0.34,1.26,0.82,0.89,1.83
		c-1.12,3.11-2.14,6.26-3.28,9.36c-0.17,0.47-0.74,0.97-1.23,1.12c-1.58,0.48-3.22,0.75-4.81,1.2c-1.13,0.31-2.02,0.14-2.75-0.83
		c-0.41-0.55-0.94-1.02-1.54-1.65c-0.53,0.56-1.01,1.08-1.51,1.59c-7.36,7.46-14.74,14.91-22.07,22.4c-0.87,0.89-1.32,0.82-2.1-0.12
		c-2.14-2.57-4.61-4.89-6.57-7.59c-2.57-3.54-4.81-7.33-7.12-11.05c-1.6-2.57-3.08-5.22-4.61-7.84
		C-379.96,244.32-380.02,244.35-380.08,244.37z"/>
	<path d="M-455.16,131.36c2.11,1.08,3.97,2.19,5.96,2.99c1.96,0.79,4.03,1.36,6.1,1.84c0.79,0.18,1.83,0.12,2.51-0.26
		c2.56-1.44,5.08-2.98,7.5-4.65c0.97-0.67,1.5-0.82,2.37,0.11c3.34,3.6,6.74,7.15,10.15,10.69c0.61,0.64,0.65,1.13,0.06,1.77
		c-3.22,3.49-3.52,7.58-2.03,11.81c0.95,2.69,2.33,5.23,3.52,7.84c0.17,0.37,0.35,0.74,0.66,1.4c-7.69-1.45-14.41-4.29-20.3-8.97
		C-446.73,149.53-451.8,141.13-455.16,131.36z M-427.79,155.18c0.27-2.18-0.06-2.93-1.11-3.33c-2.07-0.79-4.16-1.53-6.14-2.5
		c-2.08-1.02-4.05-2.28-6.37-3.61C-437.48,150.07-433.26,153.39-427.79,155.18z"/>
	<path d="M-302.64,164.89c1.13-2.36,2.24-4.42,3.1-6.58c0.73-1.85,1.34-3.78,1.66-5.73c0.56-3.32-0.47-6.28-2.7-8.79
		c-0.52-0.59-0.63-1.02-0.02-1.65c3.47-3.59,6.92-7.21,10.35-10.85c0.73-0.77,1.2-0.83,2.15-0.15c2.39,1.7,4.89,3.28,7.46,4.71
		c0.78,0.44,1.95,0.45,2.89,0.3c3.7-0.58,7.05-2.14,10.27-3.99c0.35-0.2,0.71-0.39,1.19-0.46c-2.78,8.35-6.95,15.78-13.41,21.84
		C-286.15,159.56-293.77,163.14-302.64,164.89z M-293.57,155.26c5.73-1.77,10-5.19,13.79-9.47c-0.18,0.02-0.27,0.01-0.33,0.04
		c-3.81,2.73-7.84,4.99-12.4,6.24c-0.3,0.08-0.66,0.44-0.74,0.74C-293.42,153.51-293.45,154.25-293.57,155.26z"/>
	<path d="M-419.15,93.74c9.7,3.25,18.22,7.65,24.85,15.14c5.15,5.81,8.55,12.51,10.33,20.38c-0.63-0.28-1.03-0.49-1.45-0.64
		c-2.99-1.05-5.93-2.24-8.98-3.08c-3.95-1.09-7.49-0.07-10.48,2.74c-0.54,0.51-0.94,0.76-1.62,0.11
		c-3.66-3.54-7.34-7.05-11.05-10.52c-0.88-0.82-0.86-1.4-0.16-2.4c1.62-2.3,3.09-4.71,4.49-7.15c0.36-0.63,0.41-1.61,0.24-2.35
		c-0.88-4.03-3.09-7.43-5.3-10.83C-418.5,94.8-418.72,94.43-419.15,93.74z M-393.5,120.8c-2.13-5.39-5.19-9.86-9.74-13.25
		c2.62,3.44,4.76,7.14,6.31,11.17C-396.14,120.77-396.14,120.77-393.5,120.8z"/>
	<path d="M-302.33,94.17c-0.99,1.57-2.12,3.07-2.94,4.73c-1.11,2.25-2.07,4.58-2.88,6.95c-0.27,0.79-0.12,1.96,0.3,2.69
		c1.39,2.44,2.93,4.81,4.53,7.12c0.57,0.83,0.56,1.33-0.14,1.99c-3.76,3.55-7.5,7.12-11.23,10.7c-0.47,0.45-0.84,0.64-1.42,0.09
		c-3.31-3.2-7.28-3.97-11.59-2.74c-2.87,0.82-5.63,2.01-8.44,3.04c-0.31,0.11-0.6,0.24-1.15,0.46c1.83-7.78,5.16-14.5,10.35-20.26
		C-320.26,101.56-311.89,96.93-302.33,94.17z M-327.67,120.79c2.67,0,2.65,0,3.43-2.1c0.36-0.97,0.72-1.97,1.23-2.87
		c1.53-2.73,3.14-5.42,4.7-8.09C-322.57,111.15-325.72,115.42-327.67,120.79z"/>
	<path d="M-327.29,218.33c2.28-1.89,4.36-3.66,6.51-5.33c0.24-0.19,1.05,0.03,1.37,0.32c1.71,1.54,3.4,3.11,5,4.76
		c0.9,0.93,1.91,1.47,3.17,1.55c1.14,0.07,2.01,0.54,2.78,1.44c1.38,1.62,2.86,3.15,4.36,4.65c0.73,0.73,0.95,1.45,0.72,2.45
		c-0.41,1.77-0.65,3.59-1.08,5.36c-0.1,0.43-0.63,0.96-1.05,1.06c-1.85,0.45-3.73,0.81-5.62,1.07c-0.51,0.07-1.2-0.15-1.61-0.49
		c-1.97-1.64-3.91-3.32-5.76-5.08c-0.43-0.41-0.73-1.22-0.69-1.82c0.11-1.84-0.49-3.21-1.94-4.4
		C-323.21,222.17-325.13,220.29-327.29,218.33z"/>
	<path d="M-393.93,218.27c-2.23,2.06-4.19,4.11-6.41,5.83c-1.44,1.12-1.83,2.47-1.79,4.06c0.03,1.13-0.4,1.84-1.24,2.53
		c-1.67,1.38-3.29,2.84-4.84,4.35c-0.71,0.68-1.37,0.91-2.33,0.68c-1.64-0.4-3.31-0.71-4.98-1.01c-0.79-0.14-1.23-0.52-1.38-1.31
		c-0.35-1.88-0.79-3.74-1.09-5.63c-0.07-0.47,0.13-1.13,0.45-1.49c1.74-1.99,3.51-3.97,5.39-5.83c0.49-0.48,1.39-0.67,2.13-0.74
		c1.38-0.14,2.42-0.73,3.37-1.72c1.59-1.66,3.28-3.23,5-4.76c0.3-0.27,1.13-0.4,1.4-0.19
		C-398.14,214.68-396.11,216.44-393.93,218.27z"/>
	<path d="M-309.25,143.68c-0.11-1.4-0.27-2.5-0.26-3.61c0.01-1.01-0.46-1.48-1.34-1.81c-1.46-0.53-2.88-1.15-4.32-1.73
		c-0.15-0.21-0.29-0.42-0.44-0.63c0.41-0.17,0.9-0.24,1.2-0.53c0.31-0.3,0.64-0.81,0.6-1.19c-0.12-1.29,0.54-2.1,1.38-2.92
		c3.78-3.66,7.52-7.36,11.28-11.04c1.14-1.12,1.38-1.12,2.55,0.03c2.01,1.99,4.01,3.98,6.01,5.98c1.06,1.06,1.07,1.4,0.01,2.48
		c-3.73,3.83-7.47,7.65-11.22,11.47c-0.3,0.31-0.66,0.77-1,0.78C-306.69,141.03-307.98,142.12-309.25,143.68z"/>
	<path d="M-405.45,136.43c-1.86,0.72-3.27,1.27-4.69,1.8c-1.79,0.67-1.76,0.68-1.57,2.54c0.09,0.87,0.02,1.76,0.02,2.64
		c-0.16,0.1-0.32,0.2-0.47,0.3c-0.42-0.54-0.78-1.14-1.27-1.6c-0.39-0.36-0.94-0.73-1.44-0.77c-1.33-0.1-2.21-0.83-3.08-1.73
		c-3.5-3.63-7.04-7.22-10.56-10.83c-1.12-1.15-1.12-1.45-0.01-2.57c2.02-2.04,4.08-4.04,6.08-6.1c0.82-0.85,1.46-0.83,2.29,0
		c3.93,3.88,7.9,7.72,11.84,11.59c0.33,0.33,0.83,0.75,0.82,1.12C-407.53,134.3-407.14,135.52-405.45,136.43z"/>
	<path d="M-430.51,113.44c1.89,0.71,3.78,1.36,5.62,2.13c0.7,0.29,0.74,0.91,0.17,1.48c-2.31,2.3-4.62,4.61-6.94,6.9
		c-0.73,0.72-1.39,0.5-1.75-0.35c-0.72-1.68-1.38-3.38-2-5.1c-0.1-0.28,0.05-0.8,0.27-1.03c1.11-1.16,2.27-2.28,3.45-3.37
		C-431.4,113.82-430.97,113.69-430.51,113.44z"/>
	<path d="M-285.54,118.37c-0.79,1.9-1.48,3.72-2.32,5.49c-0.48,1.02-1.18,0.57-1.76-0.01c-1.76-1.74-3.51-3.49-5.26-5.23
		c-0.18-0.18-0.37-0.37-0.56-0.55c-1.84-1.8-1.76-2.23,0.67-3.11c1.22-0.44,2.46-0.86,3.73-1.16c0.47-0.11,1.16-0.01,1.51,0.28
		c1.22,1.03,2.35,2.18,3.49,3.32C-285.8,117.64-285.71,118.04-285.54,118.37z"/>
	<path d="M-360.66,197.27c-11.02,0.11-21.17-8.63-21.13-21.31c0.04-11.39,9.29-20.78,21.31-20.74c12.41,0.03,21.21,9.87,21.11,21.05
		C-339.49,189.6-350.28,197.37-360.66,197.27z M-360.54,162.79c-7.56-0.01-13.69,6.06-13.69,13.53c0,7.37,6.17,13.51,13.58,13.53
		c7.4,0.01,13.73-6.17,13.73-13.41C-346.92,168.99-353.1,162.8-360.54,162.79z"/>
	<path d="M-360.69,153.26c-0.18-0.1-0.35-0.16-0.47-0.27c-1.12-1.09-2.26-2.16-3.32-3.31c-0.18-0.19-0.14-0.86,0.06-1.08
		c1-1.09,2.04-2.14,3.15-3.11c0.22-0.2,0.94-0.18,1.16,0.02c1.07,1.01,2.08,2.1,3.05,3.21c0.19,0.22,0.28,0.82,0.13,0.98
		c-1.06,1.15-2.19,2.23-3.31,3.32C-360.35,153.12-360.53,153.17-360.69,153.26z"/>
	<path d="M-389.93,198.39c1.97-3.43,3.94-6.87,6.06-10.57c1.3,1.82,2.39,3.35,3.6,5.03c-3.17,2.01-6.23,3.93-9.28,5.86
		C-389.67,198.6-389.8,198.49-389.93,198.39z"/>
	<path d="M-332.83,172.25c0.2,0.14,0.39,0.25,0.55,0.39c1.07,1.01,2.17,2,3.18,3.07c0.2,0.21,0.23,0.87,0.05,1.07
		c-0.99,1.15-2.04,2.25-3.14,3.28c-0.2,0.19-0.93,0.13-1.15-0.09c-1.04-0.98-2.02-2.03-2.95-3.11c-0.18-0.21-0.23-0.8-0.07-0.98
		c0.95-1.12,1.98-2.18,2.99-3.25C-333.24,172.49-333.04,172.4-332.83,172.25z"/>
	<path d="M-392.13,176.66c1.19-1.43,2.25-2.75,3.39-4c0.15-0.17,0.84-0.11,1.06,0.08c1.03,0.93,2.02,1.92,2.94,2.96
		c0.2,0.23,0.2,0.93,0,1.17c-0.96,1.12-1.99,2.19-3.07,3.19c-0.2,0.19-0.88,0.19-1.07,0.01
		C-390.12,178.87-391.27,177.58-392.13,176.66z"/>
	<path d="M-337.2,187.91c2.02,3.61,3.92,7,5.82,10.4c-0.1,0.09-0.2,0.17-0.3,0.26c-0.91-0.55-1.82-1.08-2.72-1.64
		c-1.85-1.14-3.68-2.31-5.53-3.43c-0.71-0.43-0.89-0.82-0.32-1.53C-339.26,190.73-338.34,189.44-337.2,187.91z"/>
	<path d="M-356.46,203.59c-1.35,1.27-2.52,2.41-3.77,3.47c-0.2,0.17-0.85,0.08-1.08-0.13c-1-0.89-1.97-1.84-2.86-2.85
		c-0.2-0.23-0.18-0.93,0.03-1.17c0.88-1.02,1.84-1.97,2.84-2.87c0.22-0.2,0.88-0.26,1.08-0.09
		C-358.97,201.07-357.79,202.27-356.46,203.59z"/>
	<path d="M-389.3,154.73c2.85,1.71,5.7,3.42,8.69,5.2c-1.07,1.61-2.06,3.09-3.23,4.85c-2.02-3.41-3.9-6.59-5.78-9.77
		C-389.51,154.92-389.41,154.83-389.3,154.73z"/>
	<path d="M-331.55,155c-1.86,3.15-3.73,6.3-5.75,9.73c-1.16-1.7-2.15-3.17-3.26-4.8c2.97-1.79,5.81-3.51,8.66-5.23
		C-331.79,154.8-331.67,154.9-331.55,155z"/>
	<path d="M-360.54,167.39c4.94,0.01,9.03,4.04,9.02,8.9c0,4.93-4.12,8.97-9.13,8.97c-4.96,0-9-4.02-8.99-8.93
		C-369.63,171.35-365.59,167.38-360.54,167.39z"/>
</g>
<g>
	<path d="M-113.24-89.56c0,3.79,0.1,7.57-0.02,11.36c-0.18,5.57-0.25,11.17-0.88,16.7c-0.83,7.31-4.51,13.19-10.28,17.74
		c-6.51,5.14-13.68,9.28-20.79,13.49c-2.37,1.4-4.78,2.74-7.17,4.12c-0.57,0.33-1.06,0.51-1.72,0.11
		c-7.74-4.73-15.55-9.36-23.24-14.18c-3.45-2.16-6.7-4.66-9.28-7.89c-3.58-4.49-5.69-9.57-6.1-15.32
		c-0.92-13.1-0.53-26.22-0.68-39.33c-0.01-1.11,0.56-1.44,1.42-1.75c7.55-2.78,15.09-5.59,22.64-8.37
		c4.97-1.83,9.94-3.64,14.93-5.39c0.59-0.21,1.39-0.18,1.98,0.04c11.89,4.28,23.77,8.6,35.65,12.92c0.55,0.2,1.1,0.41,1.65,0.61
		c2.15,0.78,1.9,0.5,1.91,2.81c0.01,4.12,0,8.23,0,12.35C-113.22-89.56-113.23-89.56-113.24-89.56z M-119.93-98.27
		c0.25-1.18-0.57-1.45-1.42-1.77c-10.38-3.83-20.75-7.68-31.13-11.5c-0.4-0.15-0.96-0.17-1.36-0.02
		c-10.62,3.91-21.23,7.86-31.85,11.77c-0.76,0.28-1,0.68-0.99,1.45c0.08,5.22,0.11,10.43,0.18,15.65c0.07,5.58,0.2,11.17,0.26,16.75
		c0.08,7.41,2.81,13.55,9.07,17.67c7.61,5.01,15.4,9.73,23.15,14.53c0.35,0.21,1.09,0.11,1.48-0.12c5.57-3.28,11.17-6.53,16.65-9.96
		c3.11-1.95,6.18-4.01,8.97-6.38c4.63-3.95,6.31-9.36,6.54-15.25c0.23-5.84,0.36-11.68,0.45-17.52
		C-119.87-88.05-119.93-93.16-119.93-98.27z"/>
	<path d="M-169.78-16.91c0.4,3.12,0.81,6.25,1.21,9.37c-0.1,0.06-0.2,0.11-0.31,0.17c-1.39-0.8-2.78-1.59-4.17-2.39
		c-3-1.71-5.99-3.45-9-5.13c-0.78-0.44-1.29-0.99-1.57-1.86c-0.73-2.26-1.55-4.5-2.37-6.86c2.01-0.71,3.9-1.39,5.79-2.06
		c2.46-0.87,4.91-1.79,7.39-2.57c0.58-0.18,1.4-0.1,1.95,0.17c5.5,2.72,10.97,5.5,16.44,8.29c0.75,0.38,1.38,0.45,2.16,0.05
		c5.47-2.78,10.97-5.5,16.44-8.28c0.71-0.36,1.31-0.49,2.07-0.22c3.99,1.4,7.98,2.79,11.98,4.13c0.86,0.29,1.06,0.69,0.75,1.54
		c-0.95,2.63-1.8,5.29-2.77,7.91c-0.15,0.4-0.62,0.82-1.04,0.95c-1.33,0.4-2.72,0.64-4.06,1.01c-0.96,0.27-1.7,0.12-2.32-0.7
		c-0.35-0.47-0.79-0.86-1.3-1.39c-0.44,0.47-0.85,0.92-1.27,1.34c-6.22,6.31-12.45,12.6-18.65,18.93c-0.74,0.75-1.12,0.7-1.78-0.1
		c-1.81-2.17-3.89-4.14-5.55-6.41c-2.17-2.99-4.06-6.19-6.02-9.34c-1.35-2.18-2.6-4.41-3.89-6.62
		C-169.68-16.95-169.73-16.93-169.78-16.91z"/>
	<path d="M-233.21-112.39c1.78,0.91,3.35,1.85,5.03,2.53c1.66,0.67,3.41,1.15,5.15,1.56c0.66,0.16,1.55,0.1,2.12-0.22
		c2.17-1.22,4.29-2.52,6.33-3.93c0.82-0.56,1.27-0.7,2,0.09c2.82,3.05,5.69,6.04,8.57,9.03c0.52,0.54,0.55,0.96,0.05,1.5
		c-2.72,2.95-2.98,6.4-1.71,9.98c0.8,2.27,1.97,4.42,2.97,6.62c0.14,0.32,0.3,0.63,0.56,1.18c-6.5-1.23-12.17-3.62-17.15-7.58
		C-226.08-97.04-230.37-104.13-233.21-112.39z M-210.09-92.26c0.23-1.84-0.05-2.48-0.94-2.81c-1.75-0.67-3.52-1.29-5.19-2.11
		c-1.76-0.86-3.42-1.93-5.38-3.05C-218.27-96.58-214.7-93.78-210.09-92.26z"/>
	<path d="M-104.35-84.06c0.95-1.99,1.9-3.73,2.62-5.56c0.61-1.56,1.13-3.19,1.41-4.84c0.47-2.8-0.39-5.31-2.28-7.43
		c-0.44-0.49-0.53-0.86-0.02-1.39c2.93-3.04,5.85-6.09,8.74-9.17c0.61-0.65,1.01-0.7,1.81-0.13c2.02,1.44,4.13,2.77,6.3,3.98
		c0.66,0.37,1.65,0.38,2.44,0.25c3.13-0.49,5.96-1.81,8.68-3.37c0.3-0.17,0.6-0.33,1-0.39c-2.35,7.06-5.88,13.33-11.33,18.45
		C-90.42-88.56-96.85-85.54-104.35-84.06z M-96.69-92.2c4.84-1.5,8.45-4.38,11.65-8c-0.15,0.02-0.23,0.01-0.28,0.04
		c-3.22,2.3-6.62,4.22-10.47,5.27c-0.25,0.07-0.56,0.37-0.63,0.62C-96.56-93.68-96.58-93.05-96.69-92.2z"/>
	<path d="M-202.79-144.18c8.19,2.75,15.39,6.47,21,12.79c4.35,4.91,7.22,10.57,8.73,17.22c-0.53-0.24-0.87-0.41-1.22-0.54
		c-2.52-0.88-5.01-1.89-7.59-2.6c-3.33-0.92-6.33-0.06-8.85,2.32c-0.46,0.43-0.8,0.64-1.36,0.09c-3.09-2.99-6.2-5.95-9.33-8.89
		c-0.74-0.69-0.73-1.18-0.14-2.02c1.37-1.94,2.61-3.98,3.79-6.04c0.3-0.53,0.34-1.36,0.21-1.98c-0.74-3.41-2.61-6.28-4.48-9.15
		C-202.24-143.28-202.42-143.59-202.79-144.18z M-181.12-121.32c-1.8-4.55-4.39-8.33-8.23-11.19c2.21,2.9,4.02,6.03,5.33,9.44
		C-183.34-121.33-183.34-121.33-181.12-121.32z"/>
	<path d="M-104.08-143.81c-0.84,1.33-1.79,2.6-2.48,4c-0.93,1.9-1.75,3.87-2.43,5.87c-0.23,0.67-0.1,1.65,0.25,2.28
		c1.17,2.07,2.48,4.06,3.83,6.02c0.48,0.7,0.47,1.13-0.12,1.68c-3.17,3-6.33,6.02-9.49,9.04c-0.4,0.38-0.71,0.54-1.2,0.07
		c-2.8-2.71-6.15-3.36-9.79-2.31c-2.42,0.69-4.76,1.7-7.13,2.57c-0.26,0.09-0.51,0.2-0.97,0.39c1.55-6.57,4.36-12.25,8.75-17.12
		C-119.23-137.56-112.16-141.48-104.08-143.81z M-125.5-121.32c2.26,0,2.24,0,2.9-1.78c0.3-0.82,0.61-1.66,1.04-2.42
		c1.3-2.31,2.65-4.58,3.97-6.83C-121.19-129.47-123.85-125.85-125.5-121.32z"/>
	<path d="M-125.18-38.91c1.93-1.6,3.68-3.09,5.5-4.51c0.21-0.16,0.89,0.03,1.16,0.27c1.45,1.3,2.87,2.63,4.22,4.02
		c0.76,0.78,1.61,1.24,2.68,1.31c0.96,0.06,1.7,0.46,2.35,1.22c1.17,1.37,2.41,2.66,3.68,3.93c0.61,0.61,0.81,1.22,0.61,2.07
		c-0.35,1.5-0.55,3.03-0.91,4.53c-0.09,0.36-0.53,0.81-0.89,0.9c-1.57,0.38-3.16,0.68-4.75,0.91c-0.43,0.06-1.02-0.13-1.36-0.41
		c-1.66-1.38-3.3-2.8-4.87-4.29c-0.37-0.35-0.62-1.03-0.59-1.54c0.09-1.56-0.41-2.72-1.64-3.72
		C-121.73-35.66-123.35-37.25-125.18-38.91z"/>
	<path d="M-181.48-38.96c-1.89,1.74-3.54,3.47-5.41,4.93c-1.22,0.95-1.55,2.09-1.51,3.43c0.03,0.95-0.34,1.55-1.05,2.14
		c-1.41,1.17-2.78,2.4-4.09,3.67c-0.6,0.58-1.16,0.77-1.97,0.57c-1.39-0.34-2.8-0.6-4.21-0.85c-0.67-0.12-1.04-0.44-1.17-1.11
		c-0.3-1.59-0.67-3.16-0.92-4.75c-0.06-0.4,0.11-0.96,0.38-1.26c1.47-1.68,2.96-3.36,4.55-4.93c0.41-0.41,1.18-0.56,1.8-0.63
		c1.17-0.12,2.04-0.61,2.85-1.46c1.35-1.4,2.77-2.73,4.22-4.02c0.26-0.23,0.96-0.34,1.18-0.16
		C-185.03-41.99-183.32-40.5-181.48-38.96z"/>
	<path d="M-109.93-101.98c-0.09-1.18-0.22-2.11-0.22-3.05c0.01-0.85-0.39-1.25-1.13-1.53c-1.23-0.45-2.44-0.97-3.65-1.46
		c-0.12-0.18-0.25-0.35-0.37-0.53c0.34-0.14,0.76-0.21,1.01-0.44c0.26-0.25,0.54-0.68,0.51-1.01c-0.1-1.09,0.45-1.77,1.17-2.47
		c3.19-3.09,6.36-6.22,9.53-9.33c0.97-0.95,1.17-0.95,2.15,0.03c1.7,1.68,3.39,3.36,5.08,5.05c0.89,0.9,0.9,1.18,0.01,2.09
		c-3.15,3.24-6.31,6.47-9.48,9.69c-0.25,0.26-0.56,0.65-0.85,0.66C-107.77-104.22-108.85-103.3-109.93-101.98z"/>
	<path d="M-191.21-108.11c-1.57,0.61-2.76,1.07-3.96,1.52c-1.51,0.57-1.49,0.57-1.33,2.15c0.07,0.74,0.01,1.49,0.01,2.23
		c-0.13,0.08-0.27,0.17-0.4,0.25c-0.35-0.46-0.66-0.96-1.07-1.35c-0.33-0.31-0.79-0.62-1.21-0.65c-1.13-0.08-1.87-0.7-2.6-1.46
		c-2.96-3.07-5.95-6.1-8.92-9.15c-0.94-0.97-0.95-1.23-0.01-2.17c1.71-1.72,3.45-3.41,5.14-5.15c0.69-0.71,1.23-0.7,1.94,0
		c3.32,3.28,6.67,6.52,10,9.79c0.28,0.28,0.7,0.63,0.69,0.95C-192.96-109.91-192.64-108.88-191.21-108.11z"/>
	<path d="M-153.38-127.94c-3.7-17.62-2.88-35.04-0.01-52.46C-150.36-162.98-149.63-145.56-153.38-127.94z"/>
	<path d="M-120.95-164.94c-0.86,2.33-1.65,4.69-2.61,6.98c-2.28,5.46-4.65,10.88-6.99,16.31c-0.11,0.26-0.24,0.59-0.45,0.74
		c-1.42,0.96-2.86,1.88-4.47,2.92c-0.13-1.99-0.29-3.76-0.33-5.54c-0.01-0.38,0.33-0.8,0.58-1.16c4.52-6.66,9.05-13.3,13.58-19.95
		c0.12-0.17,0.28-0.3,0.42-0.46C-121.13-165.04-121.04-164.99-120.95-164.94z"/>
	<path d="M-171.16-137.99c-1.66-1.05-3.07-1.89-4.42-2.83c-0.35-0.25-0.55-0.77-0.72-1.21c-3.1-7.5-6.19-15.01-9.27-22.52
		c-0.06-0.15-0.07-0.33,0.1-0.6c1.03,1.4,2.1,2.78,3.08,4.22c3.71,5.48,7.4,10.96,11.05,16.48c0.39,0.58,0.55,1.42,0.55,2.13
		C-170.82-140.98-171.02-139.64-171.16-137.99z"/>
	<path d="M-211.73-75.34c-1.64,0.87-3.27,1.74-4.92,2.61c-0.12,0.06-0.29,0.09-0.43,0.07c-6.82-0.89-13.65-1.8-20.47-2.7
		c-0.02,0-0.04-0.05-0.21-0.26c1.02-0.2,1.95-0.44,2.88-0.55c5.71-0.71,11.42-1.39,17.14-2.07c0.28-0.03,0.62-0.08,0.86,0.04
		c1.72,0.81,3.41,1.67,5.12,2.51C-211.75-75.58-211.74-75.46-211.73-75.34z"/>
	<path d="M-69.18-75.33c-1.75,0.32-3.48,0.73-5.24,0.94c-4.96,0.6-9.92,1.13-14.88,1.67c-0.25,0.03-0.55,0.07-0.75-0.03
		c-1.61-0.84-3.21-1.72-5.08-2.74c0.89-0.47,1.55-0.76,2.14-1.14c2.16-1.38,4.41-1.8,7-1.38c5.36,0.87,10.76,1.49,16.15,2.23
		c0.23,0.03,0.45,0.13,0.67,0.19C-69.18-75.5-69.18-75.42-69.18-75.33z"/>
	<path d="M-203.91-60.96c-2.42,2.77-3.77,6.38-7.31,8.29c-4.56,2.46-8.97,5.17-13.45,7.77c-0.27,0.16-0.56,0.27-0.85,0.4
		c-0.07-0.07-0.14-0.14-0.2-0.22c0.55-0.65,1.04-1.35,1.65-1.94c3.96-3.77,7.95-7.52,11.93-11.27c0.16-0.15,0.33-0.31,0.53-0.39
		c2.48-1,4.96-1.99,7.44-2.98C-204.09-61.18-204-61.07-203.91-60.96z"/>
	<path d="M-81.01-44.39c-2.44-1.4-4.9-2.78-7.33-4.2c-2.69-1.57-5.4-3.14-8.03-4.81c-0.9-0.57-1.72-1.37-2.38-2.21
		c-1.35-1.75-2.57-3.61-3.75-5.53c3.47,1.34,7.18,2.04,9.96,4.85c2.94,2.97,6.12,5.7,9.15,8.58c0.97,0.92,1.79,2,2.68,3.01
		C-80.81-44.6-80.91-44.49-81.01-44.39z"/>
	<path d="M-212.38-127.53c1.6,0.6,3.2,1.15,4.75,1.8c0.59,0.25,0.63,0.77,0.14,1.25c-1.95,1.94-3.9,3.89-5.86,5.83
		c-0.61,0.6-1.17,0.42-1.48-0.3c-0.61-1.42-1.17-2.85-1.69-4.31c-0.09-0.24,0.04-0.68,0.23-0.87c0.94-0.98,1.92-1.93,2.91-2.85
		C-213.14-127.21-212.77-127.32-212.38-127.53z"/>
	<path d="M-89.9-123.36c-0.67,1.6-1.25,3.15-1.96,4.63c-0.41,0.87-1,0.48-1.49-0.01c-1.48-1.47-2.97-2.95-4.45-4.42
		c-0.16-0.16-0.31-0.31-0.47-0.46c-1.56-1.52-1.49-1.88,0.57-2.63c1.03-0.37,2.08-0.73,3.15-0.98c0.39-0.09,0.98-0.01,1.28,0.24
		c1.03,0.87,1.99,1.84,2.94,2.81C-90.12-123.98-90.04-123.65-89.9-123.36z"/>
	<path d="M-153.37-56.71c-9.31,0.09-17.89-7.29-17.85-18.01c0.03-9.62,7.85-17.56,18.01-17.53c10.49,0.03,17.92,8.34,17.83,17.79
		C-135.48-63.19-144.6-56.62-153.37-56.71z M-153.27-85.83c-6.38-0.01-11.57,5.12-11.56,11.43c0,6.23,5.21,11.42,11.47,11.43
		c6.25,0.01,11.6-5.21,11.6-11.33C-141.76-80.6-146.98-85.83-153.27-85.83z"/>
	<path d="M-153.39-93.89c-0.15-0.09-0.3-0.13-0.4-0.23c-0.95-0.92-1.91-1.83-2.81-2.8c-0.15-0.16-0.12-0.73,0.05-0.91
		c0.84-0.92,1.73-1.81,2.66-2.63c0.19-0.17,0.8-0.16,0.98,0.02c0.91,0.85,1.76,1.77,2.58,2.71c0.16,0.18,0.24,0.69,0.11,0.83
		c-0.9,0.97-1.85,1.88-2.8,2.81C-153.1-94-153.25-93.96-153.39-93.89z"/>
	<path d="M-178.1-55.76c1.66-2.9,3.33-5.8,5.12-8.93c1.1,1.54,2.02,2.83,3.04,4.25c-2.68,1.69-5.26,3.32-7.84,4.95
		C-177.88-55.58-177.99-55.67-178.1-55.76z"/>
	<path d="M-129.86-77.84c0.17,0.12,0.33,0.21,0.46,0.33c0.91,0.85,1.83,1.69,2.69,2.59c0.16,0.17,0.19,0.73,0.04,0.91
		c-0.84,0.97-1.72,1.9-2.66,2.77c-0.17,0.16-0.78,0.11-0.98-0.07c-0.88-0.83-1.7-1.71-2.49-2.63c-0.15-0.17-0.19-0.67-0.06-0.83
		c0.8-0.95,1.67-1.84,2.53-2.75C-130.2-77.64-130.03-77.72-129.86-77.84z"/>
	<path d="M-179.96-74.11c1.01-1.21,1.9-2.32,2.86-3.38c0.13-0.14,0.71-0.1,0.89,0.07c0.87,0.79,1.71,1.62,2.48,2.5
		c0.17,0.2,0.17,0.79,0,0.99c-0.81,0.95-1.68,1.85-2.59,2.7c-0.17,0.16-0.75,0.16-0.9,0C-178.26-72.25-179.23-73.34-179.96-74.11z"
		/>
	<path d="M-133.54-64.61c1.71,3.05,3.31,5.92,4.92,8.79c-0.08,0.07-0.17,0.15-0.25,0.22c-0.77-0.46-1.54-0.91-2.3-1.38
		c-1.56-0.96-3.11-1.95-4.68-2.9c-0.6-0.36-0.75-0.7-0.27-1.29C-135.29-62.23-134.51-63.32-133.54-64.61z"/>
	<path d="M-149.81-51.37c-1.14,1.07-2.13,2.04-3.19,2.94c-0.17,0.14-0.72,0.07-0.91-0.11c-0.85-0.76-1.66-1.56-2.41-2.41
		c-0.17-0.19-0.15-0.79,0.02-0.99c0.74-0.86,1.55-1.67,2.4-2.43c0.19-0.17,0.75-0.22,0.91-0.08
		C-151.94-53.49-150.95-52.48-149.81-51.37z"/>
	<path d="M-177.56-92.64c2.41,1.44,4.82,2.89,7.34,4.4c-0.91,1.36-1.74,2.61-2.73,4.1c-1.71-2.88-3.29-5.57-4.88-8.25
		C-177.74-92.48-177.65-92.56-177.56-92.64z"/>
	<path d="M-128.78-92.42c-1.57,2.66-3.15,5.32-4.86,8.22c-0.98-1.44-1.82-2.68-2.75-4.05c2.51-1.51,4.91-2.97,7.32-4.42
		C-128.97-92.59-128.87-92.5-128.78-92.42z"/>
	<path d="M-153.26-81.95c4.18,0.01,7.63,3.41,7.62,7.52c0,4.17-3.48,7.58-7.72,7.58c-4.19,0-7.6-3.39-7.6-7.54
		C-160.95-78.6-157.54-81.96-153.26-81.95z"/>
</g>
<path d="M-362.14,344.21c2.61,1.75,5.18,3.47,7.76,5.21c11.42-16.9,22.88-33.86,34.5-51.06c8.99,13.31,17.8,26.38,26.57,39.37
	c2.69-1.73,5.35-3.44,8.04-5.18c3.23,4.93,6.35,9.77,9.55,14.55c7,10.48,14.03,20.94,21.05,31.4c1.71,2.55,3.42,5.09,5.15,7.62
	c0.84,1.23,1.32,2.51,1.31,4.06c-0.05,8.43-0.03,16.87,0,25.3c0.01,2.17,0.08,4.34,0.22,6.51c0.07,1.05-0.3,1.75-1.09,2.4
	c-3.16,2.58-6.29,5.2-9.42,7.82c-9.39,7.86-18.76,15.74-28.16,23.58c-6.44,5.37-12.92,10.7-19.38,16.05
	c-4.23,3.51-8.46,7.03-12.75,10.61c-4.28-3.43-8.55-6.83-12.8-10.27c-7.07-5.72-14.14-11.44-21.19-17.19
	c-9.81-7.99-19.61-16-29.39-24.03c-2.95-2.42-5.82-4.94-8.69-7.46c-0.33-0.29-0.57-0.86-0.57-1.31c-0.06-9.59-0.08-19.19-0.12-28.78
	c0-0.97-0.07-1.95-0.15-2.91c-0.13-1.54,0.42-2.86,1.26-4.09c4.21-6.22,8.46-12.43,12.64-18.67c5.03-7.52,10.01-15.07,15.02-22.61
	C-362.61,344.84-362.4,344.58-362.14,344.21z M-318.8,472.63c2.12-1.72,4.2-3.36,6.25-5.06c7.73-6.4,15.45-12.81,23.16-19.24
	c6.73-5.61,13.43-11.25,20.14-16.89c4.39-3.68,8.78-7.36,13.14-11.08c0.36-0.31,0.66-0.92,0.66-1.4c-0.01-9.3-0.06-18.59-0.12-27.89
	c0-0.42-0.12-0.91-0.35-1.25c-4.97-7.38-9.97-14.74-14.94-22.12c-5.33-7.91-10.62-15.84-15.93-23.76c-0.2-0.29-0.41-0.57-0.55-0.77
	c-2.64,1.67-5.16,3.27-7.85,4.97c-8.29-12.26-16.49-24.39-24.73-36.57c-10.84,16.04-21.64,32.02-32.48,48.06
	c-2.55-1.68-5.07-3.34-7.6-5.01c-0.19,0.29-0.47,0.73-0.77,1.16c-7.64,11.22-15.29,22.43-22.9,33.67c-0.35,0.51-0.57,1.23-0.57,1.84
	c0.02,8.62,0.14,17.24,0.08,25.86c-0.01,1.8,0.54,2.89,1.93,4c9.38,7.45,18.69,15,28.01,22.52c0.48,0.39,0.86,0.54,1.48,0.23
	c1.34-0.65,2.74-1.17,4.1-1.79c5.33-2.42,10.7-4.78,15.96-7.33c2.42-1.17,4.66-2.73,6.32-4.94c1.69-2.25,1.48-4.89-0.77-6.54
	c-1.82-1.33-3.84-2.45-5.88-3.43c-3.63-1.74-7.37-3.25-11.02-4.96c-1.94-0.91-3.7-2.11-4.96-3.93c-1.36-1.97-1.23-4.07,0.43-5.81
	c1.39-1.46,3.17-2.25,5.02-2.85c8.15-2.63,16.58-3.79,25.07-4.49c3.84-0.32,7.7-0.45,11.55-0.64c1.11-0.05,2.23-0.01,3.35-0.01
	c-3.39,1.12-6.83,1.97-10.17,3.13c-3.19,1.11-6.33,2.41-9.38,3.88c-1.82,0.88-1.67,2.9,0.13,3.85c0.98,0.52,2.05,0.92,3.11,1.23
	c4.8,1.39,9.61,2.7,14.41,4.08c5.15,1.49,10.15,3.34,14.51,6.56c2.14,1.58,4.19,3.28,5.18,5.9c1.71,4.52,0.72,8.58-2.06,12.34
	c-3.32,4.51-7.18,8.53-11.32,12.29c-3.85,3.51-7.6,7.12-11.38,10.7c-3.44,3.27-6.85,6.57-10.27,9.85
	C-320.11,471.59-319.44,472.12-318.8,472.63z M-334.26,407.21c-1.22-0.64-1.86,0.39-2.55,1.01c-0.62,0.56-0.67,1.37-0.28,2.17
	c0.75,1.53,2.04,2.5,3.52,3.16c2.24,1,4.61,1.73,6.83,2.78c3.78,1.77,7.65,3.42,11.17,5.62c4.63,2.89,5.28,7.2,1.84,11.45
	c-1.88,2.33-4.15,4.45-6.55,6.24c-6.46,4.82-13.73,8.28-20.85,11.98c-0.8,0.41-1.59,0.83-2.47,1.28c3.02,2.39,5.91,4.68,8.84,6.99
	c0.3-0.22,0.62-0.46,0.96-0.7c7.69-5.52,15.35-11.09,22.39-17.44c3.19-2.88,5.98-6.02,7.73-10.05c1.76-4.06-0.04-8.33-3-10.16
	c-1.96-1.21-3.99-2.4-6.14-3.19c-3.95-1.45-8.04-2.49-12-3.89c-2.55-0.9-5.04-2.04-7.44-3.28
	C-333.72,410.41-334.47,409-334.26,407.21z"/>
<path d="M-262.64,394.02c-6.39,0-12.75,0.01-19.12-0.03c-0.32,0-0.72-0.32-0.94-0.6c-6.44-8.54-12.85-17.1-19.29-25.65
	c-2.72-3.61-5.49-7.19-8.3-10.87c-7.04,9.43-14.05,18.84-21.11,28.31c-1.91-2.48-3.84-4.98-5.8-7.53
	c-3.99,3.89-7.98,7.79-11.99,11.66c-1.51,1.46-3.07,2.86-4.63,4.26c-0.25,0.23-0.64,0.43-0.96,0.43
	c-7.15,0.02-14.31,0.02-21.69,0.02c5.83-8.71,11.56-17.28,17.39-25.99c1.3,3.31,2.54,6.43,3.9,9.88
	c10.03-14.27,19.52-28.49,28.96-43.06c1.24,7.66,2.76,15,4.94,22.43c2.29-8.74,3.29-17.43,4.18-26.15c0.12-0.04,0.25-0.09,0.37-0.13
	c9.96,13.4,19.92,26.8,29.93,40.25c0.37-3.74,0.75-7.5,1.15-11.49C-277.92,371.27-270.3,382.62-262.64,394.02z"/>
<g>
</g>
<g>
</g>
<g>
</g>
<g>
</g>
<g>
</g>
<g>
</g>
</svg>
